<?xml version="1.0" encoding="iso-8859-1"?>
<!-- Generator: Adobe Illustrator 18.0.0, SVG Export Plug-In . SVG Version: 6.00 Build 0)  -->
<!DOCTYPE svg PUBLIC "-//W3C//DTD SVG 1.1//EN" "http://www.w3.org/Graphics/SVG/1.1/DTD/svg11.dtd">
<svg version="1.1" id="Capa_1" xmlns="http://www.w3.org/2000/svg" xmlns:xlink="http://www.w3.org/1999/xlink" x="0px" y="0px"
	 viewBox="0 0 57.825 57.825" style="enable-background:new 0 0 57.825 57.825;" xml:space="preserve">
<path d="M54.867,45.913H20.511c-0.669,0-1.325-0.23-1.846-0.647L1.109,31.22C0.404,30.656,0,29.815,0,28.913
	s0.404-1.744,1.108-2.308L18.665,12.56c0.521-0.417,1.177-0.647,1.846-0.647h34.356c1.631,0,2.958,1.327,2.958,2.958v28.084
	C57.825,44.585,56.498,45.913,54.867,45.913z M20.511,13.913c-0.216,0-0.428,0.074-0.597,0.209L2.358,28.167
	C2.13,28.349,2,28.621,2,28.913s0.13,0.564,0.358,0.746l17.556,14.045c0.169,0.135,0.381,0.209,0.597,0.209h34.356
	c0.528,0,0.958-0.43,0.958-0.958V14.871c0-0.528-0.43-0.958-0.958-0.958H20.511z"/>
<g>
</g>
<g>
</g>
<g>
</g>
<g>
</g>
<g>
</g>
<g>
</g>
<g>
</g>
<g>
</g>
<g>
</g>
<g>
</g>
<g>
</g>
<g>
</g>
<g>
</g>
<g>
</g>
<g>
</g>
</svg>
