<?xml version="1.0" encoding="iso-8859-1"?>
<!-- Generator: Adobe Illustrator 18.0.0, SVG Export Plug-In . SVG Version: 6.00 Build 0)  -->
<!DOCTYPE svg PUBLIC "-//W3C//DTD SVG 1.1//EN" "http://www.w3.org/Graphics/SVG/1.1/DTD/svg11.dtd">
<svg version="1.1" id="Capa_1" xmlns="http://www.w3.org/2000/svg" xmlns:xlink="http://www.w3.org/1999/xlink" x="0px" y="0px"
	 viewBox="0 0 58 58" style="enable-background:new 0 0 58 58;" xml:space="preserve">
<g>
	<path d="M13,0C9.141,0,6,3.141,6,7c0,3.519,2.614,6.432,6,6.92v0.58c0,0.553,0.447,1,1,1s1-0.447,1-1v-0.58
		c3.386-0.488,6-3.401,6-6.92C20,3.141,16.859,0,13,0z M13,12c-2.757,0-5-2.243-5-5s2.243-5,5-5s5,2.243,5,5S15.757,12,13,12z"/>
	<path d="M33.923,50.618c-0.051-0.123-0.125-0.234-0.217-0.327l-5.999-5.999c-0.391-0.391-1.023-0.391-1.414,0s-0.391,1.023,0,1.414
		l4.551,4.551C30.637,50.441,30.5,50.701,30.5,51s0.137,0.559,0.344,0.742l-4.551,4.551c-0.391,0.391-0.391,1.023,0,1.414
		C26.488,57.902,26.744,58,27,58s0.512-0.098,0.707-0.293l5.999-5.999c0.093-0.092,0.166-0.203,0.217-0.326
		C34.024,51.138,34.024,50.862,33.923,50.618z"/>
	<path d="M12,25.789c0,0.553,0.447,1,1,1s1-0.447,1-1v-1.882c0-0.553-0.447-1-1-1s-1,0.447-1,1V25.789z"/>
	<path d="M13,21.145c0.553,0,1-0.447,1-1v-1.882c0-0.553-0.447-1-1-1s-1,0.447-1,1v1.882C12,20.697,12.447,21.145,13,21.145z"/>
	<path d="M12,38.019c0,0.553,0.447,1,1,1s1-0.447,1-1v-1.882c0-0.553-0.447-1-1-1s-1,0.447-1,1V38.019z"/>
	<path d="M14.27,43.393c-0.138-0.544-0.224-1.104-0.256-1.668c-0.031-0.552-0.513-0.972-1.055-0.941
		c-0.552,0.031-0.973,0.503-0.941,1.055c0.039,0.69,0.145,1.378,0.313,2.045c0.115,0.453,0.521,0.755,0.969,0.755
		c0.081,0,0.164-0.01,0.246-0.03C14.08,44.472,14.404,43.928,14.27,43.393z"/>
	<path d="M12,32.374c0,0.553,0.447,1,1,1s1-0.447,1-1v-2.822c0-0.553-0.447-1-1-1s-1,0.447-1,1V32.374z"/>
	<path d="M15.705,46.425c-0.328-0.445-0.952-0.54-1.398-0.213c-0.445,0.328-0.54,0.954-0.213,1.398
		c0.616,0.836,1.348,1.578,2.177,2.206c0.181,0.137,0.393,0.203,0.603,0.203c0.303,0,0.602-0.137,0.798-0.396
		c0.334-0.439,0.247-1.067-0.193-1.4C16.803,47.711,16.206,47.106,15.705,46.425z"/>
	<path d="M28.727,51c0-0.553-0.447-1-1-1h-1.882c-0.553,0-1,0.447-1,1s0.447,1,1,1h1.882C28.279,52,28.727,51.553,28.727,51z"/>
	<path d="M22.152,49.979c-0.562-0.04-1.121-0.134-1.663-0.279c-0.527-0.143-1.081,0.173-1.225,0.707
		c-0.144,0.533,0.173,1.081,0.707,1.225c0.664,0.179,1.351,0.294,2.04,0.342c0.023,0.002,0.048,0.003,0.071,0.003
		c0.521,0,0.959-0.402,0.996-0.93C23.118,50.496,22.703,50.018,22.152,49.979z"/>
	<path d="M46,44.08V16.774C46,10.833,41.167,6,35.226,6h-7.812l4.293-4.293c0.391-0.391,0.391-1.023,0-1.414s-1.023-0.391-1.414,0
		l-5.999,5.999c-0.093,0.092-0.166,0.203-0.217,0.326c-0.101,0.244-0.101,0.52,0,0.764c0.051,0.123,0.124,0.234,0.217,0.326
		l5.999,5.999C30.488,13.902,30.744,14,31,14s0.512-0.098,0.707-0.293c0.391-0.391,0.391-1.023,0-1.414L27.414,8h7.812
		C40.063,8,44,11.937,44,16.774V44.08c-3.386,0.488-6,3.401-6,6.92c0,3.859,3.141,7,7,7s7-3.141,7-7
		C52,47.481,49.386,44.568,46,44.08z M45,56c-2.757,0-5-2.243-5-5s2.243-5,5-5s5,2.243,5,5S47.757,56,45,56z"/>
</g>
<g>
</g>
<g>
</g>
<g>
</g>
<g>
</g>
<g>
</g>
<g>
</g>
<g>
</g>
<g>
</g>
<g>
</g>
<g>
</g>
<g>
</g>
<g>
</g>
<g>
</g>
<g>
</g>
<g>
</g>
</svg>
