<?xml version="1.0" encoding="iso-8859-1"?>
<!-- Generator: Adobe Illustrator 18.0.0, SVG Export Plug-In . SVG Version: 6.00 Build 0)  -->
<!DOCTYPE svg PUBLIC "-//W3C//DTD SVG 1.1//EN" "http://www.w3.org/Graphics/SVG/1.1/DTD/svg11.dtd">
<svg version="1.1" id="Capa_1" xmlns="http://www.w3.org/2000/svg" xmlns:xlink="http://www.w3.org/1999/xlink" x="0px" y="0px"
	 viewBox="0 0 60 60" style="enable-background:new 0 0 60 60;" xml:space="preserve">
<g>
	<path d="M32.434,9.116c0.635,0.073,1.269,0.176,1.883,0.305c0.069,0.015,0.138,0.021,0.206,0.021c0.463,0,0.879-0.323,0.978-0.795
		c0.114-0.54-0.233-1.07-0.773-1.184c-0.673-0.142-1.368-0.254-2.063-0.334c-0.543-0.068-1.044,0.33-1.108,0.878
		C31.492,8.556,31.885,9.053,32.434,9.116z"/>
	<path d="M37.962,10.539c0.585,0.24,1.167,0.511,1.731,0.804c0.147,0.077,0.305,0.113,0.46,0.113c0.361,0,0.71-0.196,0.888-0.538
		c0.255-0.49,0.064-1.094-0.426-1.349c-0.617-0.321-1.255-0.617-1.896-0.88c-0.511-0.212-1.095,0.034-1.305,0.545
		C37.207,9.746,37.451,10.33,37.962,10.539z"/>
	<path d="M44.351,14.645c0.193,0.181,0.438,0.27,0.683,0.27c0.267,0,0.533-0.106,0.73-0.316c0.377-0.403,0.356-1.036-0.047-1.414
		c-0.508-0.476-1.042-0.933-1.588-1.357c-0.435-0.337-1.064-0.262-1.403,0.175c-0.34,0.436-0.262,1.063,0.174,1.403
		C43.398,13.793,43.886,14.21,44.351,14.645z"/>
	<path d="M47.953,19.076c0.188,0.31,0.518,0.479,0.855,0.479c0.177,0,0.357-0.047,0.52-0.146c0.472-0.287,0.621-0.902,0.333-1.374
		c-0.361-0.593-0.754-1.176-1.166-1.732c-0.328-0.445-0.955-0.54-1.398-0.209c-0.444,0.328-0.538,0.954-0.209,1.398
		C47.264,18.002,47.623,18.534,47.953,19.076z"/>
	<path d="M26.568,9.243c0.052,0,0.104-0.004,0.157-0.012c0.62-0.098,1.258-0.168,1.897-0.21c0.551-0.036,0.969-0.513,0.933-1.063
		c-0.037-0.551-0.507-0.972-1.063-0.933c-0.698,0.046-1.397,0.123-2.077,0.229c-0.545,0.086-0.918,0.598-0.833,1.144
		C25.659,8.891,26.084,9.243,26.568,9.243z"/>
	<path d="M49.629,22.498c0.101,0.264,0.196,0.53,0.286,0.798c0.141,0.418,0.53,0.682,0.948,0.682c0.105,0,0.213-0.017,0.319-0.052
		c0.523-0.177,0.805-0.743,0.629-1.267c-0.099-0.293-0.203-0.585-0.313-0.874c-0.197-0.516-0.775-0.774-1.291-0.578
		C49.691,21.404,49.432,21.982,49.629,22.498z"/>
	<path d="M8.819,23.926c0.105,0.035,0.212,0.052,0.318,0.052c0.418,0,0.808-0.264,0.948-0.682c0.201-0.6,0.433-1.198,0.688-1.779
		c0.223-0.506-0.006-1.096-0.512-1.318c-0.505-0.222-1.096,0.007-1.318,0.512c-0.28,0.637-0.534,1.293-0.755,1.949
		C8.014,23.183,8.295,23.75,8.819,23.926z"/>
	<path d="M20.845,10.967c0.139,0,0.281-0.029,0.416-0.091c0.577-0.265,1.171-0.504,1.768-0.714c0.521-0.183,0.795-0.754,0.612-1.274
		c-0.183-0.522-0.754-0.8-1.275-0.612c-0.653,0.229-1.305,0.492-1.938,0.782c-0.502,0.229-0.723,0.823-0.493,1.325
		C20.103,10.75,20.466,10.967,20.845,10.967z"/>
	<path d="M11.795,18.619c0.32,0,0.634-0.153,0.828-0.438c0.357-0.524,0.742-1.039,1.144-1.528c0.351-0.427,0.289-1.057-0.138-1.407
		c-0.426-0.352-1.056-0.288-1.407,0.138c-0.44,0.536-0.862,1.099-1.252,1.673c-0.311,0.456-0.192,1.078,0.264,1.39
		C11.406,18.563,11.602,18.619,11.795,18.619z"/>
	<path d="M15.799,14.175c0.228,0,0.458-0.077,0.645-0.236c0.484-0.409,0.993-0.801,1.511-1.164c0.452-0.317,0.562-0.94,0.245-1.394
		c-0.317-0.452-0.94-0.562-1.393-0.245c-0.568,0.398-1.125,0.827-1.655,1.275c-0.422,0.356-0.475,0.987-0.118,1.409
		C15.232,14.054,15.515,14.175,15.799,14.175z"/>
	<path d="M59.707,36.27l-6.999-6.999c-0.092-0.093-0.203-0.166-0.326-0.217c-0.244-0.101-0.52-0.101-0.764,0
		c-0.123,0.051-0.233,0.124-0.326,0.217l-6.999,6.999c-0.391,0.391-0.391,1.023,0,1.414c0.195,0.195,0.451,0.293,0.707,0.293
		s0.512-0.098,0.707-0.293l5.116-5.116C49.54,42.927,40.701,50.977,30,50.977s-19.54-8.05-20.823-18.409l5.116,5.116
		c0.195,0.195,0.451,0.293,0.707,0.293s0.512-0.098,0.707-0.293c0.391-0.391,0.391-1.023,0-1.414l-6.999-6.999
		c-0.092-0.093-0.203-0.166-0.326-0.217c-0.244-0.101-0.52-0.101-0.764,0c-0.123,0.051-0.233,0.124-0.326,0.217L0.293,36.27
		c-0.391,0.391-0.391,1.023,0,1.414C0.488,37.88,0.744,37.977,1,37.977s0.512-0.098,0.707-0.293l5.408-5.408
		C8.272,43.883,18.094,52.977,30,52.977s21.728-9.094,22.885-20.701l5.408,5.408c0.195,0.195,0.451,0.293,0.707,0.293
		s0.512-0.098,0.707-0.293C60.098,37.294,60.098,36.661,59.707,36.27z"/>
</g>
<g>
</g>
<g>
</g>
<g>
</g>
<g>
</g>
<g>
</g>
<g>
</g>
<g>
</g>
<g>
</g>
<g>
</g>
<g>
</g>
<g>
</g>
<g>
</g>
<g>
</g>
<g>
</g>
<g>
</g>
</svg>
