<?xml version="1.0" encoding="iso-8859-1"?>
<!-- Generator: Adobe Illustrator 18.0.0, SVG Export Plug-In . SVG Version: 6.00 Build 0)  -->
<!DOCTYPE svg PUBLIC "-//W3C//DTD SVG 1.1//EN" "http://www.w3.org/Graphics/SVG/1.1/DTD/svg11.dtd">
<svg version="1.1" id="Capa_1" xmlns="http://www.w3.org/2000/svg" xmlns:xlink="http://www.w3.org/1999/xlink" x="0px" y="0px"
	 viewBox="0 0 60 60" style="enable-background:new 0 0 60 60;" xml:space="preserve">
<g>
	<path d="M15.649,45.355c-0.403-0.377-1.035-0.355-1.413,0.047c-0.377,0.403-0.356,1.036,0.047,1.414
		c0.508,0.476,1.042,0.933,1.588,1.357c0.183,0.142,0.399,0.211,0.614,0.211c0.297,0,0.592-0.132,0.789-0.386
		c0.34-0.436,0.262-1.063-0.174-1.403C16.602,46.208,16.114,45.791,15.649,45.355z"/>
	<path d="M33.275,50.769c-0.62,0.098-1.258,0.168-1.897,0.21c-0.551,0.036-0.969,0.513-0.933,1.063
		c0.035,0.528,0.475,0.935,0.997,0.935c0.022,0,0.044-0.001,0.066-0.002c0.698-0.046,1.397-0.123,2.077-0.229
		c0.545-0.086,0.918-0.598,0.833-1.144C34.333,51.056,33.823,50.688,33.275,50.769z"/>
	<path d="M22.038,49.461c-0.585-0.24-1.167-0.511-1.731-0.804c-0.491-0.258-1.094-0.064-1.349,0.425
		c-0.255,0.49-0.064,1.094,0.426,1.349c0.617,0.321,1.255,0.617,1.896,0.88c0.124,0.052,0.252,0.075,0.379,0.075
		c0.394,0,0.767-0.233,0.926-0.62C22.793,50.254,22.549,49.67,22.038,49.461z"/>
	<path d="M12.047,40.924c-0.288-0.473-0.903-0.622-1.375-0.333c-0.472,0.287-0.621,0.902-0.333,1.374
		c0.361,0.593,0.754,1.176,1.166,1.732c0.196,0.266,0.498,0.405,0.805,0.405c0.207,0,0.415-0.063,0.594-0.196
		c0.444-0.328,0.538-0.954,0.209-1.398C12.736,41.999,12.377,41.466,12.047,40.924z"/>
	<path d="M10.371,37.502c-0.101-0.264-0.196-0.53-0.286-0.798c-0.176-0.523-0.741-0.804-1.267-0.63
		c-0.523,0.177-0.805,0.743-0.629,1.267c0.099,0.293,0.203,0.585,0.313,0.874c0.152,0.398,0.532,0.644,0.934,0.644
		c0.119,0,0.239-0.021,0.356-0.065C10.309,38.596,10.568,38.018,10.371,37.502z"/>
	<path d="M27.566,50.884c-0.635-0.073-1.269-0.176-1.883-0.305c-0.543-0.116-1.071,0.232-1.184,0.773
		c-0.114,0.54,0.233,1.07,0.773,1.184c0.673,0.142,1.368,0.254,2.063,0.334c0.039,0.005,0.078,0.007,0.116,0.007
		c0.5,0,0.933-0.376,0.992-0.885C28.508,51.444,28.115,50.948,27.566,50.884z"/>
	<path d="M51.181,36.075c-0.521-0.173-1.09,0.107-1.266,0.63c-0.201,0.6-0.433,1.198-0.688,1.779
		c-0.223,0.506,0.006,1.096,0.512,1.318c0.131,0.058,0.268,0.085,0.403,0.085c0.384,0,0.751-0.223,0.916-0.597
		c0.28-0.637,0.534-1.293,0.755-1.949C51.986,36.817,51.705,36.25,51.181,36.075z"/>
	<path d="M47.377,41.819c-0.357,0.524-0.742,1.039-1.144,1.528c-0.351,0.427-0.289,1.057,0.138,1.407
		c0.186,0.153,0.411,0.228,0.634,0.228c0.289,0,0.575-0.125,0.773-0.365c0.44-0.536,0.862-1.099,1.252-1.673
		c0.311-0.456,0.192-1.078-0.264-1.39C48.31,41.244,47.687,41.362,47.377,41.819z"/>
	<path d="M43.556,46.062c-0.484,0.409-0.993,0.801-1.511,1.164c-0.452,0.317-0.562,0.94-0.245,1.394
		c0.194,0.277,0.504,0.426,0.82,0.426c0.198,0,0.398-0.059,0.573-0.181c0.568-0.398,1.125-0.827,1.655-1.275
		c0.422-0.356,0.475-0.987,0.118-1.409C44.609,45.757,43.977,45.705,43.556,46.062z"/>
	<path d="M38.739,49.125c-0.577,0.265-1.171,0.504-1.768,0.714c-0.521,0.183-0.795,0.754-0.612,1.274
		c0.145,0.412,0.531,0.669,0.943,0.669c0.11,0,0.222-0.018,0.332-0.057c0.653-0.229,1.305-0.492,1.938-0.782
		c0.502-0.229,0.723-0.823,0.493-1.325C39.835,49.117,39.243,48.897,38.739,49.125z"/>
	<path d="M59.707,23.316c-0.391-0.391-1.023-0.391-1.414,0l-5.337,5.337C52.244,16.606,42.222,7.023,30,7.023
		S7.756,16.606,7.044,28.653l-5.337-5.337c-0.391-0.391-1.023-0.391-1.414,0s-0.391,1.023,0,1.414l7,7
		C7.488,31.925,7.744,32.023,8,32.023s0.512-0.098,0.707-0.293l7-7c0.391-0.391,0.391-1.023,0-1.414s-1.023-0.391-1.414,0
		l-5.217,5.218C9.845,17.649,18.923,9.023,30,9.023s20.155,8.626,20.924,19.51l-5.217-5.218c-0.391-0.391-1.023-0.391-1.414,0
		s-0.391,1.023,0,1.414l7,7c0.195,0.195,0.451,0.293,0.707,0.293s0.512-0.098,0.707-0.293l7-7
		C60.098,24.339,60.098,23.707,59.707,23.316z"/>
</g>
<g>
</g>
<g>
</g>
<g>
</g>
<g>
</g>
<g>
</g>
<g>
</g>
<g>
</g>
<g>
</g>
<g>
</g>
<g>
</g>
<g>
</g>
<g>
</g>
<g>
</g>
<g>
</g>
<g>
</g>
</svg>
