<?xml version="1.0" encoding="iso-8859-1"?>
<!-- Generator: Adobe Illustrator 18.0.0, SVG Export Plug-In . SVG Version: 6.00 Build 0)  -->
<!DOCTYPE svg PUBLIC "-//W3C//DTD SVG 1.1//EN" "http://www.w3.org/Graphics/SVG/1.1/DTD/svg11.dtd">
<svg version="1.1" id="Capa_1" xmlns="http://www.w3.org/2000/svg" xmlns:xlink="http://www.w3.org/1999/xlink" x="0px" y="0px"
	 viewBox="0 0 58 58" style="enable-background:new 0 0 58 58;" xml:space="preserve">
<g>
	<path d="M33.923,50.618c-0.051-0.123-0.124-0.233-0.217-0.326l-5.999-5.999c-0.391-0.391-1.023-0.391-1.414,0s-0.391,1.023,0,1.414
		L30.586,50h-7.812C17.936,50,14,46.063,14,41.226V13.92c3.387-0.488,6-3.401,6-6.92c0-3.859-3.14-7-7-7S6,3.141,6,7
		c0,3.519,2.613,6.432,6,6.92v27.305C12,47.167,16.833,52,22.774,52h7.812l-4.293,4.293c-0.391,0.391-0.391,1.023,0,1.414
		C26.488,57.902,26.744,58,27,58s0.512-0.098,0.707-0.293l5.999-5.999c0.093-0.092,0.166-0.203,0.217-0.326
		C34.024,51.138,34.024,50.862,33.923,50.618z M8,7c0-2.757,2.243-5,5-5s5,2.243,5,5s-2.243,5-5,5S8,9.757,8,7z"/>
	<path d="M46,44.08V16.774C46,10.833,41.167,6,35.226,6h-7.812l4.293-4.293c0.391-0.391,0.391-1.023,0-1.414s-1.023-0.391-1.414,0
		l-5.999,5.999c-0.093,0.092-0.166,0.203-0.217,0.326c-0.101,0.244-0.101,0.52,0,0.764c0.051,0.123,0.124,0.233,0.217,0.326
		l5.999,5.999C30.488,13.902,30.744,14,31,14s0.512-0.098,0.707-0.293c0.391-0.391,0.391-1.023,0-1.414L27.414,8h7.812
		C40.064,8,44,11.937,44,16.774V44.08c-3.387,0.488-6,3.401-6,6.92c0,3.859,3.14,7,7,7c3.859,0,7-3.141,7-7
		C52,47.481,49.386,44.568,46,44.08z M45,56c-2.757,0-5-2.243-5-5s2.243-5,5-5s5,2.243,5,5S47.757,56,45,56z"/>
</g>
<g>
</g>
<g>
</g>
<g>
</g>
<g>
</g>
<g>
</g>
<g>
</g>
<g>
</g>
<g>
</g>
<g>
</g>
<g>
</g>
<g>
</g>
<g>
</g>
<g>
</g>
<g>
</g>
<g>
</g>
</svg>
