<?xml version="1.0" encoding="iso-8859-1"?>
<!-- Generator: Adobe Illustrator 18.0.0, SVG Export Plug-In . SVG Version: 6.00 Build 0)  -->
<!DOCTYPE svg PUBLIC "-//W3C//DTD SVG 1.1//EN" "http://www.w3.org/Graphics/SVG/1.1/DTD/svg11.dtd">
<svg version="1.1" id="Capa_1" xmlns="http://www.w3.org/2000/svg" xmlns:xlink="http://www.w3.org/1999/xlink" x="0px" y="0px"
	 viewBox="0 0 60 60" style="enable-background:new 0 0 60 60;" xml:space="preserve">
<path d="M59.707,22.293c-0.391-0.391-1.023-0.391-1.414,0l-5.408,5.408C51.728,16.094,41.906,7,30,7
	C17.46,7,7.239,17.088,7.011,29.575l-6.718,6.718c-0.391,0.391-0.391,1.023,0,1.414C0.488,37.902,0.744,38,1,38
	s0.512-0.098,0.707-0.293l5.408-5.408C8.272,43.906,18.094,53,30,53c12.54,0,22.761-10.088,22.989-22.575l6.718-6.718
	C60.098,23.316,60.098,22.684,59.707,22.293z M30,51c-10.701,0-19.54-8.05-20.823-18.409l5.116,5.116C14.488,37.902,14.744,38,15,38
	s0.512-0.098,0.707-0.293c0.391-0.391,0.391-1.023,0-1.414L9.02,29.606C9.233,18.21,18.553,9,30,9
	c10.701,0,19.54,8.05,20.823,18.409l-5.116-5.116c-0.391-0.391-1.023-0.391-1.414,0s-0.391,1.023,0,1.414l6.687,6.687
	C50.767,41.79,41.447,51,30,51z"/>
<g>
</g>
<g>
</g>
<g>
</g>
<g>
</g>
<g>
</g>
<g>
</g>
<g>
</g>
<g>
</g>
<g>
</g>
<g>
</g>
<g>
</g>
<g>
</g>
<g>
</g>
<g>
</g>
<g>
</g>
</svg>
