<?xml version="1.0" encoding="iso-8859-1"?>
<!-- Generator: Adobe Illustrator 18.0.0, SVG Export Plug-In . SVG Version: 6.00 Build 0)  -->
<!DOCTYPE svg PUBLIC "-//W3C//DTD SVG 1.1//EN" "http://www.w3.org/Graphics/SVG/1.1/DTD/svg11.dtd">
<svg version="1.1" id="Capa_1" xmlns="http://www.w3.org/2000/svg" xmlns:xlink="http://www.w3.org/1999/xlink" x="0px" y="0px"
	 viewBox="0 0 53 53" style="enable-background:new 0 0 53 53;" xml:space="preserve">
<g>
	<path d="M52.785,25.885c0.118-0.174,0.197-0.378,0.186-0.604c-0.037-0.698-0.104-1.397-0.202-2.078
		c-0.079-0.547-0.585-0.926-1.132-0.849c-0.547,0.079-0.927,0.585-0.849,1.132c0.09,0.622,0.151,1.261,0.185,1.9
		c0.011,0.207,0.098,0.386,0.215,0.54C51.078,26.086,51,26.269,51,26.477c0,11.579-9.421,21-21,21c-10.7,0-19.54-8.05-20.823-18.409
		l5.116,5.116c0.195,0.195,0.451,0.293,0.707,0.293s0.512-0.098,0.707-0.293c0.391-0.391,0.391-1.023,0-1.414l-6.689-6.689
		c0.01-0.505,0.023-1.013,0.068-1.51c0.05-0.55-0.355-1.036-0.906-1.086c-0.537-0.055-1.036,0.356-1.086,0.906
		c-0.049,0.545-0.064,1.099-0.074,1.652L0.293,32.77c-0.391,0.391-0.391,1.023,0,1.414C0.488,34.379,0.744,34.477,1,34.477
		s0.512-0.098,0.707-0.293l5.408-5.408C8.272,40.383,18.093,49.477,30,49.477c12.683,0,23-10.317,23-23
		C53,26.251,52.911,26.053,52.785,25.885z"/>
	<path d="M36.955,6.656c0.592,0.208,1.188,0.448,1.771,0.714c0.135,0.062,0.275,0.09,0.414,0.09c0.38,0,0.743-0.217,0.911-0.585
		c0.229-0.503,0.007-1.096-0.495-1.325c-0.639-0.291-1.291-0.554-1.938-0.78c-0.521-0.187-1.092,0.092-1.274,0.612
		C36.16,5.903,36.434,6.473,36.955,6.656z"/>
	<path d="M31.363,5.521c0.632,0.04,1.27,0.11,1.897,0.208c0.052,0.008,0.104,0.012,0.154,0.012c0.484,0,0.91-0.353,0.987-0.847
		c0.085-0.546-0.289-1.057-0.835-1.142c-0.687-0.106-1.385-0.184-2.077-0.228c-0.542-0.031-1.026,0.383-1.062,0.935
		C30.394,5.01,30.812,5.486,31.363,5.521z"/>
	<path d="M43.544,10.427c0.188,0.159,0.417,0.236,0.645,0.236c0.285,0,0.567-0.121,0.765-0.354c0.356-0.423,0.304-1.054-0.118-1.409
		c-0.532-0.449-1.089-0.878-1.655-1.274c-0.452-0.317-1.076-0.207-1.393,0.246c-0.316,0.452-0.207,1.076,0.246,1.393
		C42.55,9.625,43.059,10.017,43.544,10.427z"/>
	<path d="M47.369,14.669c0.193,0.284,0.508,0.437,0.827,0.437c0.193,0,0.39-0.057,0.563-0.174c0.456-0.311,0.574-0.933,0.263-1.39
		c-0.389-0.571-0.811-1.133-1.253-1.671c-0.352-0.427-0.98-0.487-1.408-0.137c-0.426,0.352-0.487,0.981-0.137,1.408
		C46.628,13.634,47.014,14.147,47.369,14.669z"/>
	<path d="M49.219,18.001c0.256,0.579,0.488,1.177,0.689,1.776c0.141,0.418,0.53,0.682,0.948,0.682c0.105,0,0.213-0.017,0.318-0.052
		c0.523-0.176,0.806-0.743,0.63-1.267c-0.222-0.658-0.476-1.313-0.756-1.948c-0.224-0.504-0.81-0.731-1.319-0.511
		C49.225,16.906,48.996,17.496,49.219,18.001z"/>
	<path d="M19.835,7.961c0.156,0,0.314-0.036,0.462-0.113c0.56-0.293,1.142-0.563,1.729-0.805c0.511-0.21,0.755-0.794,0.545-1.305
		c-0.209-0.512-0.797-0.758-1.305-0.545c-0.644,0.264-1.281,0.561-1.895,0.881c-0.489,0.256-0.679,0.86-0.424,1.35
		C19.126,7.766,19.475,7.961,19.835,7.961z"/>
	<path d="M10.668,15.92c0.162,0.099,0.342,0.146,0.519,0.146c0.338,0,0.667-0.171,0.855-0.48c0.33-0.543,0.688-1.075,1.064-1.583
		c0.328-0.444,0.235-1.07-0.208-1.399c-0.444-0.329-1.07-0.234-1.399,0.208c-0.412,0.557-0.805,1.141-1.166,1.735
		C10.046,15.018,10.196,15.633,10.668,15.92z"/>
	<path d="M25.461,5.946c0.068,0,0.137-0.007,0.206-0.021c0.618-0.129,1.252-0.232,1.884-0.307c0.549-0.064,0.941-0.561,0.877-1.109
		c-0.063-0.547-0.556-0.94-1.109-0.877c-0.691,0.081-1.386,0.194-2.062,0.336c-0.541,0.113-0.887,0.644-0.773,1.184
		C24.582,5.622,24.998,5.946,25.461,5.946z"/>
	<path d="M8.539,21.515c0.09,0.025,0.181,0.037,0.27,0.037c0.438,0,0.839-0.289,0.962-0.731c0.17-0.61,0.371-1.22,0.597-1.811
		c0.196-0.516-0.062-1.094-0.578-1.291c-0.513-0.196-1.094,0.063-1.291,0.578c-0.247,0.648-0.468,1.317-0.653,1.986
		C7.696,20.816,8.008,21.368,8.539,21.515z"/>
	<path d="M14.957,11.423c0.245,0,0.491-0.09,0.684-0.271c0.462-0.433,0.949-0.85,1.45-1.241c0.436-0.34,0.513-0.968,0.173-1.403
		c-0.34-0.437-0.968-0.514-1.403-0.173c-0.549,0.428-1.083,0.885-1.587,1.358c-0.403,0.378-0.424,1.011-0.046,1.413
		C14.425,11.317,14.69,11.423,14.957,11.423z"/>
</g>
<g>
</g>
<g>
</g>
<g>
</g>
<g>
</g>
<g>
</g>
<g>
</g>
<g>
</g>
<g>
</g>
<g>
</g>
<g>
</g>
<g>
</g>
<g>
</g>
<g>
</g>
<g>
</g>
<g>
</g>
</svg>
