<?xml version="1.0" encoding="iso-8859-1"?>
<!-- Generator: Adobe Illustrator 18.0.0, SVG Export Plug-In . SVG Version: 6.00 Build 0)  -->
<!DOCTYPE svg PUBLIC "-//W3C//DTD SVG 1.1//EN" "http://www.w3.org/Graphics/SVG/1.1/DTD/svg11.dtd">
<svg version="1.1" id="Capa_1" xmlns="http://www.w3.org/2000/svg" xmlns:xlink="http://www.w3.org/1999/xlink" x="0px" y="0px"
	 viewBox="0 0 53 53" style="enable-background:new 0 0 53 53;" xml:space="preserve">
<g>
	<path d="M52,25.5c-0.553,0-1,0.447-1,1c0,11.579-9.421,21-21,21c-10.7,0-19.54-8.05-20.823-18.409l5.116,5.116
		C14.488,34.402,14.744,34.5,15,34.5s0.512-0.098,0.707-0.293c0.391-0.391,0.391-1.023,0-1.414l-6.999-6.999
		c-0.092-0.093-0.203-0.166-0.326-0.217c-0.244-0.101-0.519-0.101-0.764,0c-0.123,0.051-0.234,0.125-0.326,0.217l-6.999,6.999
		c-0.391,0.391-0.391,1.023,0,1.414C0.488,34.402,0.744,34.5,1,34.5s0.512-0.098,0.707-0.293l5.408-5.408
		C8.272,40.406,18.093,49.5,30,49.5c12.683,0,23-10.317,23-23C53,25.947,52.553,25.5,52,25.5z"/>
	<path d="M49.434,18.525c0.158,0.387,0.531,0.62,0.925,0.62c0.127,0,0.256-0.024,0.38-0.075c0.511-0.21,0.755-0.794,0.545-1.305
		c-0.264-0.644-0.561-1.281-0.881-1.895c-0.257-0.49-0.861-0.679-1.35-0.424c-0.489,0.256-0.679,0.86-0.424,1.35
		C48.922,17.356,49.192,17.938,49.434,18.525z"/>
	<path d="M46.565,13.591c0.197,0.253,0.491,0.385,0.789,0.385c0.215,0,0.432-0.069,0.614-0.212c0.436-0.34,0.513-0.968,0.173-1.403
		c-0.428-0.549-0.885-1.083-1.358-1.587c-0.379-0.402-1.011-0.423-1.413-0.046c-0.403,0.378-0.424,1.011-0.046,1.413
		C45.757,12.603,46.174,13.09,46.565,13.591z"/>
	<path d="M50.553,22.167c0.129,0.618,0.232,1.252,0.307,1.884c0.06,0.509,0.491,0.884,0.992,0.884c0.038,0,0.078-0.002,0.117-0.007
		c0.549-0.064,0.941-0.561,0.877-1.109c-0.081-0.691-0.194-1.385-0.336-2.062c-0.113-0.542-0.644-0.886-1.184-0.773
		C50.785,21.097,50.439,21.627,50.553,22.167z"/>
	<path d="M35.656,6.271c0.61,0.17,1.22,0.371,1.811,0.597c0.117,0.045,0.237,0.065,0.356,0.065c0.402,0,0.782-0.245,0.935-0.644
		c0.196-0.516-0.062-1.094-0.578-1.291c-0.648-0.247-1.317-0.468-1.986-0.653c-0.531-0.15-1.084,0.162-1.231,0.694
		C34.813,5.571,35.125,6.123,35.656,6.271z"/>
	<path d="M30,5.5c0.637,0,1.278,0.029,1.906,0.086c0.03,0.003,0.061,0.004,0.091,0.004c0.512,0,0.948-0.391,0.995-0.91
		c0.05-0.55-0.355-1.036-0.906-1.086C31.398,3.531,30.697,3.5,30,3.5c-0.553,0-1,0.447-1,1S29.447,5.5,30,5.5z"/>
	<path d="M40.892,8.542c0.543,0.33,1.075,0.688,1.583,1.064c0.18,0.133,0.388,0.196,0.595,0.196c0.307,0,0.608-0.14,0.805-0.404
		c0.328-0.444,0.235-1.07-0.208-1.399c-0.557-0.412-1.141-0.805-1.735-1.166c-0.472-0.287-1.087-0.137-1.374,0.335
		S40.42,8.255,40.892,8.542z"/>
</g>
<g>
</g>
<g>
</g>
<g>
</g>
<g>
</g>
<g>
</g>
<g>
</g>
<g>
</g>
<g>
</g>
<g>
</g>
<g>
</g>
<g>
</g>
<g>
</g>
<g>
</g>
<g>
</g>
<g>
</g>
</svg>
