<?xml version="1.0" encoding="iso-8859-1"?>
<!-- Generator: Adobe Illustrator 18.0.0, SVG Export Plug-In . SVG Version: 6.00 Build 0)  -->
<!DOCTYPE svg PUBLIC "-//W3C//DTD SVG 1.1//EN" "http://www.w3.org/Graphics/SVG/1.1/DTD/svg11.dtd">
<svg version="1.1" id="Capa_1" xmlns="http://www.w3.org/2000/svg" xmlns:xlink="http://www.w3.org/1999/xlink" x="0px" y="0px"
	 viewBox="0 0 60 60" style="enable-background:new 0 0 60 60;" xml:space="preserve">
<path d="M59.707,36.793l-6.833-6.833C52.948,29.821,53,29.669,53,29.5c0-12.683-10.317-23-23-23
	c-11.907,0-21.728,9.094-22.885,20.701l-5.408-5.408c-0.391-0.391-1.023-0.391-1.414,0s-0.391,1.023,0,1.414l6.833,6.833
	C7.052,30.179,7,30.331,7,30.5c0,12.683,10.317,23,23,23c11.907,0,21.728-9.094,22.885-20.701l5.408,5.408
	C58.488,38.402,58.744,38.5,59,38.5s0.512-0.098,0.707-0.293C60.098,37.816,60.098,37.184,59.707,36.793z M30,51.5
	c-11.579,0-21-9.421-21-21c0-0.169-0.052-0.321-0.126-0.46l6.833-6.833c0.391-0.391,0.391-1.023,0-1.414s-1.023-0.391-1.414,0
	l-5.116,5.116C10.46,16.55,19.3,8.5,30,8.5c11.579,0,21,9.421,21,21c0,0.169,0.052,0.321,0.126,0.46l-6.833,6.833
	c-0.391,0.391-0.391,1.023,0,1.414C44.488,38.402,44.744,38.5,45,38.5s0.512-0.098,0.707-0.293l5.116-5.116
	C49.54,43.45,40.7,51.5,30,51.5z"/>
<g>
</g>
<g>
</g>
<g>
</g>
<g>
</g>
<g>
</g>
<g>
</g>
<g>
</g>
<g>
</g>
<g>
</g>
<g>
</g>
<g>
</g>
<g>
</g>
<g>
</g>
<g>
</g>
<g>
</g>
</svg>
