<?xml version="1.0" encoding="iso-8859-1"?>
<!-- Generator: Adobe Illustrator 18.0.0, SVG Export Plug-In . SVG Version: 6.00 Build 0)  -->
<!DOCTYPE svg PUBLIC "-//W3C//DTD SVG 1.1//EN" "http://www.w3.org/Graphics/SVG/1.1/DTD/svg11.dtd">
<svg version="1.1" id="Capa_1" xmlns="http://www.w3.org/2000/svg" xmlns:xlink="http://www.w3.org/1999/xlink" x="0px" y="0px"
	 viewBox="0 0 58 58" style="enable-background:new 0 0 58 58;" xml:space="preserve">
<g>
	<path d="M33.923,50.618c-0.051-0.123-0.125-0.234-0.217-0.327l-5.999-5.999c-0.391-0.391-1.023-0.391-1.414,0s-0.391,1.023,0,1.414
		L30.586,50h-7.812C17.937,50,14,46.063,14,41.226V13.92c3.386-0.488,6-3.401,6-6.92c0-3.859-3.141-7-7-7S6,3.141,6,7
		c0,3.519,2.614,6.432,6,6.92v27.305C12,47.167,16.833,52,22.774,52h7.812l-4.293,4.293c-0.391,0.391-0.391,1.023,0,1.414
		C26.488,57.902,26.744,58,27,58s0.512-0.098,0.707-0.293l5.999-5.999c0.093-0.092,0.166-0.203,0.217-0.326
		C34.024,51.138,34.024,50.862,33.923,50.618z M8,7c0-2.757,2.243-5,5-5s5,2.243,5,5s-2.243,5-5,5S8,9.757,8,7z"/>
	<path d="M46,44.08V43.5c0-0.553-0.447-1-1-1s-1,0.447-1,1v0.58c-3.386,0.488-6,3.401-6,6.92c0,3.859,3.141,7,7,7s7-3.141,7-7
		C52,47.481,49.386,44.568,46,44.08z M45,56c-2.757,0-5-2.243-5-5s2.243-5,5-5s5,2.243,5,5S47.757,56,45,56z"/>
	<path d="M24.077,7.382c0.051,0.123,0.124,0.234,0.217,0.326l5.999,5.999C30.488,13.902,30.744,14,31,14s0.512-0.098,0.707-0.293
		c0.391-0.391,0.391-1.023,0-1.414l-4.551-4.551C27.363,7.559,27.5,7.299,27.5,7s-0.137-0.559-0.344-0.742l4.551-4.551
		c0.391-0.391,0.391-1.023,0-1.414s-1.023-0.391-1.414,0l-5.999,5.999c-0.093,0.092-0.166,0.203-0.217,0.326
		C23.976,6.862,23.976,7.138,24.077,7.382z"/>
	<path d="M46,32.211c0-0.553-0.447-1-1-1s-1,0.447-1,1v1.882c0,0.553,0.447,1,1,1s1-0.447,1-1V32.211z"/>
	<path d="M45,36.855c-0.553,0-1,0.447-1,1v1.882c0,0.553,0.447,1,1,1s1-0.447,1-1v-1.882C46,37.303,45.553,36.855,45,36.855z"/>
	<path d="M46,19.981c0-0.553-0.447-1-1-1s-1,0.447-1,1v1.882c0,0.553,0.447,1,1,1s1-0.447,1-1V19.981z"/>
	<path d="M46,25.626c0-0.553-0.447-1-1-1s-1,0.447-1,1v2.822c0,0.553,0.447,1,1,1s1-0.447,1-1V25.626z"/>
	<path d="M43.73,14.607c0.138,0.544,0.224,1.104,0.256,1.668c0.03,0.532,0.471,0.943,0.997,0.943c0.02,0,0.038-0.001,0.058-0.002
		c0.552-0.031,0.973-0.503,0.941-1.055c-0.039-0.69-0.145-1.378-0.313-2.045c-0.136-0.535-0.681-0.858-1.215-0.725
		C43.92,13.528,43.596,14.072,43.73,14.607z"/>
	<path d="M29.273,7c0,0.553,0.447,1,1,1h1.882c0.553,0,1-0.447,1-1s-0.447-1-1-1h-1.882C29.721,6,29.273,6.447,29.273,7z"/>
	<path d="M42.295,11.575c0.196,0.267,0.499,0.407,0.807,0.407c0.206,0,0.413-0.063,0.592-0.194c0.445-0.328,0.54-0.954,0.213-1.398
		c-0.616-0.836-1.348-1.578-2.177-2.206c-0.442-0.334-1.068-0.247-1.4,0.193c-0.334,0.439-0.247,1.067,0.193,1.4
		C41.197,10.289,41.794,10.894,42.295,11.575z"/>
	<path d="M38.735,7.593c0.144-0.533-0.173-1.081-0.707-1.225c-0.664-0.179-1.351-0.294-2.04-0.342
		c-0.546-0.042-1.028,0.376-1.067,0.927s0.376,1.029,0.927,1.067c0.562,0.04,1.121,0.134,1.663,0.279
		c0.086,0.023,0.174,0.034,0.26,0.034C38.212,8.334,38.615,8.04,38.735,7.593z"/>
</g>
<g>
</g>
<g>
</g>
<g>
</g>
<g>
</g>
<g>
</g>
<g>
</g>
<g>
</g>
<g>
</g>
<g>
</g>
<g>
</g>
<g>
</g>
<g>
</g>
<g>
</g>
<g>
</g>
<g>
</g>
</svg>
