<?xml version="1.0" encoding="iso-8859-1"?>
<!-- Generator: Adobe Illustrator 18.0.0, SVG Export Plug-In . SVG Version: 6.00 Build 0)  -->
<!DOCTYPE svg PUBLIC "-//W3C//DTD SVG 1.1//EN" "http://www.w3.org/Graphics/SVG/1.1/DTD/svg11.dtd">
<svg version="1.1" id="Capa_1" xmlns="http://www.w3.org/2000/svg" xmlns:xlink="http://www.w3.org/1999/xlink" x="0px" y="0px"
	 viewBox="0 0 54 54" style="enable-background:new 0 0 54 54;" xml:space="preserve">
<path d="M46.773,8.641l2.934-2.934c0.391-0.391,0.391-1.023,0-1.414s-1.023-0.391-1.414,0l-2.934,2.934C40.537,2.747,34.085,0,27,0
	C12.112,0,0,12.112,0,27c0,7.085,2.747,13.537,7.227,18.359l-2.934,2.934c-0.391,0.391-0.391,1.023,0,1.414
	C4.488,49.902,4.744,50,5,50s0.512-0.098,0.707-0.293l2.934-2.934C13.463,51.253,19.915,54,27,54c14.888,0,27-12.112,27-27
	C54,19.915,51.253,13.463,46.773,8.641z M27,52c-6.534,0-12.487-2.522-16.946-6.64L21,34.414v11.729h2V31H7.857v2h11.729
	L8.64,43.946C4.522,39.487,2,33.534,2,27C2,13.215,13.215,2,27,2c6.534,0,12.487,2.522,16.946,6.64L33,19.586V7.857h-2V23h15.143v-2
	H34.414L45.36,10.054C49.478,14.513,52,20.466,52,27C52,40.785,40.785,52,27,52z"/>
<g>
</g>
<g>
</g>
<g>
</g>
<g>
</g>
<g>
</g>
<g>
</g>
<g>
</g>
<g>
</g>
<g>
</g>
<g>
</g>
<g>
</g>
<g>
</g>
<g>
</g>
<g>
</g>
<g>
</g>
</svg>
