<?xml version="1.0" encoding="iso-8859-1"?>
<!-- Generator: Adobe Illustrator 18.0.0, SVG Export Plug-In . SVG Version: 6.00 Build 0)  -->
<!DOCTYPE svg PUBLIC "-//W3C//DTD SVG 1.1//EN" "http://www.w3.org/Graphics/SVG/1.1/DTD/svg11.dtd">
<svg version="1.1" id="Capa_1" xmlns="http://www.w3.org/2000/svg" xmlns:xlink="http://www.w3.org/1999/xlink" x="0px" y="0px"
	 viewBox="0 0 54 54" style="enable-background:new 0 0 54 54;" xml:space="preserve">
<g>
	<path d="M19.586,28l-7.293,7.293c-0.391,0.391-0.391,1.023,0,1.414C12.488,36.902,12.744,37,13,37s0.512-0.098,0.707-0.293
		l8.999-8.999c0.093-0.093,0.166-0.203,0.217-0.326c0.101-0.244,0.101-0.519,0-0.764c-0.051-0.123-0.125-0.234-0.217-0.326
		l-8.999-8.999c-0.391-0.391-1.023-0.391-1.414,0s-0.391,1.023,0,1.414L19.586,26H11c-4.963,0-9-4.037-9-9s4.037-9,9-9h32
		c0.553,0,1-0.447,1-1s-0.447-1-1-1H11C4.935,6,0,10.935,0,17s4.935,11,11,11H19.586z"/>
	<path d="M44.426,26.103C44.296,26.041,44.154,26,44,26h-6.09c-0.478-2.833-2.942-5-5.91-5c-3.309,0-6,2.691-6,6s2.691,6,6,6
		c2.967,0,5.431-2.167,5.91-5H43c4.963,0,9,4.037,9,9s-4.037,9-9,9H11c-0.553,0-1,0.447-1,1s0.447,1,1,1h32c6.065,0,11-4.935,11-11
		C54,31.419,49.819,26.806,44.426,26.103z M32,31c-2.206,0-4-1.794-4-4s1.794-4,4-4s4,1.794,4,4S34.206,31,32,31z"/>
</g>
<g>
</g>
<g>
</g>
<g>
</g>
<g>
</g>
<g>
</g>
<g>
</g>
<g>
</g>
<g>
</g>
<g>
</g>
<g>
</g>
<g>
</g>
<g>
</g>
<g>
</g>
<g>
</g>
<g>
</g>
</svg>
