<?xml version="1.0" encoding="iso-8859-1"?>
<!-- Generator: Adobe Illustrator 18.0.0, SVG Export Plug-In . SVG Version: 6.00 Build 0)  -->
<!DOCTYPE svg PUBLIC "-//W3C//DTD SVG 1.1//EN" "http://www.w3.org/Graphics/SVG/1.1/DTD/svg11.dtd">
<svg version="1.1" id="Capa_1" xmlns="http://www.w3.org/2000/svg" xmlns:xlink="http://www.w3.org/1999/xlink" x="0px" y="0px"
	 viewBox="0 0 60 60" style="enable-background:new 0 0 60 60;" xml:space="preserve">
<g>
	<path d="M38.408,10c0-0.553-0.448-1-1-1h-2c-0.552,0-1,0.447-1,1s0.448,1,1,1h2C37.96,11,38.408,10.553,38.408,10z"/>
	<path d="M32.408,10c0-0.553-0.448-1-1-1h-2c-0.552,0-1,0.447-1,1s0.448,1,1,1h2C31.96,11,32.408,10.553,32.408,10z"/>
	<path d="M17.408,9c-0.552,0-1,0.447-1,1s0.448,1,1,1h2c0.552,0,1-0.447,1-1s-0.448-1-1-1H17.408z"/>
	<path d="M34,29h-2c-0.552,0-1,0.447-1,1s0.448,1,1,1h2c0.552,0,1-0.447,1-1S34.552,29,34,29z"/>
	<path d="M28,29h-2c-0.552,0-1,0.447-1,1s0.448,1,1,1h2c0.552,0,1-0.447,1-1S28.552,29,28,29z"/>
	<path d="M22.408,10c0,0.553,0.448,1,1,1h2c0.552,0,1-0.447,1-1s-0.448-1-1-1h-2C22.855,9,22.408,9.447,22.408,10z"/>
	<path d="M22,29h-2c-0.552,0-1,0.447-1,1s0.448,1,1,1h2c0.552,0,1-0.447,1-1S22.552,29,22,29z"/>
	<path d="M16,29h-2c-0.304,0-0.568,0.143-0.751,0.358c-0.212-0.185-0.492-0.289-0.792-0.249c-0.725,0.103-1.443,0.28-2.134,0.527
		c-0.52,0.186-0.791,0.758-0.605,1.277c0.146,0.409,0.531,0.664,0.942,0.664c0.112,0,0.225-0.019,0.336-0.059
		c0.564-0.201,1.151-0.346,1.742-0.43c0.25-0.035,0.458-0.168,0.611-0.345C13.523,30.898,13.747,31,14,31h2c0.552,0,1-0.447,1-1
		S16.552,29,16,29z"/>
	<path d="M41.408,11h2c0.552,0,1-0.447,1-1s-0.448-1-1-1h-2c-0.552,0-1,0.447-1,1S40.855,11,41.408,11z"/>
	<path d="M51.074,27.422c-0.495,0.34-1.024,0.631-1.574,0.865c-0.508,0.216-0.745,0.804-0.528,1.312
		c0.162,0.381,0.531,0.608,0.92,0.608c0.131,0,0.264-0.025,0.392-0.08c0.672-0.286,1.319-0.642,1.924-1.057
		c0.455-0.313,0.57-0.936,0.258-1.391C52.153,27.226,51.529,27.11,51.074,27.422z"/>
	<path d="M54.665,14.925c0.445-0.326,0.542-0.951,0.216-1.397c-0.432-0.59-0.924-1.14-1.463-1.634
		c-0.408-0.373-1.04-0.345-1.413,0.062c-0.373,0.407-0.346,1.04,0.062,1.413c0.442,0.405,0.847,0.856,1.201,1.341
		c0.195,0.268,0.499,0.409,0.808,0.409C54.28,15.118,54.486,15.056,54.665,14.925z"/>
	<path d="M56.711,17.495c-0.127-0.538-0.669-0.867-1.203-0.744c-0.537,0.127-0.87,0.665-0.744,1.203
		c0.137,0.579,0.215,1.178,0.231,1.778c0.016,0.543,0.461,0.972,0.999,0.972c0.01,0,0.02,0,0.029,0
		c0.553-0.017,0.987-0.477,0.972-1.028C56.974,18.939,56.878,18.206,56.711,17.495z"/>
	<path d="M49.34,11.578c0.411,0,0.796-0.255,0.941-0.664c0.187-0.52-0.085-1.092-0.605-1.277c-0.691-0.247-1.409-0.425-2.134-0.527
		c-0.543-0.074-1.053,0.303-1.13,0.85c-0.077,0.547,0.303,1.054,0.85,1.131c0.591,0.084,1.177,0.229,1.742,0.43
		C49.115,11.56,49.229,11.578,49.34,11.578z"/>
	<path d="M55.682,22.687c-0.512-0.201-1.095,0.054-1.296,0.567c-0.217,0.556-0.492,1.094-0.818,1.599
		c-0.299,0.465-0.165,1.083,0.299,1.383c0.168,0.107,0.355,0.159,0.541,0.159c0.328,0,0.65-0.161,0.842-0.458
		c0.397-0.617,0.733-1.274,1-1.954C56.451,23.468,56.197,22.888,55.682,22.687z"/>
	<path d="M46,29h-2c-0.552,0-1,0.447-1,1s0.448,1,1,1h2c0.552,0,1-0.447,1-1S46.552,29,46,29z"/>
	<path d="M37,30c0,0.553,0.448,1,1,1h2c0.552,0,1-0.447,1-1s-0.448-1-1-1h-2C37.447,29,37,29.447,37,30z"/>
	<path d="M5.61,43.253c-0.202-0.515-0.782-0.765-1.296-0.565C3.8,42.89,3.547,43.47,3.749,43.983c0.267,0.681,0.604,1.338,1,1.953
		c0.191,0.297,0.513,0.458,0.841,0.458c0.186,0,0.373-0.052,0.541-0.159c0.464-0.3,0.598-0.918,0.299-1.383
		C6.105,44.349,5.83,43.81,5.61,43.253z"/>
	<path d="M7.995,31.955c-0.373-0.406-1.005-0.436-1.413-0.062c-0.541,0.496-1.033,1.046-1.463,1.635
		c-0.326,0.445-0.229,1.071,0.217,1.397c0.178,0.13,0.385,0.192,0.589,0.192c0.309,0,0.612-0.142,0.808-0.41
		c0.353-0.482,0.757-0.934,1.201-1.34C8.34,32.995,8.368,32.362,7.995,31.955z"/>
	<path d="M28,49h-2c-0.552,0-1,0.447-1,1s0.448,1,1,1h2c0.552,0,1-0.447,1-1S28.552,49,28,49z"/>
	<path d="M34,49h-2c-0.552,0-1,0.447-1,1s0.448,1,1,1h2c0.552,0,1-0.447,1-1S34.552,49,34,49z"/>
	<path d="M4.004,40.704c0.539,0,0.983-0.429,0.999-0.971c0.018-0.6,0.096-1.198,0.232-1.781c0.126-0.537-0.208-1.075-0.746-1.201
		c-0.536-0.124-1.076,0.209-1.202,0.746c-0.167,0.712-0.262,1.444-0.284,2.178c-0.016,0.552,0.418,1.013,0.97,1.029
		C3.984,40.704,3.995,40.704,4.004,40.704z"/>
	<path d="M40,51c0.552,0,1-0.447,1-1s-0.448-1-1-1h-2c-0.552,0-1,0.447-1,1s0.448,1,1,1H40z"/>
	<path d="M10.5,48.287c-0.548-0.233-1.079-0.524-1.576-0.866c-0.455-0.312-1.078-0.194-1.391,0.26
		c-0.312,0.456-0.196,1.078,0.26,1.391c0.606,0.415,1.253,0.771,1.922,1.056c0.128,0.055,0.261,0.08,0.392,0.08
		c0.389,0,0.758-0.228,0.92-0.608C11.244,49.091,11.008,48.504,10.5,48.287z"/>
	<path d="M22,49h-2c-0.552,0-1,0.447-1,1s0.448,1,1,1h2c0.552,0,1-0.447,1-1S22.552,49,22,49z"/>
	<path d="M16,49h-2c-0.552,0-1,0.447-1,1s0.448,1,1,1h2c0.552,0,1-0.447,1-1S16.552,49,16,49z"/>
	<path d="M15.414,10l8.293-8.293c0.391-0.391,0.391-1.023,0-1.414s-1.023-0.391-1.414,0l-9,9c-0.391,0.391-0.391,1.023,0,1.414l9,9
		C22.488,19.902,22.744,20,23,20s0.512-0.098,0.707-0.293c0.391-0.391,0.391-1.023,0-1.414L15.414,10z"/>
	<path d="M46.922,49.618c-0.051-0.123-0.124-0.233-0.217-0.326l-8.999-8.999c-0.391-0.391-1.023-0.391-1.414,0s-0.391,1.023,0,1.414
		l7.362,7.362C43.274,49.21,43,49.57,43,50s0.275,0.789,0.655,0.93l-7.362,7.363c-0.391,0.391-0.391,1.023,0,1.414
		C36.488,59.902,36.744,60,37,60s0.512-0.098,0.707-0.293l8.999-8.999c0.093-0.093,0.166-0.203,0.217-0.326
		C47.023,50.138,47.024,49.862,46.922,49.618z"/>
</g>
<g>
</g>
<g>
</g>
<g>
</g>
<g>
</g>
<g>
</g>
<g>
</g>
<g>
</g>
<g>
</g>
<g>
</g>
<g>
</g>
<g>
</g>
<g>
</g>
<g>
</g>
<g>
</g>
<g>
</g>
</svg>
