<?xml version="1.0" encoding="iso-8859-1"?>
<!-- Generator: Adobe Illustrator 18.0.0, SVG Export Plug-In . SVG Version: 6.00 Build 0)  -->
<!DOCTYPE svg PUBLIC "-//W3C//DTD SVG 1.1//EN" "http://www.w3.org/Graphics/SVG/1.1/DTD/svg11.dtd">
<svg version="1.1" id="Capa_1" xmlns="http://www.w3.org/2000/svg" xmlns:xlink="http://www.w3.org/1999/xlink" x="0px" y="0px"
	 viewBox="0 0 54 54" style="enable-background:new 0 0 54 54;" xml:space="preserve">
<g>
	<path d="M54,12.5c0-6.065-4.935-11-11-11H11c-0.553,0-1,0.447-1,1s0.447,1,1,1h32c4.963,0,9,4.037,9,9s-4.037,9-9,9H11
		c-6.065,0-11,4.935-11,11s4.935,11,11,11h29.586l-7.293,7.293c-0.391,0.391-0.391,1.023,0,1.414C33.488,52.402,33.744,52.5,34,52.5
		s0.512-0.098,0.707-0.293l8.999-8.999c0.093-0.093,0.166-0.203,0.217-0.326c0.101-0.244,0.101-0.519,0-0.764
		c-0.051-0.123-0.125-0.234-0.217-0.326l-8.999-8.999c-0.391-0.391-1.023-0.391-1.414,0s-0.391,1.023,0,1.414l7.293,7.293H11
		c-4.963,0-9-4.037-9-9s4.037-9,9-9h32C49.065,23.5,54,18.565,54,12.5z"/>
	<path d="M41.698,6.556c-0.205-0.512-0.785-0.759-1.301-0.555c-0.723,0.29-1.39,0.697-1.98,1.209
		c-0.418,0.361-0.463,0.993-0.102,1.41c0.197,0.229,0.477,0.346,0.756,0.346c0.232,0,0.465-0.08,0.654-0.244
		c0.424-0.366,0.9-0.657,1.418-0.865C41.655,7.651,41.904,7.068,41.698,6.556z"/>
	<path d="M40.922,17.05c-0.507-0.231-0.969-0.545-1.373-0.931c-0.398-0.383-1.032-0.367-1.413,0.032
		c-0.382,0.399-0.367,1.032,0.032,1.413c0.565,0.541,1.213,0.979,1.922,1.304c0.135,0.062,0.276,0.091,0.415,0.091
		c0.38,0,0.742-0.217,0.91-0.584C41.645,17.872,41.424,17.279,40.922,17.05z"/>
	<path d="M44.409,7.701c0.535,0.156,1.036,0.4,1.49,0.725c0.176,0.126,0.379,0.187,0.58,0.187c0.313,0,0.619-0.146,0.814-0.419
		c0.321-0.449,0.217-1.073-0.232-1.395c-0.637-0.455-1.34-0.797-2.09-1.018c-0.53-0.155-1.086,0.149-1.241,0.679
		C43.575,6.99,43.879,7.545,44.409,7.701z"/>
	<path d="M37.299,10.382c-0.548-0.104-1.067,0.25-1.172,0.791C36.043,11.607,36,12.054,36,12.497
		c-0.001,0.332,0.022,0.668,0.069,0.998c0.072,0.498,0.5,0.857,0.989,0.857c0.047,0,0.095-0.003,0.144-0.01
		c0.547-0.079,0.926-0.586,0.848-1.133c-0.033-0.23-0.051-0.466-0.05-0.71c0-0.319,0.03-0.638,0.09-0.946
		C38.195,11.011,37.841,10.486,37.299,10.382z"/>
	<path d="M48.345,15.408c0.108,0.037,0.219,0.055,0.327,0.055c0.414,0,0.802-0.26,0.945-0.673C49.871,14.056,50,13.285,50,12.502
		c0.001-0.67-0.094-1.334-0.28-1.973c-0.154-0.53-0.709-0.832-1.241-0.679c-0.53,0.156-0.834,0.711-0.679,1.241
		c0.134,0.455,0.201,0.928,0.2,1.408c0,0.562-0.092,1.112-0.273,1.636C47.546,14.658,47.823,15.228,48.345,15.408z"/>
	<path d="M43.442,18.569c0.111,0.457,0.521,0.764,0.971,0.764c0.078,0,0.158-0.009,0.237-0.028c0.76-0.185,1.478-0.492,2.134-0.915
		c0.465-0.299,0.599-0.918,0.3-1.382c-0.299-0.463-0.918-0.597-1.382-0.3c-0.469,0.302-0.981,0.521-1.524,0.653
		C43.642,17.491,43.312,18.032,43.442,18.569z"/>
	<path d="M4,32.5c0,3.859,3.141,7,7,7s7-3.141,7-7s-3.141-7-7-7S4,28.641,4,32.5z M16,32.5c0,2.757-2.243,5-5,5s-5-2.243-5-5
		s2.243-5,5-5S16,29.743,16,32.5z"/>
</g>
<g>
</g>
<g>
</g>
<g>
</g>
<g>
</g>
<g>
</g>
<g>
</g>
<g>
</g>
<g>
</g>
<g>
</g>
<g>
</g>
<g>
</g>
<g>
</g>
<g>
</g>
<g>
</g>
<g>
</g>
</svg>
