<?xml version="1.0" encoding="iso-8859-1"?>
<!-- Generator: Adobe Illustrator 18.0.0, SVG Export Plug-In . SVG Version: 6.00 Build 0)  -->
<!DOCTYPE svg PUBLIC "-//W3C//DTD SVG 1.1//EN" "http://www.w3.org/Graphics/SVG/1.1/DTD/svg11.dtd">
<svg version="1.1" id="Capa_1" xmlns="http://www.w3.org/2000/svg" xmlns:xlink="http://www.w3.org/1999/xlink" x="0px" y="0px"
	 viewBox="0 0 54 54" style="enable-background:new 0 0 54 54;" xml:space="preserve">
<g>
	<path d="M11,23.5h32c6.065,0,11-4.935,11-11s-4.935-11-11-11H11c-0.553,0-1,0.447-1,1s0.447,1,1,1h32c4.963,0,9,4.037,9,9
		s-4.037,9-9,9H11c-6.065,0-11,4.935-11,11s4.935,11,11,11h29.586l-7.293,7.293c-0.391,0.391-0.391,1.023,0,1.414
		C33.488,52.402,33.744,52.5,34,52.5s0.512-0.098,0.707-0.293l8.999-8.999c0.093-0.093,0.166-0.203,0.217-0.326
		c0.101-0.244,0.101-0.519,0-0.764c-0.051-0.123-0.125-0.234-0.217-0.326l-8.999-8.999c-0.391-0.391-1.023-0.391-1.414,0
		s-0.391,1.023,0,1.414l7.293,7.293H11c-4.963,0-9-4.037-9-9S6.037,23.5,11,23.5z"/>
	<path d="M50,12.5c0-3.859-3.141-7-7-7s-7,3.141-7,7s3.141,7,7,7S50,16.359,50,12.5z M38,12.5c0-2.757,2.243-5,5-5s5,2.243,5,5
		s-2.243,5-5,5S38,15.257,38,12.5z"/>
</g>
<g>
</g>
<g>
</g>
<g>
</g>
<g>
</g>
<g>
</g>
<g>
</g>
<g>
</g>
<g>
</g>
<g>
</g>
<g>
</g>
<g>
</g>
<g>
</g>
<g>
</g>
<g>
</g>
<g>
</g>
</svg>
