<?xml version="1.0" encoding="iso-8859-1"?>
<!-- Generator: Adobe Illustrator 18.0.0, SVG Export Plug-In . SVG Version: 6.00 Build 0)  -->
<!DOCTYPE svg PUBLIC "-//W3C//DTD SVG 1.1//EN" "http://www.w3.org/Graphics/SVG/1.1/DTD/svg11.dtd">
<svg version="1.1" id="Capa_1" xmlns="http://www.w3.org/2000/svg" xmlns:xlink="http://www.w3.org/1999/xlink" x="0px" y="0px"
	 viewBox="0 0 53.997 53.997" style="enable-background:new 0 0 53.997 53.997;" xml:space="preserve">
<g>
	<path d="M42.997,5.998h-32c-0.553,0-1,0.447-1,1s0.447,1,1,1h32c4.963,0,9,4.037,9,9s-4.037,9-9,9H13.411l7.293-7.293
		c0.391-0.391,0.391-1.023,0-1.414s-1.023-0.391-1.414,0l-8.999,8.999c-0.019,0.019-0.028,0.045-0.045,0.065
		c-0.212-0.188-0.493-0.294-0.794-0.248c-0.725,0.103-1.442,0.28-2.134,0.527c-0.52,0.186-0.791,0.758-0.604,1.278
		c0.146,0.408,0.531,0.663,0.941,0.663c0.111,0,0.226-0.019,0.337-0.059c0.563-0.201,1.149-0.346,1.741-0.43
		c0.246-0.035,0.45-0.165,0.602-0.338l8.955,8.955c0.195,0.195,0.451,0.293,0.707,0.293s0.512-0.098,0.707-0.293
		c0.391-0.391,0.391-1.023,0-1.414l-7.293-7.293h29.586c6.065,0,11-4.935,11-11S49.062,5.998,42.997,5.998z"/>
	<path d="M7.497,45.285c-0.55-0.234-1.079-0.525-1.574-0.865c-0.453-0.312-1.078-0.197-1.391,0.258s-0.197,1.078,0.258,1.391
		c0.604,0.415,1.252,0.771,1.924,1.057c0.128,0.055,0.261,0.08,0.392,0.08c0.389,0,0.758-0.228,0.92-0.608
		C8.242,46.089,8.004,45.501,7.497,45.285z"/>
	<path d="M4.992,28.953c-0.373-0.406-1.005-0.435-1.413-0.062c-0.539,0.494-1.031,1.044-1.463,1.634
		c-0.326,0.446-0.229,1.071,0.216,1.397c0.179,0.131,0.385,0.193,0.59,0.193c0.309,0,0.612-0.142,0.808-0.409
		c0.354-0.484,0.759-0.936,1.201-1.341C5.337,29.993,5.365,29.361,4.992,28.953z"/>
	<path d="M1.001,37.702c0.538,0,0.983-0.429,0.999-0.972c0.017-0.601,0.095-1.199,0.231-1.778c0.126-0.538-0.207-1.076-0.744-1.203
		c-0.537-0.121-1.077,0.206-1.203,0.744C0.118,35.204,0.022,35.938,0,36.674c-0.016,0.552,0.419,1.012,0.972,1.028
		C0.982,37.702,0.992,37.702,1.001,37.702z"/>
	<path d="M12.997,45.998h-2c-0.553,0-1,0.447-1,1s0.447,1,1,1h2c0.553,0,1-0.447,1-1S13.549,45.998,12.997,45.998z"/>
	<path d="M2.61,40.252c-0.201-0.515-0.784-0.77-1.296-0.567c-0.515,0.201-0.769,0.781-0.567,1.296c0.267,0.68,0.603,1.337,1,1.954
		c0.191,0.297,0.514,0.458,0.842,0.458c0.186,0,0.373-0.052,0.541-0.159c0.464-0.3,0.598-0.918,0.299-1.383
		C3.102,41.346,2.827,40.808,2.61,40.252z"/>
	<path d="M36.997,45.998h-2c-0.553,0-1,0.447-1,1s0.447,1,1,1h2c0.553,0,1-0.447,1-1S37.549,45.998,36.997,45.998z"/>
	<path d="M30.997,45.998h-2c-0.553,0-1,0.447-1,1s0.447,1,1,1h2c0.553,0,1-0.447,1-1S31.549,45.998,30.997,45.998z"/>
	<path d="M18.997,45.998h-2c-0.553,0-1,0.447-1,1s0.447,1,1,1h2c0.553,0,1-0.447,1-1S19.549,45.998,18.997,45.998z"/>
	<path d="M42.997,45.998h-2c-0.553,0-1,0.447-1,1s0.447,1,1,1h2c0.553,0,1-0.447,1-1S43.549,45.998,42.997,45.998z"/>
	<path d="M24.997,45.998h-2c-0.553,0-1,0.447-1,1s0.447,1,1,1h2c0.553,0,1-0.447,1-1S25.549,45.998,24.997,45.998z"/>
</g>
<g>
</g>
<g>
</g>
<g>
</g>
<g>
</g>
<g>
</g>
<g>
</g>
<g>
</g>
<g>
</g>
<g>
</g>
<g>
</g>
<g>
</g>
<g>
</g>
<g>
</g>
<g>
</g>
<g>
</g>
</svg>
