<?xml version="1.0" encoding="iso-8859-1"?>
<!-- Generator: Adobe Illustrator 18.0.0, SVG Export Plug-In . SVG Version: 6.00 Build 0)  -->
<!DOCTYPE svg PUBLIC "-//W3C//DTD SVG 1.1//EN" "http://www.w3.org/Graphics/SVG/1.1/DTD/svg11.dtd">
<svg version="1.1" id="Capa_1" xmlns="http://www.w3.org/2000/svg" xmlns:xlink="http://www.w3.org/1999/xlink" x="0px" y="0px"
	 viewBox="0 0 60 60" style="enable-background:new 0 0 60 60;" xml:space="preserve">
<path d="M14,31h32c6.065,0,11-4.935,11-11S52.065,9,46,9H16.414l7.293-7.293c0.391-0.391,0.391-1.023,0-1.414s-1.023-0.391-1.414,0
	l-8.999,8.999c-0.093,0.093-0.166,0.203-0.217,0.326c-0.101,0.244-0.101,0.52,0,0.764c0.051,0.123,0.124,0.233,0.217,0.326
	l8.999,8.999C22.488,19.902,22.744,20,23,20s0.512-0.098,0.707-0.293c0.391-0.391,0.391-1.023,0-1.414L16.414,11H46
	c4.962,0,9,4.037,9,9s-4.038,9-9,9H14C7.935,29,3,33.935,3,40s4.935,11,11,11h29.586l-7.293,7.293c-0.391,0.391-0.391,1.023,0,1.414
	C36.488,59.902,36.744,60,37,60s0.512-0.098,0.707-0.293l8.999-8.999c0.093-0.093,0.166-0.203,0.217-0.326
	c0.101-0.244,0.101-0.52,0-0.764c-0.051-0.123-0.124-0.233-0.217-0.326l-8.999-8.999c-0.391-0.391-1.023-0.391-1.414,0
	s-0.391,1.023,0,1.414L43.586,49H14c-4.962,0-9-4.037-9-9S9.038,31,14,31z"/>
<g>
</g>
<g>
</g>
<g>
</g>
<g>
</g>
<g>
</g>
<g>
</g>
<g>
</g>
<g>
</g>
<g>
</g>
<g>
</g>
<g>
</g>
<g>
</g>
<g>
</g>
<g>
</g>
<g>
</g>
</svg>
