<?xml version="1.0" encoding="iso-8859-1"?>
<!-- Generator: Adobe Illustrator 18.0.0, SVG Export Plug-In . SVG Version: 6.00 Build 0)  -->
<!DOCTYPE svg PUBLIC "-//W3C//DTD SVG 1.1//EN" "http://www.w3.org/Graphics/SVG/1.1/DTD/svg11.dtd">
<svg version="1.1" id="Capa_1" xmlns="http://www.w3.org/2000/svg" xmlns:xlink="http://www.w3.org/1999/xlink" x="0px" y="0px"
	 viewBox="0 0 60 60" style="enable-background:new 0 0 60 60;" xml:space="preserve">
<g>
	<path d="M29.41,11h2c0.552,0,1-0.447,1-1s-0.448-1-1-1h-2c-0.552,0-1,0.447-1,1S28.858,11,29.41,11z"/>
	<path d="M25.002,30c0,0.553,0.448,1,1,1h2c0.552,0,1-0.447,1-1s-0.448-1-1-1h-2C25.45,29,25.002,29.447,25.002,30z"/>
	<path d="M17.41,9c-0.552,0-1,0.447-1,1s0.448,1,1,1h2c0.552,0,1-0.447,1-1s-0.448-1-1-1H17.41z"/>
	<path d="M22.41,10c0,0.553,0.448,1,1,1h2c0.552,0,1-0.447,1-1s-0.448-1-1-1h-2C22.858,9,22.41,9.447,22.41,10z"/>
	<path d="M31.002,30c0,0.553,0.448,1,1,1h2c0.552,0,1-0.447,1-1s-0.448-1-1-1h-2C31.45,29,31.002,29.447,31.002,30z"/>
	<path d="M37.002,30c0,0.553,0.448,1,1,1h2c0.552,0,1-0.447,1-1s-0.448-1-1-1h-2C37.45,29,37.002,29.447,37.002,30z"/>
	<path d="M35.41,11h2c0.552,0,1-0.447,1-1s-0.448-1-1-1h-2c-0.552,0-1,0.447-1,1S34.858,11,35.41,11z"/>
	<path d="M54.667,14.926c0.446-0.326,0.543-0.952,0.217-1.397c-0.43-0.589-0.923-1.139-1.463-1.635
		c-0.408-0.374-1.041-0.345-1.413,0.062c-0.373,0.407-0.346,1.04,0.062,1.413c0.444,0.406,0.848,0.857,1.201,1.34
		c0.196,0.269,0.5,0.41,0.808,0.41C54.282,15.118,54.489,15.056,54.667,14.926z"/>
	<path d="M51.078,27.421c-0.498,0.342-1.028,0.633-1.576,0.866c-0.508,0.217-0.744,0.804-0.528,1.312
		c0.162,0.381,0.532,0.608,0.92,0.608c0.131,0,0.264-0.025,0.392-0.08c0.669-0.285,1.316-0.641,1.922-1.056
		c0.456-0.313,0.572-0.935,0.26-1.391C52.157,27.226,51.535,27.109,51.078,27.421z"/>
	<path d="M41.41,11h2c0.552,0,1-0.447,1-1s-0.448-1-1-1h-2c-0.552,0-1,0.447-1,1S40.858,11,41.41,11z"/>
	<path d="M55.688,22.688c-0.516-0.201-1.095,0.051-1.296,0.565c-0.219,0.557-0.495,1.096-0.82,1.6
		c-0.299,0.465-0.166,1.083,0.299,1.383c0.167,0.107,0.355,0.159,0.541,0.159c0.329,0,0.65-0.161,0.841-0.458
		c0.397-0.615,0.733-1.272,1-1.953C56.455,23.47,56.202,22.89,55.688,22.688z"/>
	<path d="M46.002,29h-2c-0.552,0-1,0.447-1,1s0.448,1,1,1h2c0.552,0,1-0.447,1-1S46.554,29,46.002,29z"/>
	<path d="M20.002,29c-0.552,0-1,0.447-1,1s0.448,1,1,1h2c0.552,0,1-0.447,1-1s-0.448-1-1-1H20.002z"/>
	<path d="M49.343,11.578c0.411,0,0.796-0.255,0.942-0.664c0.186-0.52-0.085-1.092-0.605-1.277c-0.691-0.247-1.41-0.425-2.134-0.527
		c-0.544-0.074-1.053,0.303-1.13,0.85c-0.077,0.547,0.303,1.054,0.85,1.131c0.591,0.084,1.177,0.229,1.742,0.43
		C49.118,11.56,49.231,11.578,49.343,11.578z"/>
	<path d="M56.714,17.497c-0.126-0.538-0.666-0.872-1.202-0.746c-0.538,0.126-0.872,0.664-0.746,1.201
		c0.136,0.583,0.214,1.182,0.232,1.781c0.016,0.542,0.46,0.971,0.999,0.971c0.01,0,0.02,0,0.03,0
		c0.552-0.017,0.986-0.478,0.97-1.029C56.976,18.941,56.88,18.209,56.714,17.497z"/>
	<path d="M22.295,19.707C22.491,19.902,22.746,20,23.002,20s0.512-0.098,0.707-0.293c0.391-0.391,0.391-1.023,0-1.414L15.416,10
		l8.293-8.293c0.391-0.391,0.391-1.023,0-1.414s-1.023-0.391-1.414,0l-9,9c-0.391,0.391-0.391,1.023,0,1.414L22.295,19.707z"/>
	<path d="M46.925,49.618c-0.051-0.123-0.124-0.233-0.217-0.326l-8.999-8.999c-0.391-0.391-1.023-0.391-1.414,0s-0.391,1.023,0,1.414
		L43.588,49H14.002c-4.962,0-9-4.037-9-9s4.038-9,9-9h2c0.552,0,1-0.447,1-1s-0.448-1-1-1h-2c-6.065,0-11,4.935-11,11
		s4.935,11,11,11h29.586l-7.293,7.293c-0.391,0.391-0.391,1.023,0,1.414C36.491,59.902,36.746,60,37.002,60s0.512-0.098,0.707-0.293
		l8.999-8.999c0.093-0.093,0.166-0.203,0.217-0.326C47.026,50.138,47.026,49.862,46.925,49.618z"/>
</g>
<g>
</g>
<g>
</g>
<g>
</g>
<g>
</g>
<g>
</g>
<g>
</g>
<g>
</g>
<g>
</g>
<g>
</g>
<g>
</g>
<g>
</g>
<g>
</g>
<g>
</g>
<g>
</g>
<g>
</g>
</svg>
