<?xml version="1.0" encoding="iso-8859-1"?>
<!-- Generator: Adobe Illustrator 18.0.0, SVG Export Plug-In . SVG Version: 6.00 Build 0)  -->
<!DOCTYPE svg PUBLIC "-//W3C//DTD SVG 1.1//EN" "http://www.w3.org/Graphics/SVG/1.1/DTD/svg11.dtd">
<svg version="1.1" id="Capa_1" xmlns="http://www.w3.org/2000/svg" xmlns:xlink="http://www.w3.org/1999/xlink" x="0px" y="0px"
	 viewBox="0 0 60 60" style="enable-background:new 0 0 60 60;" xml:space="preserve">
<g>
	<path d="M51,25.998c0-0.553-0.448-1-1-1s-1,0.447-1,1v2c0,0.553,0.448,1,1,1s1-0.447,1-1V25.998z"/>
	<path d="M51,31.998c0-0.553-0.448-1-1-1s-1,0.447-1,1v2c0,0.553,0.448,1,1,1s1-0.447,1-1V31.998z"/>
	<path d="M51,37.998c0-0.553-0.448-1-1-1s-1,0.447-1,1v2c0,0.553,0.448,1,1,1s1-0.447,1-1V37.998z"/>
	<path d="M50,42.998c-0.552,0-1,0.447-1,1v2c0,0.553,0.448,1,1,1s1-0.447,1-1v-2C51,43.445,50.552,42.998,50,42.998z"/>
	<path d="M51,19.998c0-0.553-0.448-1-1-1s-1,0.447-1,1v2c0,0.553,0.448,1,1,1s1-0.447,1-1V19.998z"/>
	<path d="M49,13.998v2c0,0.553,0.448,1,1,1s1-0.447,1-1v-2c0-0.553-0.448-1-1-1S49,13.445,49,13.998z"/>
	<path d="M40.704,3.974c-0.016-0.553-0.484-0.981-1.028-0.972c-0.736,0.021-1.469,0.117-2.179,0.284
		c-0.538,0.127-0.871,0.665-0.744,1.203c0.108,0.46,0.519,0.771,0.972,0.771c0.076,0,0.153-0.009,0.23-0.026
		c0.58-0.137,1.178-0.215,1.779-0.231C40.286,4.985,40.72,4.525,40.704,3.974z"/>
	<path d="M48.287,10.498c0.162,0.381,0.531,0.608,0.92,0.608c0.13,0,0.263-0.025,0.391-0.08c0.508-0.216,0.745-0.804,0.528-1.312
		C49.84,9.04,49.484,8.393,49.068,7.79c-0.314-0.455-0.938-0.569-1.391-0.256c-0.455,0.313-0.569,0.937-0.255,1.391
		C47.761,9.418,48.052,9.947,48.287,10.498z"/>
	<path d="M33.527,5.117c-0.59,0.432-1.14,0.925-1.633,1.463c-0.373,0.407-0.346,1.04,0.062,1.413
		c0.192,0.176,0.434,0.263,0.675,0.263c0.271,0,0.541-0.109,0.738-0.324c0.405-0.442,0.856-0.847,1.34-1.201
		c0.446-0.326,0.542-0.952,0.216-1.397C34.599,4.888,33.974,4.789,33.527,5.117z"/>
	<path d="M30.914,9.715c-0.517-0.188-1.092,0.085-1.278,0.604c-0.247,0.688-0.424,1.406-0.527,2.134
		c-0.043,0.302,0.062,0.582,0.249,0.794C29.143,13.431,29,13.694,29,13.998v32c0,4.963-4.038,9-9,9s-9-4.037-9-9V16.412l7.293,7.293
		c0.195,0.195,0.451,0.293,0.707,0.293s0.512-0.098,0.707-0.293c0.391-0.391,0.391-1.023,0-1.414l-8.999-8.999
		c-0.092-0.093-0.203-0.166-0.326-0.217c-0.244-0.101-0.52-0.101-0.764,0c-0.123,0.051-0.233,0.124-0.326,0.217l-8.999,8.999
		c-0.391,0.391-0.391,1.023,0,1.414C0.488,23.9,0.744,23.998,1,23.998s0.512-0.098,0.707-0.293L9,16.412v29.586
		c0,6.065,4.935,11,11,11s11-4.935,11-11v-32c0-0.25-0.1-0.47-0.251-0.645c0.178-0.153,0.304-0.368,0.34-0.618
		c0.084-0.594,0.229-1.18,0.43-1.741C31.705,10.473,31.434,9.9,30.914,9.715z"/>
	<path d="M43.254,5.611c0.556,0.217,1.094,0.492,1.599,0.818c0.167,0.107,0.355,0.159,0.541,0.159c0.329,0,0.65-0.161,0.841-0.458
		c0.299-0.464,0.166-1.083-0.298-1.383c-0.617-0.397-1.275-0.734-1.955-1c-0.516-0.203-1.095,0.054-1.295,0.567
		C42.485,4.83,42.739,5.41,43.254,5.611z"/>
	<path d="M59.707,42.291c-0.391-0.391-1.023-0.391-1.414,0L50,50.584l-8.293-8.293c-0.391-0.391-1.023-0.391-1.414,0
		s-0.391,1.023,0,1.414l9,9c0.195,0.195,0.451,0.293,0.707,0.293s0.512-0.098,0.707-0.293l9-9
		C60.098,43.315,60.098,42.682,59.707,42.291z"/>
</g>
<g>
</g>
<g>
</g>
<g>
</g>
<g>
</g>
<g>
</g>
<g>
</g>
<g>
</g>
<g>
</g>
<g>
</g>
<g>
</g>
<g>
</g>
<g>
</g>
<g>
</g>
<g>
</g>
<g>
</g>
</svg>
