<?xml version="1.0" encoding="iso-8859-1"?>
<!-- Generator: Adobe Illustrator 18.0.0, SVG Export Plug-In . SVG Version: 6.00 Build 0)  -->
<!DOCTYPE svg PUBLIC "-//W3C//DTD SVG 1.1//EN" "http://www.w3.org/Graphics/SVG/1.1/DTD/svg11.dtd">
<svg version="1.1" id="Capa_1" xmlns="http://www.w3.org/2000/svg" xmlns:xlink="http://www.w3.org/1999/xlink" x="0px" y="0px"
	 viewBox="0 0 60 60" style="enable-background:new 0 0 60 60;" xml:space="preserve">
<path d="M59.707,36.293c-0.391-0.391-1.023-0.391-1.414,0L51,43.586V14c0-6.065-4.935-11-11-11S29,7.935,29,14v32
	c0,4.963-4.038,9-9,9s-9-4.037-9-9V16.414l7.293,7.293C18.488,23.902,18.744,24,19,24s0.512-0.098,0.707-0.293
	c0.391-0.391,0.391-1.023,0-1.414l-8.999-8.999c-0.092-0.093-0.203-0.166-0.326-0.217c-0.244-0.101-0.52-0.101-0.764,0
	c-0.123,0.051-0.233,0.124-0.326,0.217l-8.999,8.999c-0.391,0.391-0.391,1.023,0,1.414C0.488,23.902,0.744,24,1,24
	s0.512-0.098,0.707-0.293L9,16.414V46c0,6.065,4.935,11,11,11s11-4.935,11-11V14c0-4.963,4.038-9,9-9s9,4.037,9,9v29.586
	l-7.293-7.293c-0.391-0.391-1.023-0.391-1.414,0s-0.391,1.023,0,1.414l8.999,8.999c0.092,0.093,0.203,0.166,0.326,0.217
	C49.74,46.973,49.87,47,50,47s0.26-0.027,0.382-0.077c0.123-0.051,0.233-0.124,0.326-0.217l8.999-8.999
	C60.098,37.316,60.098,36.684,59.707,36.293z"/>
<g>
</g>
<g>
</g>
<g>
</g>
<g>
</g>
<g>
</g>
<g>
</g>
<g>
</g>
<g>
</g>
<g>
</g>
<g>
</g>
<g>
</g>
<g>
</g>
<g>
</g>
<g>
</g>
<g>
</g>
</svg>
