<?xml version="1.0" encoding="iso-8859-1"?>
<!-- Generator: Adobe Illustrator 18.0.0, SVG Export Plug-In . SVG Version: 6.00 Build 0)  -->
<!DOCTYPE svg PUBLIC "-//W3C//DTD SVG 1.1//EN" "http://www.w3.org/Graphics/SVG/1.1/DTD/svg11.dtd">
<svg version="1.1" id="Capa_1" xmlns="http://www.w3.org/2000/svg" xmlns:xlink="http://www.w3.org/1999/xlink" x="0px" y="0px"
	 viewBox="0 0 53.997 53.997" style="enable-background:new 0 0 53.997 53.997;" xml:space="preserve">
<g>
	<path d="M24.923,27.38c0.101-0.244,0.101-0.519,0-0.764c-0.051-0.123-0.125-0.234-0.217-0.326l-8.999-8.999
		c-0.391-0.391-1.023-0.391-1.414,0s-0.391,1.023,0,1.414l7.293,7.293H11c-4.963,0-9-4.037-9-9s4.037-9,9-9h32c0.553,0,1-0.447,1-1
		s-0.447-1-1-1H11c-6.065,0-11,4.935-11,11s4.935,11,11,11h10.586l-7.293,7.293c-0.391,0.391-0.391,1.023,0,1.414
		c0.195,0.195,0.451,0.293,0.707,0.293s0.512-0.098,0.707-0.293l8.999-8.999C24.799,27.614,24.872,27.503,24.923,27.38z"/>
	<path d="M25,45.998h-2c-0.553,0-1,0.447-1,1s0.447,1,1,1h2c0.553,0,1-0.447,1-1S25.553,45.998,25,45.998z"/>
	<path d="M31,45.998h-2c-0.553,0-1,0.447-1,1s0.447,1,1,1h2c0.553,0,1-0.447,1-1S31.553,45.998,31,45.998z"/>
	<path d="M37,45.998h-2c-0.553,0-1,0.447-1,1s0.447,1,1,1h2c0.553,0,1-0.447,1-1S37.553,45.998,37,45.998z"/>
	<path d="M19,45.998h-2c-0.553,0-1,0.447-1,1s0.447,1,1,1h2c0.553,0,1-0.447,1-1S19.553,45.998,19,45.998z"/>
	<path d="M13,45.998h-2c-0.553,0-1,0.447-1,1s0.447,1,1,1h2c0.553,0,1-0.447,1-1S13.553,45.998,13,45.998z"/>
	<path d="M53.712,34.493c-0.127-0.538-0.67-0.865-1.203-0.744c-0.537,0.127-0.87,0.665-0.744,1.203
		c0.137,0.579,0.215,1.178,0.231,1.778c0.016,0.543,0.461,0.972,0.999,0.972c0.01,0,0.02,0,0.029,0
		c0.553-0.017,0.987-0.477,0.972-1.028C53.975,35.938,53.879,35.204,53.712,34.493z"/>
	<path d="M48.074,44.42c-0.495,0.34-1.024,0.631-1.574,0.865c-0.508,0.216-0.745,0.804-0.528,1.312
		c0.162,0.381,0.531,0.608,0.92,0.608c0.131,0,0.264-0.025,0.392-0.08c0.672-0.286,1.319-0.642,1.924-1.057
		c0.455-0.313,0.57-0.936,0.258-1.391C49.153,44.223,48.529,44.109,48.074,44.42z"/>
	<path d="M52.683,39.685c-0.512-0.201-1.095,0.054-1.296,0.567c-0.217,0.556-0.492,1.094-0.818,1.599
		c-0.299,0.465-0.165,1.083,0.299,1.383c0.168,0.107,0.355,0.159,0.541,0.159c0.328,0,0.65-0.161,0.842-0.458
		c0.397-0.617,0.733-1.274,1-1.954C53.451,40.466,53.197,39.886,52.683,39.685z"/>
	<path d="M46.342,28.576c0.41,0,0.796-0.255,0.941-0.663c0.187-0.521-0.085-1.093-0.604-1.278c-0.691-0.247-1.409-0.425-2.134-0.527
		c-0.546-0.074-1.053,0.303-1.131,0.85c-0.077,0.547,0.303,1.054,0.85,1.131c0.592,0.084,1.178,0.229,1.741,0.43
		C46.116,28.558,46.23,28.576,46.342,28.576z"/>
	<path d="M51.665,31.923c0.445-0.326,0.542-0.951,0.216-1.397c-0.432-0.59-0.924-1.14-1.463-1.634
		c-0.408-0.373-1.04-0.345-1.413,0.062c-0.373,0.407-0.346,1.04,0.062,1.413c0.442,0.405,0.847,0.856,1.201,1.341
		c0.195,0.268,0.499,0.409,0.808,0.409C51.28,32.116,51.486,32.054,51.665,31.923z"/>
	<path d="M43,45.998h-2c-0.553,0-1,0.447-1,1s0.447,1,1,1h2c0.553,0,1-0.447,1-1S43.553,45.998,43,45.998z"/>
	<path d="M35,26.998c0-0.553-0.447-1-1-1h-2c-0.553,0-1,0.447-1,1s0.447,1,1,1h2C34.553,27.998,35,27.551,35,26.998z"/>
	<path d="M41,26.998c0-0.553-0.447-1-1-1h-2c-0.553,0-1,0.447-1,1s0.447,1,1,1h2C40.553,27.998,41,27.551,41,26.998z"/>
	<path d="M29,32.998v-12c0-0.553-0.447-1-1-1s-1,0.447-1,1v12c0,0.553,0.447,1,1,1S29,33.551,29,32.998z"/>
</g>
<g>
</g>
<g>
</g>
<g>
</g>
<g>
</g>
<g>
</g>
<g>
</g>
<g>
</g>
<g>
</g>
<g>
</g>
<g>
</g>
<g>
</g>
<g>
</g>
<g>
</g>
<g>
</g>
<g>
</g>
</svg>
