<?xml version="1.0" encoding="iso-8859-1"?>
<!-- Generator: Adobe Illustrator 18.0.0, SVG Export Plug-In . SVG Version: 6.00 Build 0)  -->
<!DOCTYPE svg PUBLIC "-//W3C//DTD SVG 1.1//EN" "http://www.w3.org/Graphics/SVG/1.1/DTD/svg11.dtd">
<svg version="1.1" id="Capa_1" xmlns="http://www.w3.org/2000/svg" xmlns:xlink="http://www.w3.org/1999/xlink" x="0px" y="0px"
	 viewBox="0 0 59 59" style="enable-background:new 0 0 59 59;" xml:space="preserve">
<path d="M59,7.5c0-3.859-3.141-7-7-7s-7,3.141-7,7c0,3.519,2.614,6.432,6,6.92V28.5H35.92c-0.488-3.386-3.401-6-6.92-6
	s-6.432,2.614-6.92,6H6v16.08c-3.386,0.488-6,3.401-6,6.92c0,3.859,3.141,7,7,7s7-3.141,7-7c0-3.519-2.614-6.432-6-6.92V30.5h14.08
	c0.488,3.386,3.401,6,6.92,6s6.432-2.614,6.92-6H53V14.42C56.386,13.932,59,11.019,59,7.5z M12,51.5c0,2.757-2.243,5-5,5
	s-5-2.243-5-5s2.243-5,5-5S12,48.743,12,51.5z M29,34.5c-2.757,0-5-2.243-5-5s2.243-5,5-5s5,2.243,5,5S31.757,34.5,29,34.5z
	 M52,12.5c-2.757,0-5-2.243-5-5s2.243-5,5-5s5,2.243,5,5S54.757,12.5,52,12.5z"/>
<g>
</g>
<g>
</g>
<g>
</g>
<g>
</g>
<g>
</g>
<g>
</g>
<g>
</g>
<g>
</g>
<g>
</g>
<g>
</g>
<g>
</g>
<g>
</g>
<g>
</g>
<g>
</g>
<g>
</g>
</svg>
