<?xml version="1.0" encoding="iso-8859-1"?>
<!-- Generator: Adobe Illustrator 18.0.0, SVG Export Plug-In . SVG Version: 6.00 Build 0)  -->
<!DOCTYPE svg PUBLIC "-//W3C//DTD SVG 1.1//EN" "http://www.w3.org/Graphics/SVG/1.1/DTD/svg11.dtd">
<svg version="1.1" id="Capa_1" xmlns="http://www.w3.org/2000/svg" xmlns:xlink="http://www.w3.org/1999/xlink" x="0px" y="0px"
	 viewBox="0 0 47 47" style="enable-background:new 0 0 47 47;" xml:space="preserve">
<path d="M46.707,45.293L3.414,2H28c0.553,0,1-0.448,1-1s-0.447-1-1-1H1C0.87,0,0.74,0.027,0.618,0.077
	C0.373,0.178,0.178,0.373,0.077,0.618C0.027,0.74,0,0.87,0,1v27c0,0.552,0.447,1,1,1s1-0.448,1-1V3.414l43.293,43.293
	C45.488,46.902,45.744,47,46,47s0.512-0.098,0.707-0.293C47.098,46.316,47.098,45.684,46.707,45.293z"/>
<g>
</g>
<g>
</g>
<g>
</g>
<g>
</g>
<g>
</g>
<g>
</g>
<g>
</g>
<g>
</g>
<g>
</g>
<g>
</g>
<g>
</g>
<g>
</g>
<g>
</g>
<g>
</g>
<g>
</g>
</svg>
