<?xml version="1.0" encoding="iso-8859-1"?>
<!-- Generator: Adobe Illustrator 18.0.0, SVG Export Plug-In . SVG Version: 6.00 Build 0)  -->
<!DOCTYPE svg PUBLIC "-//W3C//DTD SVG 1.1//EN" "http://www.w3.org/Graphics/SVG/1.1/DTD/svg11.dtd">
<svg version="1.1" id="Capa_1" xmlns="http://www.w3.org/2000/svg" xmlns:xlink="http://www.w3.org/1999/xlink" x="0px" y="0px"
	 viewBox="0 0 47 47" style="enable-background:new 0 0 47 47;" xml:space="preserve">
<path d="M46.923,0.618c-0.101-0.245-0.296-0.44-0.541-0.541C46.26,0.027,46.13,0,46,0H19c-0.553,0-1,0.448-1,1s0.447,1,1,1h24.586
	L0.293,45.293c-0.391,0.391-0.391,1.023,0,1.414C0.488,46.902,0.744,47,1,47s0.512-0.098,0.707-0.293L45,3.414V28
	c0,0.552,0.447,1,1,1s1-0.448,1-1V1C47,0.87,46.974,0.74,46.923,0.618z"/>
<g>
</g>
<g>
</g>
<g>
</g>
<g>
</g>
<g>
</g>
<g>
</g>
<g>
</g>
<g>
</g>
<g>
</g>
<g>
</g>
<g>
</g>
<g>
</g>
<g>
</g>
<g>
</g>
<g>
</g>
</svg>
