<?xml version="1.0" encoding="iso-8859-1"?>
<!-- Generator: Adobe Illustrator 18.0.0, SVG Export Plug-In . SVG Version: 6.00 Build 0)  -->
<!DOCTYPE svg PUBLIC "-//W3C//DTD SVG 1.1//EN" "http://www.w3.org/Graphics/SVG/1.1/DTD/svg11.dtd">
<svg version="1.1" id="Capa_1" xmlns="http://www.w3.org/2000/svg" xmlns:xlink="http://www.w3.org/1999/xlink" x="0px" y="0px"
	 viewBox="0 0 54 54" style="enable-background:new 0 0 54 54;" xml:space="preserve">
<g>
	<path d="M49.217,0H4.783C2.146,0,0,2.146,0,4.783v44.435C0,51.854,2.146,54,4.783,54h44.435C51.854,54,54,51.854,54,49.217V4.782
		C54,2.146,51.854,0,49.217,0z M52,49.217C52,50.751,50.751,52,49.217,52H4.783C3.249,52,2,50.752,2,49.218V4.783
		C2,3.249,3.249,2,4.783,2h44.435C50.751,2,52,3.248,52,4.782V49.217z"/>
	<path d="M39.175,16h-24.35c-0.712,0-1.351,0.368-1.707,0.985c-0.356,0.617-0.356,1.354,0,1.971l12.175,21.088h0
		c0.356,0.617,0.994,0.985,1.707,0.985s1.351-0.368,1.707-0.985l12.174-21.088c0.356-0.616,0.356-1.354,0-1.971
		C40.525,16.368,39.887,16,39.175,16z M27.026,39.045l-0.867,0.499L27.026,39.045L14.825,18l24.324-0.044L27.026,39.045z"/>
</g>
<g>
</g>
<g>
</g>
<g>
</g>
<g>
</g>
<g>
</g>
<g>
</g>
<g>
</g>
<g>
</g>
<g>
</g>
<g>
</g>
<g>
</g>
<g>
</g>
<g>
</g>
<g>
</g>
<g>
</g>
</svg>
