<?xml version="1.0" encoding="iso-8859-1"?>
<!-- Generator: Adobe Illustrator 18.0.0, SVG Export Plug-In . SVG Version: 6.00 Build 0)  -->
<!DOCTYPE svg PUBLIC "-//W3C//DTD SVG 1.1//EN" "http://www.w3.org/Graphics/SVG/1.1/DTD/svg11.dtd">
<svg version="1.1" id="Capa_1" xmlns="http://www.w3.org/2000/svg" xmlns:xlink="http://www.w3.org/1999/xlink" x="0px" y="0px"
	 viewBox="0 0 55 55" style="enable-background:new 0 0 55 55;" xml:space="preserve">
<path d="M55,35.454c0-0.553-0.447-1-1-1s-1,0.447-1,1v16.132L19.448,18.034C21.039,16.125,22,13.673,22,11c0-6.065-4.935-11-11-11
	S0,4.935,0,11s4.935,11,11,11c2.673,0,5.125-0.96,7.034-2.552L51.586,53H35.454c-0.553,0-1,0.447-1,1s0.447,1,1,1H54
	c0.13,0,0.26-0.026,0.382-0.077c0.245-0.101,0.44-0.296,0.541-0.541C54.974,54.26,55,54.13,55,54V35.454z M2,11c0-4.963,4.037-9,9-9
	s9,4.037,9,9s-4.037,9-9,9S2,15.963,2,11z"/>
<g>
</g>
<g>
</g>
<g>
</g>
<g>
</g>
<g>
</g>
<g>
</g>
<g>
</g>
<g>
</g>
<g>
</g>
<g>
</g>
<g>
</g>
<g>
</g>
<g>
</g>
<g>
</g>
<g>
</g>
</svg>
