<?xml version="1.0" encoding="iso-8859-1"?>
<!-- Generator: Adobe Illustrator 18.0.0, SVG Export Plug-In . SVG Version: 6.00 Build 0)  -->
<!DOCTYPE svg PUBLIC "-//W3C//DTD SVG 1.1//EN" "http://www.w3.org/Graphics/SVG/1.1/DTD/svg11.dtd">
<svg version="1.1" id="Capa_1" xmlns="http://www.w3.org/2000/svg" xmlns:xlink="http://www.w3.org/1999/xlink" x="0px" y="0px"
	 viewBox="0 0 57.805 57.805" style="enable-background:new 0 0 57.805 57.805;" xml:space="preserve">
<path d="M54.589,21.125c-4.289-4.289-11.268-4.289-15.557,0c-1.891,1.891-2.945,4.304-3.169,6.778H3.413L14.82,16.496
	c0.391-0.391,0.391-1.023,0-1.414s-1.023-0.391-1.414,0L0.293,28.195c-0.093,0.092-0.166,0.203-0.217,0.326
	c-0.101,0.244-0.101,0.52,0,0.764c0.051,0.123,0.124,0.234,0.217,0.326l13.113,13.112c0.195,0.195,0.451,0.293,0.707,0.293
	s0.512-0.098,0.707-0.293c0.391-0.391,0.391-1.023,0-1.414L3.413,29.903h32.45c0.224,2.474,1.279,4.887,3.169,6.777
	c2.145,2.145,4.961,3.217,7.778,3.217s5.634-1.072,7.778-3.217C58.878,32.391,58.878,25.414,54.589,21.125z M53.175,35.266
	c-3.51,3.51-9.219,3.51-12.729,0c-3.509-3.509-3.509-9.219,0-12.728c1.755-1.755,4.06-2.632,6.364-2.632s4.609,0.877,6.364,2.632
	C56.683,26.048,56.683,31.758,53.175,35.266z"/>
<g>
</g>
<g>
</g>
<g>
</g>
<g>
</g>
<g>
</g>
<g>
</g>
<g>
</g>
<g>
</g>
<g>
</g>
<g>
</g>
<g>
</g>
<g>
</g>
<g>
</g>
<g>
</g>
<g>
</g>
</svg>
