<?xml version="1.0" encoding="iso-8859-1"?>
<!-- Generator: Adobe Illustrator 18.0.0, SVG Export Plug-In . SVG Version: 6.00 Build 0)  -->
<!DOCTYPE svg PUBLIC "-//W3C//DTD SVG 1.1//EN" "http://www.w3.org/Graphics/SVG/1.1/DTD/svg11.dtd">
<svg version="1.1" id="Capa_1" xmlns="http://www.w3.org/2000/svg" xmlns:xlink="http://www.w3.org/1999/xlink" x="0px" y="0px"
	 viewBox="0 0 55 55" style="enable-background:new 0 0 55 55;" xml:space="preserve">
<path d="M54.923,0.618c-0.101-0.245-0.296-0.44-0.541-0.541C54.26,0.026,54.13,0,54,0H35.455c-0.552,0-1,0.447-1,1s0.448,1,1,1
	h16.131L18.034,35.552C16.125,33.96,13.673,33,11,33C4.935,33,0,37.935,0,44s4.935,11,11,11s11-4.935,11-11
	c0-2.674-0.961-5.126-2.552-7.034L53,3.414v16.132c0,0.553,0.447,1,1,1s1-0.447,1-1V1C55,0.87,54.974,0.74,54.923,0.618z M11,53
	c-4.962,0-9-4.037-9-9s4.038-9,9-9s9,4.037,9,9S15.962,53,11,53z"/>
<g>
</g>
<g>
</g>
<g>
</g>
<g>
</g>
<g>
</g>
<g>
</g>
<g>
</g>
<g>
</g>
<g>
</g>
<g>
</g>
<g>
</g>
<g>
</g>
<g>
</g>
<g>
</g>
<g>
</g>
</svg>
