<?xml version="1.0" encoding="iso-8859-1"?>
<!-- Generator: Adobe Illustrator 18.0.0, SVG Export Plug-In . SVG Version: 6.00 Build 0)  -->
<!DOCTYPE svg PUBLIC "-//W3C//DTD SVG 1.1//EN" "http://www.w3.org/Graphics/SVG/1.1/DTD/svg11.dtd">
<svg version="1.1" id="Capa_1" xmlns="http://www.w3.org/2000/svg" xmlns:xlink="http://www.w3.org/1999/xlink" x="0px" y="0px"
	 viewBox="0 0 59 59" style="enable-background:new 0 0 59 59;" xml:space="preserve">
<path d="M35,17.386v11H3.429l11.388-11.29c0.393-0.389,0.395-1.021,0.006-1.414s-1.021-0.395-1.414-0.006l-13.113,13
	c0,0,0,0.001-0.001,0.001c-0.093,0.092-0.167,0.202-0.218,0.324C0.027,29.124,0.001,29.254,0,29.384c0,0.001,0,0.001,0,0.001
	c0,0.027,0.013,0.05,0.015,0.076c0.008,0.103,0.021,0.207,0.061,0.304c0.045,0.109,0.113,0.205,0.191,0.291
	c0.009,0.01,0.012,0.024,0.022,0.034l0.002,0.002c0.001,0.001,0.002,0.002,0.002,0.002l13.109,13.223
	c0.195,0.197,0.452,0.296,0.71,0.296c0.255,0,0.509-0.097,0.704-0.29c0.393-0.389,0.395-1.021,0.006-1.414L3.399,30.386H35v11h24
	v-24H35z M57,39.386H37v-20h20V39.386z"/>
<g>
</g>
<g>
</g>
<g>
</g>
<g>
</g>
<g>
</g>
<g>
</g>
<g>
</g>
<g>
</g>
<g>
</g>
<g>
</g>
<g>
</g>
<g>
</g>
<g>
</g>
<g>
</g>
<g>
</g>
</svg>
