<?xml version="1.0" encoding="iso-8859-1"?>
<!-- Generator: Adobe Illustrator 18.0.0, SVG Export Plug-In . SVG Version: 6.00 Build 0)  -->
<!DOCTYPE svg PUBLIC "-//W3C//DTD SVG 1.1//EN" "http://www.w3.org/Graphics/SVG/1.1/DTD/svg11.dtd">
<svg version="1.1" id="Capa_1" xmlns="http://www.w3.org/2000/svg" xmlns:xlink="http://www.w3.org/1999/xlink" x="0px" y="0px"
	 viewBox="0 0 59 59" style="enable-background:new 0 0 59 59;" xml:space="preserve">
<path d="M59,29.616c0-0.001,0-0.001,0-0.002c0-0.027-0.013-0.05-0.015-0.077c-0.008-0.103-0.021-0.206-0.061-0.303
	c-0.045-0.11-0.113-0.206-0.192-0.292c-0.009-0.01-0.012-0.023-0.022-0.033l-0.002-0.002c-0.001-0.001-0.002-0.002-0.002-0.002
	L45.597,15.682c-0.389-0.393-1.021-0.395-1.414-0.006c-0.393,0.389-0.395,1.021-0.006,1.414l11.424,11.523H24v-11H0v24h24v-11
	h31.571l-11.388,11.29c-0.393,0.389-0.395,1.021-0.006,1.414c0.195,0.197,0.452,0.296,0.71,0.296c0.255,0,0.509-0.097,0.704-0.29
	l13.113-13c0,0,0-0.001,0.001-0.001c0.093-0.092,0.167-0.202,0.218-0.325C58.973,29.876,58.999,29.746,59,29.616z M22,39.614H2v-20
	h20V39.614z"/>
<g>
</g>
<g>
</g>
<g>
</g>
<g>
</g>
<g>
</g>
<g>
</g>
<g>
</g>
<g>
</g>
<g>
</g>
<g>
</g>
<g>
</g>
<g>
</g>
<g>
</g>
<g>
</g>
<g>
</g>
</svg>
