<?xml version="1.0" encoding="iso-8859-1"?>
<!-- Generator: Adobe Illustrator 18.0.0, SVG Export Plug-In . SVG Version: 6.00 Build 0)  -->
<!DOCTYPE svg PUBLIC "-//W3C//DTD SVG 1.1//EN" "http://www.w3.org/Graphics/SVG/1.1/DTD/svg11.dtd">
<svg version="1.1" id="Capa_1" xmlns="http://www.w3.org/2000/svg" xmlns:xlink="http://www.w3.org/1999/xlink" x="0px" y="0px"
	 viewBox="0 0 55 55" style="enable-background:new 0 0 55 55;" xml:space="preserve">
<path d="M44,0c-6.065,0-11,4.935-11,11c0,2.673,0.961,5.125,2.552,7.034L2,51.586V35.454c0-0.553-0.447-1-1-1s-1,0.447-1,1V54
	c0,0.13,0.026,0.26,0.077,0.382c0.101,0.245,0.296,0.44,0.541,0.541C0.74,54.974,0.87,55,1,55h18.546c0.553,0,1-0.447,1-1
	s-0.447-1-1-1H3.414l33.552-33.552C38.875,21.04,41.327,22,44,22c6.065,0,11-4.935,11-11S50.065,0,44,0z M44,20
	c-4.963,0-9-4.037-9-9s4.037-9,9-9s9,4.037,9,9S48.963,20,44,20z"/>
<g>
</g>
<g>
</g>
<g>
</g>
<g>
</g>
<g>
</g>
<g>
</g>
<g>
</g>
<g>
</g>
<g>
</g>
<g>
</g>
<g>
</g>
<g>
</g>
<g>
</g>
<g>
</g>
<g>
</g>
</svg>
