<?xml version="1.0" encoding="iso-8859-1"?>
<!-- Generator: Adobe Illustrator 18.0.0, SVG Export Plug-In . SVG Version: 6.00 Build 0)  -->
<!DOCTYPE svg PUBLIC "-//W3C//DTD SVG 1.1//EN" "http://www.w3.org/Graphics/SVG/1.1/DTD/svg11.dtd">
<svg version="1.1" id="Capa_1" xmlns="http://www.w3.org/2000/svg" xmlns:xlink="http://www.w3.org/1999/xlink" x="0px" y="0px"
	 viewBox="0 0 55 55" style="enable-background:new 0 0 55 55;" xml:space="preserve">
<path d="M44,33c-2.673,0-5.125,0.96-7.034,2.552L3.414,2h16.132c0.553,0,1-0.447,1-1s-0.447-1-1-1H1C0.87,0,0.74,0.026,0.618,0.077
	c-0.245,0.101-0.44,0.296-0.541,0.541C0.026,0.74,0,0.87,0,1v18.546c0,0.553,0.447,1,1,1s1-0.447,1-1V3.414l33.552,33.552
	C33.961,38.875,33,41.327,33,44c0,6.065,4.935,11,11,11s11-4.935,11-11S50.065,33,44,33z M44,53c-4.963,0-9-4.037-9-9s4.037-9,9-9
	s9,4.037,9,9S48.963,53,44,53z"/>
<g>
</g>
<g>
</g>
<g>
</g>
<g>
</g>
<g>
</g>
<g>
</g>
<g>
</g>
<g>
</g>
<g>
</g>
<g>
</g>
<g>
</g>
<g>
</g>
<g>
</g>
<g>
</g>
<g>
</g>
</svg>
