<?xml version="1.0" encoding="iso-8859-1"?>
<!-- Generator: Adobe Illustrator 18.0.0, SVG Export Plug-In . SVG Version: 6.00 Build 0)  -->
<!DOCTYPE svg PUBLIC "-//W3C//DTD SVG 1.1//EN" "http://www.w3.org/Graphics/SVG/1.1/DTD/svg11.dtd">
<svg version="1.1" id="Capa_1" xmlns="http://www.w3.org/2000/svg" xmlns:xlink="http://www.w3.org/1999/xlink" x="0px" y="0px"
	 viewBox="0 0 53 53" style="enable-background:new 0 0 53 53;" xml:space="preserve">
<path d="M53,25V0H28v23.586l-26,26V33.454c0-0.553-0.448-1-1-1s-1,0.447-1,1V52c0,0.13,0.027,0.26,0.077,0.382
	c0.101,0.245,0.296,0.439,0.541,0.541C0.74,52.973,0.87,53,1,53h18.545c0.552,0,1-0.447,1-1s-0.448-1-1-1H3.414l26-26H53z M30,2h21
	v21H30V2z"/>
<g>
</g>
<g>
</g>
<g>
</g>
<g>
</g>
<g>
</g>
<g>
</g>
<g>
</g>
<g>
</g>
<g>
</g>
<g>
</g>
<g>
</g>
<g>
</g>
<g>
</g>
<g>
</g>
<g>
</g>
</svg>
