<?xml version="1.0" encoding="iso-8859-1"?>
<!-- Generator: Adobe Illustrator 18.0.0, SVG Export Plug-In . SVG Version: 6.00 Build 0)  -->
<!DOCTYPE svg PUBLIC "-//W3C//DTD SVG 1.1//EN" "http://www.w3.org/Graphics/SVG/1.1/DTD/svg11.dtd">
<svg version="1.1" id="Capa_1" xmlns="http://www.w3.org/2000/svg" xmlns:xlink="http://www.w3.org/1999/xlink" x="0px" y="0px"
	 viewBox="0 0 60 60" style="enable-background:new 0 0 60 60;" xml:space="preserve">
<g>
	<path d="M44.857,0v2h11.729l-8.227,8.227C43.537,5.747,37.085,3,30,3C15.112,3,3,15.112,3,30c0,7.085,2.747,13.537,7.227,18.359
		L2,56.586V44.857H0V60h15.143v-2H3.414l8.227-8.227C16.463,54.253,22.915,57,30,57c14.888,0,27-12.112,27-27
		c0-7.085-2.747-13.537-7.227-18.359L58,3.414v11.729h2V0H44.857z M55,30c0,13.785-11.215,25-25,25
		c-6.534,0-12.487-2.522-16.946-6.64l5.653-5.653c0.391-0.391,0.391-1.023,0-1.414s-1.023-0.391-1.414,0l-5.653,5.653
		C7.522,42.487,5,36.534,5,30C5,16.215,16.215,5,30,5c6.534,0,12.487,2.522,16.946,6.64l-5.653,5.653
		c-0.391,0.391-0.391,1.023,0,1.414C41.488,18.902,41.744,19,42,19s0.512-0.098,0.707-0.293l5.653-5.653
		C52.478,17.513,55,23.466,55,30z"/>
	<path d="M30,19c-6.065,0-11,4.935-11,11s4.935,11,11,11s11-4.935,11-11S36.065,19,30,19z M30,39c-4.963,0-9-4.037-9-9s4.037-9,9-9
		s9,4.037,9,9S34.963,39,30,39z"/>
</g>
<g>
</g>
<g>
</g>
<g>
</g>
<g>
</g>
<g>
</g>
<g>
</g>
<g>
</g>
<g>
</g>
<g>
</g>
<g>
</g>
<g>
</g>
<g>
</g>
<g>
</g>
<g>
</g>
<g>
</g>
</svg>
