<?xml version="1.0" encoding="iso-8859-1"?>
<!-- Generator: Adobe Illustrator 18.0.0, SVG Export Plug-In . SVG Version: 6.00 Build 0)  -->
<!DOCTYPE svg PUBLIC "-//W3C//DTD SVG 1.1//EN" "http://www.w3.org/Graphics/SVG/1.1/DTD/svg11.dtd">
<svg version="1.1" id="Capa_1" xmlns="http://www.w3.org/2000/svg" xmlns:xlink="http://www.w3.org/1999/xlink" x="0px" y="0px"
	 viewBox="0 0 60 60" style="enable-background:new 0 0 60 60;" xml:space="preserve">
<g>
	<path d="M60,39c0-0.552-0.447-1-1-1s-1,0.448-1,1v17.586L35.707,34.293c-0.391-0.391-1.023-0.391-1.414,0s-0.391,1.023,0,1.414
		L56.586,58H39c-0.553,0-1,0.448-1,1s0.447,1,1,1h20c0.13,0,0.26-0.027,0.382-0.077c0.245-0.101,0.44-0.296,0.541-0.541
		C59.974,59.26,60,59.13,60,59V39z"/>
	<path d="M3.414,2H21c0.553,0,1-0.448,1-1s-0.447-1-1-1H1C0.87,0,0.74,0.027,0.618,0.077c-0.245,0.101-0.44,0.296-0.541,0.541
		C0.027,0.74,0,0.87,0,1v20c0,0.552,0.447,1,1,1s1-0.448,1-1V3.414l22.293,22.293C24.488,25.902,24.744,26,25,26
		s0.512-0.098,0.707-0.293c0.391-0.391,0.391-1.023,0-1.414L3.414,2z"/>
</g>
<g>
</g>
<g>
</g>
<g>
</g>
<g>
</g>
<g>
</g>
<g>
</g>
<g>
</g>
<g>
</g>
<g>
</g>
<g>
</g>
<g>
</g>
<g>
</g>
<g>
</g>
<g>
</g>
<g>
</g>
</svg>
