<?xml version="1.0" encoding="iso-8859-1"?>
<!-- Generator: Adobe Illustrator 18.0.0, SVG Export Plug-In . SVG Version: 6.00 Build 0)  -->
<!DOCTYPE svg PUBLIC "-//W3C//DTD SVG 1.1//EN" "http://www.w3.org/Graphics/SVG/1.1/DTD/svg11.dtd">
<svg version="1.1" id="Capa_1" xmlns="http://www.w3.org/2000/svg" xmlns:xlink="http://www.w3.org/1999/xlink" x="0px" y="0px"
	 viewBox="0 0 53 53" style="enable-background:new 0 0 53 53;" xml:space="preserve">
<path d="M52,14c0.552,0,1-0.448,1-1V1c0-0.13-0.027-0.26-0.077-0.382c-0.101-0.244-0.296-0.439-0.541-0.541
	C52.26,0.027,52.13,0,52,0H40c-0.552,0-1,0.448-1,1s0.448,1,1,1h9.586L33.887,17.699C31.887,16.017,29.311,15,26.5,15
	s-5.387,1.017-7.387,2.699L3.414,2H13c0.552,0,1-0.448,1-1s-0.448-1-1-1H1C0.87,0,0.74,0.027,0.618,0.077
	C0.373,0.179,0.179,0.373,0.077,0.618C0.027,0.74,0,0.87,0,1v12c0,0.552,0.448,1,1,1s1-0.448,1-1V3.414l15.699,15.699
	C16.017,21.113,15,23.689,15,26.5s1.017,5.387,2.699,7.387L2,49.586V40c0-0.552-0.448-1-1-1s-1,0.448-1,1v12
	c0,0.13,0.027,0.26,0.077,0.382c0.101,0.244,0.296,0.439,0.541,0.541C0.74,52.973,0.87,53,1,53h12c0.552,0,1-0.448,1-1s-0.448-1-1-1
	H3.414l15.699-15.699c2,1.681,4.576,2.699,7.387,2.699s5.387-1.017,7.387-2.699L49.586,51H40c-0.552,0-1,0.448-1,1s0.448,1,1,1h12
	c0.13,0,0.26-0.027,0.382-0.077c0.244-0.101,0.439-0.296,0.541-0.541C52.973,52.26,53,52.13,53,52V40c0-0.552-0.448-1-1-1
	s-1,0.448-1,1v9.586L35.301,33.887c1.681-2,2.699-4.576,2.699-7.387s-1.017-5.387-2.699-7.387L51,3.414V13
	C51,13.552,51.448,14,52,14z M26.5,36c-5.238,0-9.5-4.262-9.5-9.5s4.262-9.5,9.5-9.5s9.5,4.262,9.5,9.5S31.738,36,26.5,36z"/>
<g>
</g>
<g>
</g>
<g>
</g>
<g>
</g>
<g>
</g>
<g>
</g>
<g>
</g>
<g>
</g>
<g>
</g>
<g>
</g>
<g>
</g>
<g>
</g>
<g>
</g>
<g>
</g>
<g>
</g>
</svg>
