<?xml version="1.0" encoding="iso-8859-1"?>
<!-- Generator: Adobe Illustrator 18.0.0, SVG Export Plug-In . SVG Version: 6.00 Build 0)  -->
<!DOCTYPE svg PUBLIC "-//W3C//DTD SVG 1.1//EN" "http://www.w3.org/Graphics/SVG/1.1/DTD/svg11.dtd">
<svg version="1.1" id="Capa_1" xmlns="http://www.w3.org/2000/svg" xmlns:xlink="http://www.w3.org/1999/xlink" x="0px" y="0px"
	 viewBox="0 0 54 54" style="enable-background:new 0 0 54 54;" xml:space="preserve">
<path d="M53,37h-7.191C47.211,33.953,48,30.568,48,27c0-2.805-0.488-5.496-1.376-8H53c0.553,0,1-0.447,1-1s-0.447-1-1-1h-7.191
	C42.009,8.747,33.666,3,24,3C10.767,3,0,13.767,0,27s10.767,24,24,24c8.864,0,16.615-4.834,20.771-12H53c0.553,0,1-0.447,1-1
	S53.553,37,53,37z M24,49C11.869,49,2,39.131,2,27S11.869,5,24,5c8.531,0,15.938,4.884,19.586,12H24.414l4.293-4.293
	c0.391-0.391,0.391-1.023,0-1.414s-1.023-0.391-1.414,0l-5.999,5.999c-0.093,0.092-0.166,0.203-0.217,0.326
	c-0.101,0.244-0.101,0.52,0,0.764c0.051,0.123,0.124,0.234,0.217,0.326l5.999,5.999C27.488,24.902,27.744,25,28,25
	s0.512-0.098,0.707-0.293c0.391-0.391,0.391-1.023,0-1.414L24.414,19h20.074C45.46,21.481,46,24.178,46,27
	c0,3.6-0.875,6.997-2.414,10H24.414l4.293-4.293c0.391-0.391,0.391-1.023,0-1.414s-1.023-0.391-1.414,0l-5.999,5.999
	c-0.093,0.092-0.166,0.203-0.217,0.326c-0.101,0.244-0.101,0.52,0,0.764c0.051,0.123,0.124,0.234,0.217,0.326l5.999,5.999
	C27.488,44.902,27.744,45,28,45s0.512-0.098,0.707-0.293c0.391-0.391,0.391-1.023,0-1.414L24.414,39h18.011
	C38.494,45.015,31.706,49,24,49z"/>
<g>
</g>
<g>
</g>
<g>
</g>
<g>
</g>
<g>
</g>
<g>
</g>
<g>
</g>
<g>
</g>
<g>
</g>
<g>
</g>
<g>
</g>
<g>
</g>
<g>
</g>
<g>
</g>
<g>
</g>
</svg>
