<?xml version="1.0" encoding="iso-8859-1"?>
<!-- Generator: Adobe Illustrator 18.0.0, SVG Export Plug-In . SVG Version: 6.00 Build 0)  -->
<!DOCTYPE svg PUBLIC "-//W3C//DTD SVG 1.1//EN" "http://www.w3.org/Graphics/SVG/1.1/DTD/svg11.dtd">
<svg version="1.1" id="Capa_1" xmlns="http://www.w3.org/2000/svg" xmlns:xlink="http://www.w3.org/1999/xlink" x="0px" y="0px"
	 viewBox="0 0 60 60" style="enable-background:new 0 0 60 60;" xml:space="preserve">
<g>
	<path d="M59.707,58.293L37.414,36H55c0.553,0,1-0.448,1-1s-0.447-1-1-1H35c-0.13,0-0.26,0.027-0.382,0.077
		c-0.245,0.101-0.44,0.296-0.541,0.541C34.027,34.74,34,34.87,34,35v20c0,0.552,0.447,1,1,1s1-0.448,1-1V37.414l22.293,22.293
		C58.488,59.902,58.744,60,59,60s0.512-0.098,0.707-0.293C60.098,59.316,60.098,58.684,59.707,58.293z"/>
	<path d="M25,4c-0.553,0-1,0.448-1,1v17.586L1.707,0.293c-0.391-0.391-1.023-0.391-1.414,0s-0.391,1.023,0,1.414L22.586,24H5
		c-0.553,0-1,0.448-1,1s0.447,1,1,1h20c0.13,0,0.26-0.027,0.382-0.077c0.245-0.101,0.44-0.296,0.541-0.541
		C25.974,25.26,26,25.13,26,25V5C26,4.448,25.553,4,25,4z"/>
</g>
<g>
</g>
<g>
</g>
<g>
</g>
<g>
</g>
<g>
</g>
<g>
</g>
<g>
</g>
<g>
</g>
<g>
</g>
<g>
</g>
<g>
</g>
<g>
</g>
<g>
</g>
<g>
</g>
<g>
</g>
</svg>
