<?xml version="1.0" encoding="iso-8859-1"?>
<!-- Generator: Adobe Illustrator 18.0.0, SVG Export Plug-In . SVG Version: 6.00 Build 0)  -->
<!DOCTYPE svg PUBLIC "-//W3C//DTD SVG 1.1//EN" "http://www.w3.org/Graphics/SVG/1.1/DTD/svg11.dtd">
<svg version="1.1" id="Capa_1" xmlns="http://www.w3.org/2000/svg" xmlns:xlink="http://www.w3.org/1999/xlink" x="0px" y="0px"
	 viewBox="0 0 59.999 59.999" style="enable-background:new 0 0 59.999 59.999;" xml:space="preserve">
<g>
	<path d="M59.923,30.381c0.101-0.244,0.101-0.52,0-0.764c-0.051-0.123-0.124-0.233-0.217-0.326l-8.999-8.999
		c-0.391-0.391-1.023-0.391-1.414,0s-0.391,1.023,0,1.414l7.293,7.293H41h-1h-8c-0.552,0-1,0.447-1,1c0,0.07,0.026,0.131,0.04,0.197
		c-0.016,0.068-0.043,0.13-0.045,0.204c-0.018,0.623-0.077,1.248-0.176,1.857c-0.088,0.545,0.282,1.059,0.827,1.147
		c0.054,0.009,0.108,0.013,0.162,0.013c0.481,0,0.906-0.349,0.986-0.84c0.084-0.519,0.134-1.049,0.167-1.579H40h1h15.586
		l-7.293,7.293c-0.391,0.391-0.391,1.023,0,1.414c0.195,0.195,0.451,0.293,0.707,0.293s0.512-0.098,0.707-0.293l8.999-8.999
		C59.799,30.615,59.872,30.504,59.923,30.381z"/>
	<path d="M8.707,35.292c-0.391-0.391-1.023-0.391-1.414,0s-0.391,1.023,0,1.414l7.293,7.293H1c-0.552,0-1,0.447-1,1s0.448,1,1,1
		h13.586l-7.293,7.293c-0.391,0.391-0.391,1.023,0,1.414C7.488,54.902,7.744,54.999,8,54.999s0.512-0.098,0.707-0.293l9-9
		c0.391-0.391,0.391-1.023,0-1.414L8.707,35.292z"/>
	<path d="M22.452,17.101c0.572,0.242,1.132,0.524,1.663,0.84c0.16,0.095,0.336,0.14,0.509,0.14c0.341,0,0.674-0.175,0.861-0.49
		c0.282-0.475,0.125-1.088-0.35-1.37c-0.609-0.36-1.25-0.685-1.905-0.961c-0.508-0.215-1.095,0.023-1.311,0.531
		C21.705,16.299,21.943,16.886,22.452,17.101z"/>
	<path d="M28.25,21.664c0.196,0.265,0.498,0.404,0.804,0.404c0.207,0,0.416-0.063,0.595-0.196c0.443-0.329,0.537-0.956,0.208-1.399
		c-0.422-0.568-0.886-1.115-1.38-1.623c-0.385-0.397-1.018-0.405-1.414-0.021c-0.396,0.386-0.405,1.019-0.021,1.414
		C27.474,20.688,27.88,21.166,28.25,21.664z"/>
	<path d="M30.05,24.92c0.225,0.576,0.413,1.175,0.559,1.778c0.111,0.458,0.52,0.765,0.971,0.765c0.078,0,0.157-0.009,0.236-0.028
		c0.537-0.13,0.867-0.67,0.736-1.207c-0.167-0.69-0.382-1.375-0.639-2.034c-0.2-0.516-0.781-0.77-1.295-0.568
		C30.104,23.826,29.85,24.406,30.05,24.92z"/>
	<path d="M21.705,43.19c-0.585,0.209-1.188,0.38-1.793,0.507c-0.54,0.114-0.886,0.645-0.772,1.185
		c0.099,0.471,0.515,0.794,0.978,0.794c0.068,0,0.138-0.007,0.208-0.021c0.692-0.146,1.383-0.342,2.053-0.581
		c0.52-0.186,0.791-0.758,0.605-1.278C22.797,43.276,22.225,43.004,21.705,43.19z"/>
	<path d="M31.063,35.325c-0.501-0.228-1.095-0.008-1.325,0.493c-0.257,0.562-0.556,1.114-0.888,1.643
		c-0.294,0.467-0.154,1.084,0.313,1.379c0.166,0.104,0.35,0.153,0.532,0.153c0.333,0,0.657-0.165,0.847-0.468
		c0.379-0.603,0.721-1.233,1.014-1.875C31.786,36.148,31.565,35.554,31.063,35.325z"/>
	<path d="M26.464,40.317c-0.457,0.419-0.946,0.812-1.455,1.168c-0.453,0.316-0.563,0.939-0.246,1.393
		c0.194,0.278,0.505,0.427,0.82,0.427c0.198,0,0.397-0.059,0.572-0.181c0.581-0.406,1.14-0.855,1.661-1.334
		c0.407-0.373,0.434-1.006,0.06-1.413C27.504,39.969,26.871,39.942,26.464,40.317z"/>
	<path d="M11,29.999c0,4.963,4.038,9,9,9s9-4.037,9-9s-4.038-9-9-9S11,25.036,11,29.999z M20,22.999c3.86,0,7,3.141,7,7s-3.14,7-7,7
		s-7-3.141-7-7S16.14,22.999,20,22.999z"/>
	<path d="M1,15.999h13.586l-7.293,7.293c-0.391,0.391-0.391,1.023,0,1.414C7.488,24.902,7.744,24.999,8,24.999
		s0.512-0.098,0.707-0.293l8.694-8.694c0.489,0.014,0.978,0.045,1.461,0.109c0.044,0.006,0.088,0.009,0.132,0.009
		c0.494,0,0.924-0.366,0.99-0.869c0.072-0.548-0.313-1.05-0.86-1.122c-0.561-0.074-1.129-0.11-1.696-0.126L8.707,5.292
		c-0.391-0.391-1.023-0.391-1.414,0s-0.391,1.023,0,1.414l7.293,7.293H1c-0.552,0-1,0.447-1,1S0.448,15.999,1,15.999z"/>
</g>
<g>
</g>
<g>
</g>
<g>
</g>
<g>
</g>
<g>
</g>
<g>
</g>
<g>
</g>
<g>
</g>
<g>
</g>
<g>
</g>
<g>
</g>
<g>
</g>
<g>
</g>
<g>
</g>
<g>
</g>
</svg>
