<?xml version="1.0" encoding="iso-8859-1"?>
<!-- Generator: Adobe Illustrator 18.0.0, SVG Export Plug-In . SVG Version: 6.00 Build 0)  -->
<!DOCTYPE svg PUBLIC "-//W3C//DTD SVG 1.1//EN" "http://www.w3.org/Graphics/SVG/1.1/DTD/svg11.dtd">
<svg version="1.1" id="Capa_1" xmlns="http://www.w3.org/2000/svg" xmlns:xlink="http://www.w3.org/1999/xlink" x="0px" y="0px"
	 viewBox="0 0 58 58" style="enable-background:new 0 0 58 58;" xml:space="preserve">
<g>
	<circle cx="44" cy="5" r="1"/>
	<circle cx="42" cy="7" r="1"/>
	<circle cx="46" cy="7" r="1"/>
	<circle cx="48" cy="9" r="1"/>
	<circle cx="44" cy="9" r="1"/>
	<circle cx="48" cy="5" r="1"/>
	<path d="M47.094,13.68C49.934,12.787,52,10.13,52,7c0-3.859-3.14-7-7-7s-7,3.141-7,7c0,3.13,2.066,5.787,4.906,6.68l-4.613,4.613
		c-0.391,0.391-0.391,1.023,0,1.414C38.488,19.902,38.744,20,39,20s0.512-0.098,0.707-0.293l4.042-4.042
		C42.486,22.667,36.36,28,29,28c-6.489,0-12.136,3.658-15,9.017V15.414l4.293,4.293C18.488,19.902,18.744,20,19,20
		s0.512-0.098,0.707-0.293c0.391-0.391,0.391-1.023,0-1.414l-4.613-4.613C17.934,12.787,20,10.13,20,7c0-3.859-3.14-7-7-7
		S6,3.141,6,7c0,3.13,2.066,5.787,4.906,6.68l-4.613,4.613c-0.391,0.391-0.391,1.023,0,1.414C6.488,19.902,6.744,20,7,20
		s0.512-0.098,0.707-0.293L12,15.414V44.08C8.613,44.568,6,47.481,6,51c0,3.859,3.14,7,7,7s7-3.141,7-7
		c0-3.503-2.59-6.405-5.954-6.913C14.522,36.241,21.037,30,29,30c8.61,0,15.728-6.44,16.834-14.752l4.459,4.459
		C50.488,19.902,50.744,20,51,20s0.512-0.098,0.707-0.293c0.391-0.391,0.391-1.023,0-1.414L47.094,13.68z M8,7c0-2.757,2.243-5,5-5
		s5,2.243,5,5s-2.243,5-5,5S8,9.757,8,7z M18,51c0,2.757-2.243,5-5,5s-5-2.243-5-5s2.243-5,5-5S18,48.243,18,51z M45.666,2.067
		C45.28,2.206,45,2.566,45,3c0,0.552,0.448,1,1,1s1-0.448,1-1c0-0.261-0.106-0.495-0.27-0.673c1.606,0.597,2.829,1.981,3.171,3.693
		C49.398,6.072,49,6.483,49,7c0,0.517,0.398,0.928,0.901,0.98c-0.342,1.712-1.565,3.096-3.171,3.693C46.894,11.495,47,11.261,47,11
		c0-0.552-0.448-1-1-1s-1,0.448-1,1c0,0.434,0.28,0.794,0.666,0.933C45.446,11.962,45.228,12,45,12c-0.773,0-1.496-0.191-2.15-0.505
		C42.937,11.347,43,11.184,43,11c0-0.552-0.448-1-1-1c-0.284,0-0.537,0.12-0.719,0.31c-0.191-0.214-0.366-0.441-0.518-0.686
		C40.904,9.452,41,9.24,41,9c0-0.515-0.394-0.923-0.894-0.979C40.038,7.691,40,7.35,40,7s0.038-0.691,0.106-1.021
		C40.606,5.923,41,5.514,41,5c0-0.24-0.096-0.452-0.237-0.624c0.152-0.245,0.327-0.471,0.518-0.686C41.463,3.88,41.716,4,42,4
		c0.552,0,1-0.448,1-1c0-0.184-0.063-0.347-0.15-0.495C43.504,2.191,44.227,2,45,2C45.228,2,45.446,2.038,45.666,2.067z"/>
</g>
<g>
</g>
<g>
</g>
<g>
</g>
<g>
</g>
<g>
</g>
<g>
</g>
<g>
</g>
<g>
</g>
<g>
</g>
<g>
</g>
<g>
</g>
<g>
</g>
<g>
</g>
<g>
</g>
<g>
</g>
</svg>
