<?xml version="1.0" encoding="iso-8859-1"?>
<!-- Generator: Adobe Illustrator 18.0.0, SVG Export Plug-In . SVG Version: 6.00 Build 0)  -->
<!DOCTYPE svg PUBLIC "-//W3C//DTD SVG 1.1//EN" "http://www.w3.org/Graphics/SVG/1.1/DTD/svg11.dtd">
<svg version="1.1" id="Capa_1" xmlns="http://www.w3.org/2000/svg" xmlns:xlink="http://www.w3.org/1999/xlink" x="0px" y="0px"
	 viewBox="0 0 59.999 59.999" style="enable-background:new 0 0 59.999 59.999;" xml:space="preserve">
<g>
	<path d="M59.923,30.381c0.101-0.244,0.101-0.52,0-0.764c-0.051-0.123-0.124-0.233-0.217-0.326l-8.999-8.999
		c-0.391-0.391-1.023-0.391-1.414,0s-0.391,1.023,0,1.414l7.293,7.293H41h-1h-7v-1c0-0.553-0.448-1-1-1s-1,0.447-1,1v2
		c0,0.553,0.448,1,1,1h8h1h15.586l-7.293,7.293c-0.391,0.391-0.391,1.023,0,1.414c0.195,0.195,0.451,0.293,0.707,0.293
		s0.512-0.098,0.707-0.293l8.999-8.999C59.799,30.615,59.872,30.504,59.923,30.381z"/>
	<path d="M6.707,35.292c-0.391-0.391-1.023-0.391-1.414,0s-0.391,1.023,0,1.414l7.293,7.293H1c-0.552,0-1,0.447-1,1s0.448,1,1,1
		h11.586l-7.293,7.293c-0.391,0.391-0.391,1.023,0,1.414C5.488,54.902,5.744,54.999,6,54.999s0.512-0.098,0.707-0.293l9-9
		C15.902,45.511,16,45.255,16,44.999s-0.098-0.512-0.293-0.707L6.707,35.292z"/>
	<path d="M21,15.999h2c0.552,0,1-0.447,1-1s-0.448-1-1-1h-2c-0.552,0-1,0.447-1,1S20.448,15.999,21,15.999z"/>
	<path d="M27,15.999h2c0.552,0,1-0.447,1-1s-0.448-1-1-1h-2c-0.552,0-1,0.447-1,1S26.448,15.999,27,15.999z"/>
	<path d="M32,24.999c0.552,0,1-0.447,1-1v-2c0-0.553-0.448-1-1-1s-1,0.447-1,1v2C31,24.552,31.448,24.999,32,24.999z"/>
	<path d="M32,18.999c0.552,0,1-0.447,1-1v-2c0-0.553-0.448-1-1-1s-1,0.447-1,1v2C31,18.552,31.448,18.999,32,18.999z"/>
	<path d="M25,43.999h-2c-0.552,0-1,0.447-1,1s0.448,1,1,1h2c0.552,0,1-0.447,1-1S25.552,43.999,25,43.999z"/>
	<path d="M31,43.999h-2c-0.552,0-1,0.447-1,1s0.448,1,1,1h2c0.552,0,1-0.447,1-1S31.552,43.999,31,43.999z"/>
	<path d="M32,38.999c-0.552,0-1,0.447-1,1v2c0,0.553,0.448,1,1,1s1-0.447,1-1v-2C33,39.447,32.552,38.999,32,38.999z"/>
	<path d="M19,43.999h-2c-0.552,0-1,0.447-1,1s0.448,1,1,1h2c0.552,0,1-0.447,1-1S19.552,43.999,19,43.999z"/>
	<path d="M32,32.999c-0.552,0-1,0.447-1,1v2c0,0.553,0.448,1,1,1s1-0.447,1-1v-2C33,33.447,32.552,32.999,32,32.999z"/>
	<path d="M16,39.999h12v-20H16V39.999z M18,21.999h8v16h-8V21.999z"/>
	<path d="M1,15.999h11.586l-7.293,7.293c-0.391,0.391-0.391,1.023,0,1.414C5.488,24.902,5.744,24.999,6,24.999
		s0.512-0.098,0.707-0.293l8.707-8.707H17c0.552,0,1-0.447,1-1s-0.448-1-1-1h-1.586L6.707,5.292c-0.391-0.391-1.023-0.391-1.414,0
		s-0.391,1.023,0,1.414l7.293,7.293H1c-0.552,0-1,0.447-1,1S0.448,15.999,1,15.999z"/>
</g>
<g>
</g>
<g>
</g>
<g>
</g>
<g>
</g>
<g>
</g>
<g>
</g>
<g>
</g>
<g>
</g>
<g>
</g>
<g>
</g>
<g>
</g>
<g>
</g>
<g>
</g>
<g>
</g>
<g>
</g>
</svg>
