<?xml version="1.0" encoding="iso-8859-1"?>
<!-- Generator: Adobe Illustrator 18.0.0, SVG Export Plug-In . SVG Version: 6.00 Build 0)  -->
<!DOCTYPE svg PUBLIC "-//W3C//DTD SVG 1.1//EN" "http://www.w3.org/Graphics/SVG/1.1/DTD/svg11.dtd">
<svg version="1.1" id="Capa_1" xmlns="http://www.w3.org/2000/svg" xmlns:xlink="http://www.w3.org/1999/xlink" x="0px" y="0px"
	 viewBox="0 0 58 58" style="enable-background:new 0 0 58 58;" xml:space="preserve">
<path d="M47.094,13.68C49.934,12.787,52,10.13,52,7c0-3.859-3.14-7-7-7s-7,3.141-7,7c0,3.13,2.066,5.787,4.906,6.68l-4.613,4.613
	c-0.391,0.391-0.391,1.023,0,1.414C38.488,19.902,38.744,20,39,20s0.512-0.098,0.707-0.293l4.042-4.042
	C42.486,22.667,36.36,28,29,28c-6.489,0-12.136,3.658-15,9.017V15.414l4.293,4.293C18.488,19.902,18.744,20,19,20
	s0.512-0.098,0.707-0.293c0.391-0.391,0.391-1.023,0-1.414l-4.613-4.613C17.934,12.787,20,10.13,20,7c0-3.859-3.14-7-7-7
	S6,3.141,6,7c0,3.13,2.066,5.787,4.906,6.68l-4.613,4.613c-0.391,0.391-0.391,1.023,0,1.414C6.488,19.902,6.744,20,7,20
	s0.512-0.098,0.707-0.293L12,15.414V44.08C8.613,44.568,6,47.481,6,51c0,3.859,3.14,7,7,7s7-3.141,7-7
	c0-3.503-2.59-6.405-5.954-6.913C14.522,36.241,21.037,30,29,30c8.61,0,15.728-6.44,16.834-14.752l4.459,4.459
	C50.488,19.902,50.744,20,51,20s0.512-0.098,0.707-0.293c0.391-0.391,0.391-1.023,0-1.414L47.094,13.68z M8,7c0-2.757,2.243-5,5-5
	s5,2.243,5,5s-2.243,5-5,5S8,9.757,8,7z M18,51c0,2.757-2.243,5-5,5s-5-2.243-5-5s2.243-5,5-5S18,48.243,18,51z M40,7
	c0-2.757,2.243-5,5-5s5,2.243,5,5s-2.243,5-5,5S40,9.757,40,7z"/>
<g>
</g>
<g>
</g>
<g>
</g>
<g>
</g>
<g>
</g>
<g>
</g>
<g>
</g>
<g>
</g>
<g>
</g>
<g>
</g>
<g>
</g>
<g>
</g>
<g>
</g>
<g>
</g>
<g>
</g>
</svg>
