<?xml version="1.0" encoding="iso-8859-1"?>
<!-- Generator: Adobe Illustrator 18.0.0, SVG Export Plug-In . SVG Version: 6.00 Build 0)  -->
<!DOCTYPE svg PUBLIC "-//W3C//DTD SVG 1.1//EN" "http://www.w3.org/Graphics/SVG/1.1/DTD/svg11.dtd">
<svg version="1.1" id="Capa_1" xmlns="http://www.w3.org/2000/svg" xmlns:xlink="http://www.w3.org/1999/xlink" x="0px" y="0px"
	 viewBox="0 0 56 56" style="enable-background:new 0 0 56 56;" xml:space="preserve">
<path d="M55,1h-7c-0.553,0-1,0.447-1,1s0.447,1,1,1h4.586L29,26.586V9.414l5.293,5.293C34.488,14.902,34.744,15,35,15
	s0.512-0.098,0.707-0.293c0.391-0.391,0.391-1.023,0-1.414l-7-7c-0.391-0.391-1.023-0.391-1.414,0l-7,7
	c-0.391,0.391-0.391,1.023,0,1.414C20.488,14.902,20.744,15,21,15s0.512-0.098,0.707-0.293L27,9.414v17.172L3.414,3H8
	c0.553,0,1-0.447,1-1S8.553,1,8,1H1C0.447,1,0,1.447,0,2v7c0,0.553,0.447,1,1,1s1-0.447,1-1V4.414l25,25V41.08
	c-3.386,0.488-6,3.401-6,6.92c0,3.859,3.141,7,7,7s7-3.141,7-7c0-3.519-2.614-6.432-6-6.92V29.414l25-25V9c0,0.553,0.447,1,1,1
	s1-0.447,1-1V2C56,1.447,55.553,1,55,1z M33,48c0,2.757-2.243,5-5,5s-5-2.243-5-5s2.243-5,5-5S33,45.243,33,48z"/>
<g>
</g>
<g>
</g>
<g>
</g>
<g>
</g>
<g>
</g>
<g>
</g>
<g>
</g>
<g>
</g>
<g>
</g>
<g>
</g>
<g>
</g>
<g>
</g>
<g>
</g>
<g>
</g>
<g>
</g>
</svg>
