<?xml version="1.0" encoding="iso-8859-1"?>
<!-- Generator: Adobe Illustrator 18.0.0, SVG Export Plug-In . SVG Version: 6.00 Build 0)  -->
<!DOCTYPE svg PUBLIC "-//W3C//DTD SVG 1.1//EN" "http://www.w3.org/Graphics/SVG/1.1/DTD/svg11.dtd">
<svg version="1.1" id="Capa_1" xmlns="http://www.w3.org/2000/svg" xmlns:xlink="http://www.w3.org/1999/xlink" x="0px" y="0px"
	 viewBox="0 0 50 50" style="enable-background:new 0 0 50 50;" xml:space="preserve">
<path d="M47.707,7.293l-7-7c-0.391-0.391-1.023-0.391-1.414,0l-7,7c-0.391,0.391-0.391,1.023,0,1.414C32.488,8.902,32.744,9,33,9
	s0.512-0.098,0.707-0.293L39,3.414V22H11V3.414l5.293,5.293C16.488,8.902,16.744,9,17,9s0.512-0.098,0.707-0.293
	c0.391-0.391,0.391-1.023,0-1.414l-7-7c-0.391-0.391-1.023-0.391-1.414,0l-7,7c-0.391,0.391-0.391,1.023,0,1.414
	C2.488,8.902,2.744,9,3,9s0.512-0.098,0.707-0.293L9,3.414V24h15v12.08c-3.386,0.488-6,3.401-6,6.92c0,3.859,3.141,7,7,7
	s7-3.141,7-7c0-3.519-2.614-6.432-6-6.92V24h15V3.414l5.293,5.293C46.488,8.902,46.744,9,47,9s0.512-0.098,0.707-0.293
	C48.098,8.316,48.098,7.684,47.707,7.293z M30,43c0,2.757-2.243,5-5,5s-5-2.243-5-5s2.243-5,5-5S30,40.243,30,43z"/>
<g>
</g>
<g>
</g>
<g>
</g>
<g>
</g>
<g>
</g>
<g>
</g>
<g>
</g>
<g>
</g>
<g>
</g>
<g>
</g>
<g>
</g>
<g>
</g>
<g>
</g>
<g>
</g>
<g>
</g>
</svg>
