<?xml version="1.0" encoding="iso-8859-1"?>
<!-- Generator: Adobe Illustrator 18.0.0, SVG Export Plug-In . SVG Version: 6.00 Build 0)  -->
<!DOCTYPE svg PUBLIC "-//W3C//DTD SVG 1.1//EN" "http://www.w3.org/Graphics/SVG/1.1/DTD/svg11.dtd">
<svg version="1.1" id="Capa_1" xmlns="http://www.w3.org/2000/svg" xmlns:xlink="http://www.w3.org/1999/xlink" x="0px" y="0px"
	 viewBox="0 0 59.999 59.999" style="enable-background:new 0 0 59.999 59.999;" xml:space="preserve">
<g>
	<path d="M28,30.999c0.552,0,1-0.447,1-1s-0.448-1-1-1h-7.586l-8.707-8.707c-0.391-0.391-1.023-0.391-1.414,0s-0.391,1.023,0,1.414
		l7.293,7.293H1c-0.552,0-1,0.447-1,1s0.448,1,1,1h16.586l-7.293,7.293c-0.391,0.391-0.391,1.023,0,1.414
		c0.195,0.195,0.451,0.293,0.707,0.293s0.512-0.098,0.707-0.293l8.707-8.707H28z"/>
	<path d="M49.293,24.706c0.195,0.195,0.451,0.293,0.707,0.293s0.512-0.098,0.707-0.293l8.999-8.999
		c0.093-0.092,0.166-0.203,0.217-0.326c0.101-0.244,0.101-0.52,0-0.764c-0.051-0.123-0.124-0.233-0.217-0.326l-8.999-8.999
		c-0.391-0.391-1.023-0.391-1.414,0s-0.391,1.023,0,1.414l7.362,7.362C56.275,14.21,56,14.569,56,14.999s0.275,0.789,0.655,0.93
		l-7.362,7.362C48.902,23.683,48.902,24.316,49.293,24.706z"/>
	<path d="M59.923,44.617c-0.051-0.123-0.124-0.233-0.217-0.326l-8.999-8.999c-0.391-0.391-1.023-0.391-1.414,0s-0.391,1.023,0,1.414
		l7.362,7.362C56.275,44.21,56,44.569,56,44.999s0.275,0.789,0.655,0.93l-7.362,7.362c-0.391,0.391-0.391,1.023,0,1.414
		c0.195,0.195,0.451,0.293,0.707,0.293s0.512-0.098,0.707-0.293l8.999-8.999c0.093-0.092,0.166-0.203,0.217-0.326
		C60.024,45.137,60.024,44.862,59.923,44.617z"/>
	<path d="M27,31.999v2c0,0.553,0.448,1,1,1s1-0.447,1-1v-2c0-0.553-0.448-1-1-1S27,31.447,27,31.999z"/>
	<path d="M28,22.999c0.552,0,1-0.447,1-1v-2c0-0.553-0.448-1-1-1s-1,0.447-1,1v2C27,22.552,27.448,22.999,28,22.999z"/>
	<path d="M29,27.999v-2c0-0.553-0.448-1-1-1s-1,0.447-1,1v2c0,0.553,0.448,1,1,1S29,28.552,29,27.999z"/>
	<path d="M53,15.999c0.552,0,1-0.447,1-1s-0.448-1-1-1h-2c-0.552,0-1,0.447-1,1s0.448,1,1,1H53z"/>
	<path d="M39,15.999h2c0.552,0,1-0.447,1-1s-0.448-1-1-1h-2c-0.552,0-1,0.447-1,1S38.448,15.999,39,15.999z"/>
	<path d="M33,15.999h2c0.552,0,1-0.447,1-1s-0.448-1-1-1h-2c-0.552,0-1,0.447-1,1S32.448,15.999,33,15.999z"/>
	<path d="M35,43.999h-2c-0.552,0-1,0.447-1,1s0.448,1,1,1h2c0.552,0,1-0.447,1-1S35.552,43.999,35,43.999z"/>
	<path d="M28,36.999c-0.552,0-1,0.447-1,1v2c0,0.553,0.448,1,1,1s1-0.447,1-1v-2C29,37.447,28.552,36.999,28,36.999z"/>
	<path d="M47,43.999h-2c-0.552,0-1,0.447-1,1s0.448,1,1,1h2c0.552,0,1-0.447,1-1S47.552,43.999,47,43.999z"/>
	<path d="M53,45.999c0.552,0,1-0.447,1-1s-0.448-1-1-1h-2c-0.552,0-1,0.447-1,1s0.448,1,1,1H53z"/>
	<path d="M41,43.999h-2c-0.552,0-1,0.447-1,1s0.448,1,1,1h2c0.552,0,1-0.447,1-1S41.552,43.999,41,43.999z"/>
	<path d="M47,13.999h-2c-0.552,0-1,0.447-1,1s0.448,1,1,1h2c0.552,0,1-0.447,1-1S47.552,13.999,47,13.999z"/>
	<path d="M29,43.999c0-0.553-0.448-1-1-1s-1,0.447-1,1v2h2c0.552,0,1-0.447,1-1S29.552,43.999,29,43.999z"/>
	<path d="M29,13.999h-2v2c0,0.553,0.448,1,1,1s1-0.447,1-1c0.552,0,1-0.447,1-1S29.552,13.999,29,13.999z"/>
	<path d="M44,19.999H32v20h12V19.999z M42,37.999h-8v-16h8V37.999z"/>
</g>
<g>
</g>
<g>
</g>
<g>
</g>
<g>
</g>
<g>
</g>
<g>
</g>
<g>
</g>
<g>
</g>
<g>
</g>
<g>
</g>
<g>
</g>
<g>
</g>
<g>
</g>
<g>
</g>
<g>
</g>
</svg>
