<?xml version="1.0" encoding="iso-8859-1"?>
<!-- Generator: Adobe Illustrator 18.0.0, SVG Export Plug-In . SVG Version: 6.00 Build 0)  -->
<!DOCTYPE svg PUBLIC "-//W3C//DTD SVG 1.1//EN" "http://www.w3.org/Graphics/SVG/1.1/DTD/svg11.dtd">
<svg version="1.1" id="Capa_1" xmlns="http://www.w3.org/2000/svg" xmlns:xlink="http://www.w3.org/1999/xlink" x="0px" y="0px"
	 viewBox="0 0 58 58" style="enable-background:new 0 0 58 58;" xml:space="preserve">
<g>
	<path d="M52,7c0-3.859-3.14-7-7-7s-7,3.141-7,7c0,3.504,2.592,6.408,5.958,6.914c-0.01,0.164-0.008,0.33-0.023,0.493
		c-0.051,0.55,0.353,1.037,0.903,1.089c0.032,0.003,0.063,0.004,0.094,0.004c0.511,0,0.946-0.389,0.995-0.907
		c0.02-0.22,0.019-0.443,0.031-0.665C49.365,13.458,52,10.534,52,7z M45,12c-2.757,0-5-2.243-5-5s2.243-5,5-5s5,2.243,5,5
		S47.757,12,45,12z"/>
	<path d="M14.042,44.086c0.01-0.164,0.008-0.33,0.023-0.493c0.014-0.155-0.014-0.3-0.065-0.437V41.02
		c0.331-0.077,0.617-0.31,0.729-0.656c0.168-0.521,0.367-1.034,0.59-1.529c0.227-0.503,0.003-1.096-0.5-1.322
		c-0.272-0.124-0.566-0.106-0.818,0.009V15.414l4.293,4.293C18.488,19.902,18.744,20,19,20s0.512-0.098,0.707-0.293
		c0.391-0.391,0.391-1.023,0-1.414l-4.613-4.613C17.934,12.787,20,10.13,20,7c0-3.859-3.14-7-7-7S6,3.141,6,7
		c0,3.13,2.066,5.787,4.906,6.68l-4.613,4.613c-0.391,0.391-0.391,1.023,0,1.414C6.488,19.902,6.744,20,7,20
		s0.512-0.098,0.707-0.293L12,15.414V44.08C8.613,44.568,6,47.481,6,51c0,3.859,3.14,7,7,7s7-3.141,7-7
		C20,47.496,17.408,44.592,14.042,44.086z M8,7c0-2.757,2.243-5,5-5s5,2.243,5,5s-2.243,5-5,5S8,9.757,8,7z M13,56
		c-2.757,0-5-2.243-5-5s2.243-5,5-5s5,2.243,5,5S15.757,56,13,56z"/>
	<path d="M41.029,21.97c-0.327,0.437-0.681,0.86-1.053,1.26c-0.376,0.404-0.354,1.037,0.05,1.413
		c0.193,0.18,0.438,0.269,0.682,0.269c0.268,0,0.535-0.107,0.732-0.318c0.421-0.452,0.821-0.932,1.19-1.426
		c0.331-0.442,0.24-1.069-0.202-1.399C41.985,21.436,41.359,21.527,41.029,21.97z"/>
	<path d="M44.537,16.973c-0.527-0.167-1.089,0.119-1.259,0.646c-0.167,0.518-0.365,1.033-0.588,1.529
		c-0.227,0.504-0.001,1.096,0.502,1.322c0.133,0.06,0.272,0.088,0.409,0.088c0.381,0,0.746-0.22,0.913-0.59
		c0.253-0.564,0.478-1.148,0.667-1.736C45.351,17.706,45.062,17.143,44.537,16.973z"/>
	<path d="M16.574,33.393c-0.423,0.452-0.824,0.932-1.193,1.424c-0.331,0.442-0.241,1.069,0.202,1.4
		c0.18,0.135,0.39,0.199,0.598,0.199c0.305,0,0.605-0.139,0.802-0.4c0.325-0.436,0.68-0.858,1.053-1.258
		c0.377-0.403,0.356-1.036-0.048-1.413C17.584,32.968,16.951,32.988,16.574,33.393z"/>
	<path d="M32.268,27.645c-0.537,0.119-1.08,0.208-1.615,0.266c-0.549,0.059-0.947,0.551-0.888,1.101
		c0.055,0.513,0.488,0.894,0.993,0.894c0.036,0,0.072-0.002,0.107-0.006c0.609-0.064,1.227-0.166,1.836-0.301
		c0.539-0.12,0.879-0.653,0.76-1.192C33.341,27.865,32.806,27.53,32.268,27.645z"/>
	<path d="M37.499,25.366c-0.678,0.467-1.395,0.877-2.131,1.221c-0.5,0.233-0.717,0.829-0.483,1.329
		c0.17,0.364,0.53,0.577,0.907,0.577c0.142,0,0.286-0.03,0.422-0.094c0.836-0.391,1.65-0.856,2.419-1.387
		c0.455-0.313,0.57-0.936,0.257-1.391C38.576,25.168,37.952,25.05,37.499,25.366z"/>
	<path d="M27.159,28.099c-0.612,0.065-1.229,0.166-1.835,0.299c-0.539,0.118-0.88,0.651-0.762,1.191
		c0.103,0.467,0.516,0.785,0.976,0.785c0.071,0,0.144-0.008,0.216-0.023c0.534-0.117,1.078-0.206,1.617-0.264
		c0.549-0.059,0.947-0.551,0.888-1.101C28.201,28.438,27.697,28.041,27.159,28.099z"/>
	<path d="M21.807,29.59c-0.841,0.393-1.655,0.857-2.42,1.383c-0.455,0.313-0.571,0.935-0.259,1.39
		c0.194,0.283,0.507,0.435,0.826,0.435c0.195,0,0.392-0.057,0.565-0.176c0.674-0.462,1.392-0.872,2.134-1.219
		c0.5-0.233,0.717-0.829,0.483-1.329C22.902,29.571,22.307,29.358,21.807,29.59z"/>
</g>
<g>
</g>
<g>
</g>
<g>
</g>
<g>
</g>
<g>
</g>
<g>
</g>
<g>
</g>
<g>
</g>
<g>
</g>
<g>
</g>
<g>
</g>
<g>
</g>
<g>
</g>
<g>
</g>
<g>
</g>
</svg>
