<?xml version="1.0" encoding="iso-8859-1"?>
<!-- Generator: Adobe Illustrator 18.0.0, SVG Export Plug-In . SVG Version: 6.00 Build 0)  -->
<!DOCTYPE svg PUBLIC "-//W3C//DTD SVG 1.1//EN" "http://www.w3.org/Graphics/SVG/1.1/DTD/svg11.dtd">
<svg version="1.1" id="Capa_1" xmlns="http://www.w3.org/2000/svg" xmlns:xlink="http://www.w3.org/1999/xlink" x="0px" y="0px"
	 viewBox="0 0 59.999 59.999" style="enable-background:new 0 0 59.999 59.999;" xml:space="preserve">
<g>
	<path d="M49.293,24.706c0.195,0.195,0.451,0.293,0.707,0.293s0.512-0.098,0.707-0.293l8.999-8.999
		c0.093-0.092,0.166-0.203,0.217-0.326c0.101-0.244,0.101-0.52,0-0.764c-0.051-0.123-0.124-0.233-0.217-0.326l-8.999-8.999
		c-0.391-0.391-1.023-0.391-1.414,0s-0.391,1.023,0,1.414l7.748,7.748c-0.107,0.159-0.184,0.339-0.184,0.545
		s0.077,0.386,0.184,0.545l-7.748,7.748C48.902,23.683,48.902,24.316,49.293,24.706z"/>
	<path d="M59.923,44.617c-0.051-0.123-0.124-0.233-0.217-0.326l-8.999-8.999c-0.391-0.391-1.023-0.391-1.414,0s-0.391,1.023,0,1.414
		l7.362,7.362C56.275,44.21,56,44.569,56,44.999s0.275,0.789,0.655,0.93l-7.362,7.362c-0.391,0.391-0.391,1.023,0,1.414
		c0.195,0.195,0.451,0.293,0.707,0.293s0.512-0.098,0.707-0.293l8.999-8.999c0.093-0.092,0.166-0.203,0.217-0.326
		C60.024,45.137,60.024,44.862,59.923,44.617z"/>
	<path d="M39.879,16.324c0.069,0,0.139-0.007,0.208-0.021c0.603-0.128,1.224-0.217,1.846-0.264c0.551-0.041,0.963-0.521,0.922-1.072
		c-0.041-0.551-0.514-0.958-1.072-0.922c-0.71,0.054-1.42,0.155-2.11,0.301c-0.54,0.115-0.885,0.646-0.771,1.186
		C39.002,16.001,39.417,16.324,39.879,16.324z"/>
	<path d="M34.417,18.697c0.198,0,0.398-0.059,0.572-0.181c0.509-0.356,1.046-0.681,1.595-0.964c0.491-0.254,0.683-0.856,0.43-1.348
		c-0.254-0.49-0.856-0.683-1.348-0.43c-0.627,0.324-1.241,0.695-1.823,1.103c-0.453,0.316-0.563,0.94-0.246,1.393
		C33.791,18.548,34.102,18.697,34.417,18.697z"/>
	<path d="M29.77,22.856c0.166,0.104,0.35,0.154,0.532,0.154c0.332,0,0.657-0.165,0.847-0.467c0.331-0.525,0.701-1.032,1.098-1.509
		c0.354-0.424,0.297-1.055-0.127-1.408s-1.055-0.298-1.408,0.127c-0.454,0.544-0.876,1.124-1.254,1.724
		C29.162,21.944,29.302,22.562,29.77,22.856z"/>
	<path d="M45.857,15.999h2c0.552,0,1-0.447,1-1s-0.448-1-1-1h-2c-0.552,0-1,0.447-1,1S45.305,15.999,45.857,15.999z"/>
	<path d="M53.857,15.999c0.552,0,1-0.447,1-1s-0.448-1-1-1h-2c-0.552,0-1,0.447-1,1s0.448,1,1,1H53.857z"/>
	<path d="M47,43.999h-2c-0.552,0-1,0.447-1,1s0.448,1,1,1h2c0.552,0,1-0.447,1-1S47.552,43.999,47,43.999z"/>
	<path d="M41.139,43.877c-0.613-0.082-1.229-0.206-1.829-0.368c-0.531-0.148-1.082,0.171-1.227,0.703
		c-0.145,0.533,0.17,1.082,0.704,1.227c0.685,0.187,1.388,0.328,2.088,0.421c0.044,0.006,0.089,0.009,0.133,0.009
		c0.493,0,0.923-0.365,0.99-0.868C42.071,44.453,41.686,43.951,41.139,43.877z"/>
	<path d="M28.034,28.57c0.054,0.009,0.108,0.013,0.161,0.013c0.482,0,0.907-0.35,0.986-0.84c0.099-0.61,0.24-1.222,0.42-1.816
		c0.16-0.528-0.138-1.087-0.667-1.247c-0.526-0.157-1.087,0.139-1.247,0.667c-0.206,0.68-0.368,1.378-0.481,2.076
		C27.119,27.968,27.489,28.482,28.034,28.57z"/>
	<path d="M53,45.999c0.552,0,1-0.447,1-1s-0.448-1-1-1h-2c-0.552,0-1,0.447-1,1s0.448,1,1,1H53z"/>
	<path d="M35.884,42.058c-0.533-0.314-1.05-0.669-1.538-1.054c-0.433-0.341-1.062-0.268-1.404,0.166
		c-0.342,0.434-0.268,1.063,0.166,1.404c0.558,0.439,1.149,0.846,1.759,1.206c0.16,0.094,0.335,0.139,0.508,0.139
		c0.342,0,0.675-0.176,0.862-0.491C36.518,42.952,36.36,42.339,35.884,42.058z"/>
	<path d="M29.392,33.302c-0.146-0.603-0.251-1.221-0.316-1.838c-0.032-0.303-0.203-0.551-0.437-0.712
		C28.855,30.569,29,30.305,29,29.999c0-0.553-0.448-1-1-1h-7.586l-8.707-8.707c-0.391-0.391-1.023-0.391-1.414,0
		s-0.391,1.023,0,1.414l7.293,7.293H1c-0.552,0-1,0.447-1,1s0.448,1,1,1h16.586l-7.293,7.293c-0.391,0.391-0.391,1.023,0,1.414
		c0.195,0.195,0.451,0.293,0.707,0.293s0.512-0.098,0.707-0.293l8.707-8.707h6.858c-0.134,0.19-0.211,0.422-0.185,0.672
		c0.074,0.705,0.195,1.412,0.361,2.1c0.11,0.458,0.52,0.766,0.971,0.766c0.078,0,0.157-0.009,0.235-0.028
		C29.191,34.379,29.521,33.839,29.392,33.302z"/>
	<path d="M30.742,36.767c-0.268-0.484-0.877-0.66-1.359-0.392c-0.483,0.267-0.659,0.875-0.392,1.358
		c0.342,0.62,0.73,1.223,1.154,1.793c0.196,0.264,0.498,0.403,0.804,0.403c0.207,0,0.416-0.064,0.595-0.197
		c0.443-0.329,0.536-0.956,0.207-1.399C31.38,37.835,31.041,37.308,30.742,36.767z"/>
	<path d="M40,20.999c-4.962,0-9,4.037-9,9s4.038,9,9,9s9-4.037,9-9S44.962,20.999,40,20.999z M40,36.999c-3.86,0-7-3.141-7-7
		s3.14-7,7-7s7,3.141,7,7S43.86,36.999,40,36.999z"/>
</g>
<g>
</g>
<g>
</g>
<g>
</g>
<g>
</g>
<g>
</g>
<g>
</g>
<g>
</g>
<g>
</g>
<g>
</g>
<g>
</g>
<g>
</g>
<g>
</g>
<g>
</g>
<g>
</g>
<g>
</g>
</svg>
