<?xml version="1.0" encoding="iso-8859-1"?>
<!-- Generator: Adobe Illustrator 18.0.0, SVG Export Plug-In . SVG Version: 6.00 Build 0)  -->
<!DOCTYPE svg PUBLIC "-//W3C//DTD SVG 1.1//EN" "http://www.w3.org/Graphics/SVG/1.1/DTD/svg11.dtd">
<svg version="1.1" id="Capa_1" xmlns="http://www.w3.org/2000/svg" xmlns:xlink="http://www.w3.org/1999/xlink" x="0px" y="0px"
	 viewBox="0 0 53 53" style="enable-background:new 0 0 53 53;" xml:space="preserve">
<path d="M39.5,13h-7c-0.553,0-1,0.447-1,1s0.447,1,1,1h4.586L27.5,24.586V3.414l5.293,5.293C32.988,8.902,33.244,9,33.5,9
	s0.512-0.098,0.707-0.293c0.391-0.391,0.391-1.023,0-1.414l-7-7c-0.391-0.391-1.023-0.391-1.414,0l-7,7
	c-0.391,0.391-0.391,1.023,0,1.414C18.988,8.902,19.244,9,19.5,9s0.512-0.098,0.707-0.293L25.5,3.414v21.172L15.914,15H20.5
	c0.553,0,1-0.447,1-1s-0.447-1-1-1h-7c-0.553,0-1,0.447-1,1v7c0,0.553,0.447,1,1,1s1-0.447,1-1v-4.586l11,11V39.08
	c-3.386,0.488-6,3.401-6,6.92c0,3.859,3.141,7,7,7s7-3.141,7-7c0-3.519-2.614-6.432-6-6.92V27.414l11-11V21c0,0.553,0.447,1,1,1
	s1-0.447,1-1v-7C40.5,13.447,40.053,13,39.5,13z M31.5,46c0,2.757-2.243,5-5,5s-5-2.243-5-5s2.243-5,5-5S31.5,43.243,31.5,46z"/>
<g>
</g>
<g>
</g>
<g>
</g>
<g>
</g>
<g>
</g>
<g>
</g>
<g>
</g>
<g>
</g>
<g>
</g>
<g>
</g>
<g>
</g>
<g>
</g>
<g>
</g>
<g>
</g>
<g>
</g>
</svg>
