<?xml version="1.0" encoding="iso-8859-1"?>
<!-- Generator: Adobe Illustrator 18.0.0, SVG Export Plug-In . SVG Version: 6.00 Build 0)  -->
<!DOCTYPE svg PUBLIC "-//W3C//DTD SVG 1.1//EN" "http://www.w3.org/Graphics/SVG/1.1/DTD/svg11.dtd">
<svg version="1.1" id="Capa_1" xmlns="http://www.w3.org/2000/svg" xmlns:xlink="http://www.w3.org/1999/xlink" x="0px" y="0px"
	 viewBox="0 0 54 54" style="enable-background:new 0 0 54 54;" xml:space="preserve">
<g>
	<path d="M46.923,26.618c-0.051-0.123-0.124-0.233-0.217-0.326L30.707,10.293c-0.391-0.391-1.023-0.391-1.414,0
		s-0.391,1.023,0,1.414L43.586,26H1c-0.553,0-1,0.448-1,1s0.447,1,1,1h42.586L29.293,42.293c-0.391,0.391-0.391,1.023,0,1.414
		C29.488,43.902,29.744,44,30,44s0.512-0.098,0.707-0.293l15.999-15.999c0.093-0.092,0.166-0.203,0.217-0.326
		C47.024,27.138,47.024,26.862,46.923,26.618z"/>
	<path d="M53,10c-0.553,0-1,0.448-1,1v32c0,0.552,0.447,1,1,1s1-0.448,1-1V11C54,10.448,53.553,10,53,10z"/>
</g>
<g>
</g>
<g>
</g>
<g>
</g>
<g>
</g>
<g>
</g>
<g>
</g>
<g>
</g>
<g>
</g>
<g>
</g>
<g>
</g>
<g>
</g>
<g>
</g>
<g>
</g>
<g>
</g>
<g>
</g>
</svg>
