<?xml version="1.0" encoding="iso-8859-1"?>
<!-- Generator: Adobe Illustrator 18.0.0, SVG Export Plug-In . SVG Version: 6.00 Build 0)  -->
<!DOCTYPE svg PUBLIC "-//W3C//DTD SVG 1.1//EN" "http://www.w3.org/Graphics/SVG/1.1/DTD/svg11.dtd">
<svg version="1.1" id="Capa_1" xmlns="http://www.w3.org/2000/svg" xmlns:xlink="http://www.w3.org/1999/xlink" x="0px" y="0px"
	 viewBox="0 0 59.999 59.999" style="enable-background:new 0 0 59.999 59.999;" xml:space="preserve">
<g>
	<path d="M32.081,10.089c-0.359-0.031-0.721-0.032-1.082-0.047V3.413l4.293,4.293c0.195,0.195,0.451,0.293,0.707,0.293
		s0.512-0.098,0.707-0.293c0.391-0.391,0.391-1.023,0-1.414l-5.999-5.999c-0.092-0.093-0.203-0.166-0.326-0.217
		c-0.244-0.101-0.519-0.101-0.764,0c-0.123,0.051-0.234,0.125-0.326,0.217l-5.999,5.999c-0.391,0.391-0.391,1.023,0,1.414
		c0.195,0.195,0.451,0.293,0.707,0.293s0.512-0.098,0.707-0.293l4.293-4.293v6.611c-12.771,0.527-23,11.077-23,23.975
		s10.229,23.448,23,23.975v1.025c0,0.553,0.447,1,1,1s1-0.447,1-1v-1.303c0.179-0.183,0.289-0.434,0.286-0.711
		c-0.003-0.267-0.113-0.507-0.286-0.685V12.042c0.304,0.014,0.609,0.013,0.91,0.039c0.029,0.003,0.059,0.004,0.087,0.004
		c0.514,0,0.95-0.394,0.995-0.914C33.039,10.62,32.631,10.135,32.081,10.089z M7.999,33.999c0-11.796,9.332-21.45,21-21.975v43.949
		C17.331,55.448,7.999,45.794,7.999,33.999z"/>
	<path d="M35.936,55.188c-0.605,0.17-1.232,0.315-1.861,0.435c-0.543,0.102-0.9,0.625-0.798,1.167c0.09,0.48,0.51,0.815,0.981,0.815
		c0.062,0,0.123-0.006,0.186-0.018c0.687-0.129,1.37-0.288,2.031-0.474c0.532-0.149,0.843-0.701,0.693-1.232
		C37.019,55.349,36.463,55.041,35.936,55.188z"/>
	<path d="M49.903,24.612c0.171,0.361,0.53,0.572,0.905,0.572c0.143,0,0.289-0.03,0.427-0.096c0.499-0.236,0.713-0.833,0.477-1.332
		c-0.296-0.623-0.623-1.244-0.973-1.845c-0.278-0.477-0.892-0.637-1.368-0.36c-0.477,0.278-0.638,0.891-0.36,1.368
		C49.332,23.471,49.632,24.041,49.903,24.612z"/>
	<path d="M51.225,28.193c0.167,0.609,0.309,1.236,0.422,1.863c0.088,0.483,0.509,0.822,0.983,0.822c0.059,0,0.118-0.005,0.179-0.016
		c0.543-0.099,0.904-0.618,0.807-1.162c-0.124-0.685-0.279-1.369-0.461-2.035c-0.146-0.533-0.701-0.842-1.229-0.701
		C51.393,27.111,51.079,27.661,51.225,28.193z"/>
	<path d="M41.196,52.941c-0.543,0.322-1.111,0.626-1.687,0.902c-0.498,0.24-0.707,0.838-0.468,1.335
		c0.173,0.358,0.53,0.566,0.902,0.566c0.146,0,0.293-0.031,0.433-0.099c0.627-0.302,1.246-0.633,1.839-0.984
		c0.475-0.281,0.632-0.895,0.351-1.37C42.285,52.817,41.674,52.66,41.196,52.941z"/>
	<path d="M38.179,11.428c-0.657-0.238-1.327-0.448-1.992-0.625c-0.531-0.138-1.082,0.177-1.224,0.71
		c-0.142,0.534,0.177,1.082,0.71,1.224c0.608,0.161,1.222,0.354,1.824,0.572c0.112,0.04,0.228,0.06,0.341,0.06
		c0.409,0,0.793-0.253,0.94-0.659C38.966,12.19,38.699,11.617,38.179,11.428z"/>
	<path d="M52.515,38.824c-0.534-0.145-1.081,0.183-1.219,0.717c-0.159,0.613-0.348,1.228-0.562,1.826
		c-0.185,0.521,0.087,1.093,0.606,1.278c0.111,0.039,0.225,0.058,0.336,0.058c0.411,0,0.796-0.255,0.942-0.664
		c0.232-0.655,0.439-1.327,0.612-1.996C53.37,39.508,53.049,38.963,52.515,38.824z"/>
	<path d="M52.999,32.856c-0.553,0-1,0.447-1,1v0.143c0,0.595-0.023,1.191-0.07,1.775c-0.044,0.55,0.367,1.032,0.918,1.076
		c0.026,0.002,0.054,0.003,0.08,0.003c0.517,0,0.954-0.397,0.996-0.921c0.051-0.636,0.076-1.286,0.076-1.934v-0.143
		C53.999,33.303,53.552,32.856,52.999,32.856z"/>
	<path d="M50.51,44.467c-0.482-0.274-1.093-0.105-1.363,0.375c-0.313,0.551-0.655,1.097-1.017,1.623
		c-0.313,0.455-0.197,1.078,0.258,1.391c0.173,0.119,0.37,0.176,0.565,0.176c0.318,0,0.632-0.151,0.825-0.434
		c0.394-0.574,0.767-1.168,1.106-1.768C51.159,45.349,50.991,44.739,50.51,44.467z"/>
	<path d="M48.332,18.509c-0.449-0.531-0.925-1.047-1.414-1.532c-0.391-0.39-1.023-0.387-1.414,0.004
		c-0.39,0.392-0.388,1.025,0.004,1.414c0.448,0.446,0.886,0.919,1.299,1.407c0.197,0.233,0.479,0.354,0.764,0.354
		c0.228,0,0.457-0.078,0.646-0.237C48.637,19.562,48.69,18.931,48.332,18.509z"/>
	<path d="M43.721,14.305c-0.563-0.394-1.155-0.771-1.764-1.12c-0.478-0.274-1.09-0.11-1.365,0.369
		c-0.275,0.479-0.11,1.09,0.369,1.365c0.556,0.319,1.098,0.664,1.611,1.024c0.175,0.122,0.375,0.181,0.573,0.181
		c0.315,0,0.625-0.148,0.82-0.426C44.283,15.246,44.173,14.623,43.721,14.305z"/>
	<path d="M45.699,49.412c-0.442,0.451-0.913,0.891-1.398,1.307c-0.419,0.359-0.467,0.99-0.107,1.41
		c0.197,0.23,0.478,0.349,0.759,0.349c0.23,0,0.462-0.079,0.651-0.241c0.527-0.452,1.04-0.932,1.523-1.424
		c0.387-0.394,0.381-1.027-0.014-1.414C46.719,49.012,46.086,49.015,45.699,49.412z"/>
</g>
<g>
</g>
<g>
</g>
<g>
</g>
<g>
</g>
<g>
</g>
<g>
</g>
<g>
</g>
<g>
</g>
<g>
</g>
<g>
</g>
<g>
</g>
<g>
</g>
<g>
</g>
<g>
</g>
<g>
</g>
</svg>
