<?xml version="1.0" encoding="iso-8859-1"?>
<!-- Generator: Adobe Illustrator 18.0.0, SVG Export Plug-In . SVG Version: 6.00 Build 0)  -->
<!DOCTYPE svg PUBLIC "-//W3C//DTD SVG 1.1//EN" "http://www.w3.org/Graphics/SVG/1.1/DTD/svg11.dtd">
<svg version="1.1" id="Capa_1" xmlns="http://www.w3.org/2000/svg" xmlns:xlink="http://www.w3.org/1999/xlink" x="0px" y="0px"
	 viewBox="0 0 54 54" style="enable-background:new 0 0 54 54;" xml:space="preserve">
<g>
	<path d="M49.217,0H4.783C2.146,0,0,2.146,0,4.783v44.434C0,51.854,2.146,54,4.783,54h44.435C51.854,54,54,51.854,54,49.217V4.783
		C54,2.146,51.854,0,49.217,0z M52,49.217C52,50.751,50.751,52,49.217,52H4.783C3.249,52,2,50.751,2,49.217V4.783
		C2,3.249,3.249,2,4.783,2h44.435C50.751,2,52,3.249,52,4.783V49.217z"/>
	<path d="M40.043,25.293L18.957,13.118c-0.617-0.355-1.354-0.355-1.971,0C16.369,13.475,16,14.112,16,14.825v24.35
		c0,0.713,0.369,1.351,0.986,1.707c0.309,0.178,0.647,0.268,0.985,0.268s0.677-0.09,0.985-0.268l21.087-12.175
		c0.617-0.356,0.986-0.995,0.986-1.707S40.661,25.649,40.043,25.293z M39.043,26.975L18,39.175l-0.043-24.324L39.043,26.975
		l0.5,0.866L39.043,26.975z"/>
</g>
<g>
</g>
<g>
</g>
<g>
</g>
<g>
</g>
<g>
</g>
<g>
</g>
<g>
</g>
<g>
</g>
<g>
</g>
<g>
</g>
<g>
</g>
<g>
</g>
<g>
</g>
<g>
</g>
<g>
</g>
</svg>
