<?xml version="1.0" encoding="iso-8859-1"?>
<!-- Generator: Adobe Illustrator 18.0.0, SVG Export Plug-In . SVG Version: 6.00 Build 0)  -->
<!DOCTYPE svg PUBLIC "-//W3C//DTD SVG 1.1//EN" "http://www.w3.org/Graphics/SVG/1.1/DTD/svg11.dtd">
<svg version="1.1" id="Capa_1" xmlns="http://www.w3.org/2000/svg" xmlns:xlink="http://www.w3.org/1999/xlink" x="0px" y="0px"
	 viewBox="0 0 47.707 47.707" style="enable-background:new 0 0 47.707 47.707;" xml:space="preserve">
<path d="M47.707,9.854l-7.999-7.999c-0.001-0.001-0.001-0.001-0.002-0.002L39,1.146l-0.706,0.706
	c-0.001,0.001-0.001,0.001-0.002,0.002l-7.999,7.999l1.414,1.414L38,4.975v21.586c0,9.925-8.075,18-18,18s-18-8.075-18-18v-24
	c0-0.553-0.448-1-1-1s-1,0.447-1,1v24c0,11.028,8.972,20,20,20s20-8.972,20-20V4.975l6.293,6.293L47.707,9.854z"/>
<g>
</g>
<g>
</g>
<g>
</g>
<g>
</g>
<g>
</g>
<g>
</g>
<g>
</g>
<g>
</g>
<g>
</g>
<g>
</g>
<g>
</g>
<g>
</g>
<g>
</g>
<g>
</g>
<g>
</g>
</svg>
