<?xml version="1.0" encoding="iso-8859-1"?>
<!-- Generator: Adobe Illustrator 18.0.0, SVG Export Plug-In . SVG Version: 6.00 Build 0)  -->
<!DOCTYPE svg PUBLIC "-//W3C//DTD SVG 1.1//EN" "http://www.w3.org/Graphics/SVG/1.1/DTD/svg11.dtd">
<svg version="1.1" id="Capa_1" xmlns="http://www.w3.org/2000/svg" xmlns:xlink="http://www.w3.org/1999/xlink" x="0px" y="0px"
	 viewBox="0 0 47.707 47.707" style="enable-background:new 0 0 47.707 47.707;" xml:space="preserve">
<path d="M39.708,45.853l7.999-7.999l-1.414-1.414L40,42.732V21.146c0-11.028-8.972-20-20-20s-20,8.972-20,20v24c0,0.553,0.448,1,1,1
	s1-0.447,1-1v-24c0-9.925,8.075-18,18-18s18,8.075,18,18v21.586l-6.293-6.293l-1.414,1.414l7.999,7.999
	c0.001,0.001,0.001,0.001,0.002,0.002L39,46.561l0.706-0.706C39.707,45.854,39.707,45.853,39.708,45.853z"/>
<g>
</g>
<g>
</g>
<g>
</g>
<g>
</g>
<g>
</g>
<g>
</g>
<g>
</g>
<g>
</g>
<g>
</g>
<g>
</g>
<g>
</g>
<g>
</g>
<g>
</g>
<g>
</g>
<g>
</g>
</svg>
