<?xml version="1.0" encoding="iso-8859-1"?>
<!-- Generator: Adobe Illustrator 18.0.0, SVG Export Plug-In . SVG Version: 6.00 Build 0)  -->
<!DOCTYPE svg PUBLIC "-//W3C//DTD SVG 1.1//EN" "http://www.w3.org/Graphics/SVG/1.1/DTD/svg11.dtd">
<svg version="1.1" id="Capa_1" xmlns="http://www.w3.org/2000/svg" xmlns:xlink="http://www.w3.org/1999/xlink" x="0px" y="0px"
	 viewBox="0 0 54 54" style="enable-background:new 0 0 54 54;" xml:space="preserve">
<g>
	<path d="M27,0C12.112,0,0,12.112,0,27s12.112,27,27,27s27-12.112,27-27S41.888,0,27,0z M27,52C13.215,52,2,40.785,2,27
		S13.215,2,27,2s25,11.215,25,25S40.785,52,27,52z"/>
	<path d="M16.414,27l11.293-11.293c0.391-0.391,0.391-1.023,0-1.414s-1.023-0.391-1.414,0L14.795,25.791
		c-0.667,0.667-0.667,1.751,0,2.418l11.498,11.498C26.488,39.902,26.744,40,27,40s0.512-0.098,0.707-0.293
		c0.391-0.391,0.391-1.023,0-1.414L16.414,27z"/>
	<path d="M37.707,14.293c-0.391-0.391-1.023-0.391-1.414,0L24.795,25.791c-0.667,0.667-0.667,1.751,0,2.418l11.498,11.498
		C36.488,39.902,36.744,40,37,40s0.512-0.098,0.707-0.293c0.391-0.391,0.391-1.023,0-1.414L26.414,27l11.293-11.293
		C38.098,15.316,38.098,14.684,37.707,14.293z"/>
</g>
<g>
</g>
<g>
</g>
<g>
</g>
<g>
</g>
<g>
</g>
<g>
</g>
<g>
</g>
<g>
</g>
<g>
</g>
<g>
</g>
<g>
</g>
<g>
</g>
<g>
</g>
<g>
</g>
<g>
</g>
</svg>
