<?xml version="1.0" encoding="iso-8859-1"?>
<!-- Generator: Adobe Illustrator 18.0.0, SVG Export Plug-In . SVG Version: 6.00 Build 0)  -->
<!DOCTYPE svg PUBLIC "-//W3C//DTD SVG 1.1//EN" "http://www.w3.org/Graphics/SVG/1.1/DTD/svg11.dtd">
<svg version="1.1" id="Capa_1" xmlns="http://www.w3.org/2000/svg" xmlns:xlink="http://www.w3.org/1999/xlink" x="0px" y="0px"
	 viewBox="0 0 57 57" style="enable-background:new 0 0 57 57;" xml:space="preserve">
<g>
	<path d="M20.804,3.47c0.089,0,0.179-0.012,0.268-0.036c0.612-0.169,1.243-0.318,1.873-0.442c0.541-0.107,0.894-0.634,0.787-1.176
		c-0.107-0.541-0.636-0.895-1.176-0.787c-0.678,0.135-1.356,0.295-2.018,0.478c-0.532,0.147-0.845,0.698-0.697,1.23
		C19.963,3.18,20.365,3.47,20.804,3.47z"/>
	<path d="M32.518,2.891C33.148,3,33.78,3.136,34.399,3.293c0.083,0.021,0.165,0.03,0.247,0.03c0.446,0,0.854-0.301,0.969-0.754
		c0.136-0.535-0.188-1.079-0.724-1.216c-0.667-0.169-1.35-0.314-2.029-0.434c-0.543-0.092-1.062,0.27-1.157,0.813
		S31.974,2.795,32.518,2.891z"/>
	<path d="M26.715,2.53c0.016,0,0.031,0,0.047-0.001C27.4,2.5,28.045,2.493,28.687,2.51c0.559,0.023,1.012-0.419,1.028-0.972
		c0.016-0.552-0.419-1.012-0.972-1.028c-0.687-0.02-1.386-0.012-2.073,0.021c-0.552,0.025-0.979,0.493-0.953,1.045
		C25.741,2.112,26.184,2.53,26.715,2.53z"/>
	<path d="M1.044,30.358c0.552-0.018,0.985-0.479,0.969-1.031C2.004,29.054,1.999,28.78,2,28.5c0-0.369,0.008-0.736,0.022-1.101
		c0.022-0.552-0.406-1.018-0.958-1.04c-0.515-0.037-1.018,0.405-1.04,0.958C0.008,27.709,0,28.104,0,28.498
		c-0.001,0.298,0.004,0.596,0.013,0.892c0.018,0.541,0.461,0.969,0.999,0.969C1.023,30.358,1.033,30.358,1.044,30.358z"/>
	<path d="M15.251,5.695c0.16,0,0.322-0.038,0.473-0.119c0.557-0.3,1.138-0.584,1.727-0.846c0.505-0.225,0.731-0.815,0.508-1.32
		c-0.225-0.504-0.814-0.732-1.32-0.508c-0.634,0.282-1.26,0.589-1.861,0.912c-0.486,0.262-0.669,0.868-0.407,1.354
		C14.55,5.504,14.895,5.695,15.251,5.695z"/>
	<path d="M2.826,35.033c-0.158-0.612-0.297-1.245-0.411-1.879c-0.099-0.543-0.622-0.904-1.162-0.807
		c-0.544,0.099-0.904,0.619-0.807,1.162c0.124,0.683,0.273,1.364,0.444,2.025c0.116,0.45,0.522,0.749,0.967,0.749
		c0.083,0,0.167-0.01,0.252-0.032C2.644,36.114,2.965,35.568,2.826,35.033z"/>
	<path d="M1.296,24.373c0.063,0.012,0.126,0.018,0.188,0.018c0.471,0,0.89-0.333,0.981-0.813c0.118-0.618,0.264-1.25,0.432-1.877
		c0.144-0.533-0.173-1.081-0.707-1.225c-0.531-0.142-1.081,0.173-1.225,0.707c-0.181,0.674-0.337,1.353-0.465,2.02
		C0.398,23.745,0.753,24.268,1.296,24.373z"/>
	<path d="M48.61,12.65c0.196,0.257,0.493,0.392,0.794,0.392c0.212,0,0.427-0.067,0.607-0.207c0.438-0.336,0.521-0.964,0.185-1.401
		c-0.417-0.545-0.863-1.082-1.324-1.597c-0.368-0.412-1.003-0.446-1.412-0.078c-0.411,0.369-0.446,1.001-0.078,1.412
		C47.81,11.648,48.223,12.146,48.61,12.65z"/>
	<path d="M4.066,38.673c-0.216-0.508-0.804-0.746-1.312-0.528c-0.508,0.216-0.745,0.803-0.528,1.312
		c0.27,0.635,0.566,1.266,0.881,1.875c0.178,0.344,0.527,0.541,0.89,0.541c0.154,0,0.312-0.036,0.458-0.111
		c0.49-0.254,0.683-0.856,0.43-1.348C4.592,39.848,4.317,39.263,4.066,38.673z"/>
	<path d="M54.561,33.474c-0.535-0.118-1.073,0.219-1.194,0.757c-0.14,0.62-0.305,1.245-0.491,1.858
		c-0.161,0.528,0.136,1.087,0.664,1.248c0.098,0.03,0.195,0.044,0.292,0.044c0.429,0,0.825-0.277,0.956-0.708
		c0.202-0.661,0.381-1.336,0.53-2.005C55.439,34.129,55.1,33.595,54.561,33.474z"/>
	<path d="M53.948,26.853c0.034,0.545,0.051,1.095,0.052,1.647c0,0.641-0.023,1.288-0.069,1.925c-0.04,0.551,0.374,1.029,0.925,1.069
		c0.024,0.002,0.049,0.003,0.073,0.003c0.52,0,0.958-0.401,0.996-0.928C55.975,29.885,56,29.189,56,28.499
		c-0.001-0.594-0.02-1.185-0.056-1.771c-0.035-0.55-0.483-0.945-1.061-0.936C54.333,25.827,53.914,26.301,53.948,26.853z"/>
	<path d="M52.954,21.176c0.181,0.616,0.34,1.244,0.473,1.865c0.1,0.47,0.515,0.791,0.977,0.791c0.069,0,0.14-0.007,0.21-0.022
		c0.54-0.115,0.884-0.646,0.769-1.187c-0.143-0.67-0.313-1.346-0.508-2.01c-0.155-0.529-0.708-0.833-1.241-0.679
		C53.103,20.09,52.799,20.646,52.954,21.176z"/>
	<path d="M50.96,42.75c0.156,0.09,0.327,0.132,0.495,0.132c0.348,0,0.685-0.181,0.869-0.504c0.343-0.601,0.666-1.219,0.962-1.838
		c0.238-0.498,0.026-1.095-0.472-1.333c-0.498-0.239-1.096-0.027-1.333,0.472c-0.274,0.575-0.575,1.149-0.894,1.707
		C50.314,41.865,50.481,42.476,50.96,42.75z"/>
	<path d="M51.601,17.576c0.17,0.365,0.53,0.579,0.908,0.579c0.141,0,0.284-0.029,0.42-0.093c0.501-0.233,0.719-0.827,0.486-1.328
		c-0.291-0.626-0.607-1.246-0.941-1.845c-0.269-0.484-0.881-0.655-1.359-0.387c-0.482,0.269-0.656,0.877-0.388,1.359
		C51.037,16.418,51.331,16.996,51.601,17.576z"/>
	<path d="M44.613,8.499c0.187,0.155,0.413,0.23,0.638,0.23c0.287,0,0.572-0.123,0.771-0.361c0.353-0.425,0.294-1.055-0.131-1.408
		c-0.529-0.439-1.082-0.865-1.642-1.265c-0.448-0.321-1.074-0.217-1.395,0.232c-0.321,0.449-0.217,1.074,0.232,1.395
		C43.608,7.694,44.12,8.089,44.613,8.499z"/>
	<path d="M34.134,53.773c-0.625,0.151-1.26,0.279-1.887,0.382c-0.545,0.09-0.914,0.604-0.825,1.149
		c0.081,0.49,0.505,0.838,0.986,0.838c0.054,0,0.108-0.004,0.163-0.013c0.675-0.111,1.358-0.249,2.031-0.411
		c0.537-0.13,0.867-0.67,0.738-1.207C35.21,53.974,34.671,53.65,34.134,53.773z"/>
	<path d="M39.546,51.804c-0.574,0.284-1.164,0.551-1.753,0.791c-0.512,0.208-0.758,0.792-0.549,1.303
		c0.158,0.389,0.531,0.623,0.926,0.623c0.126,0,0.254-0.023,0.377-0.074c0.635-0.258,1.27-0.545,1.888-0.852
		c0.495-0.245,0.697-0.845,0.451-1.34C40.642,51.761,40.04,51.556,39.546,51.804z"/>
	<path d="M4.599,14.987c-0.484-0.258-1.093-0.073-1.352,0.416c-0.324,0.612-0.628,1.24-0.903,1.867
		c-0.222,0.506,0.009,1.096,0.515,1.317c0.131,0.057,0.267,0.084,0.4,0.084c0.386,0,0.752-0.224,0.917-0.599
		c0.255-0.581,0.537-1.165,0.839-1.734C5.274,15.851,5.087,15.246,4.599,14.987z"/>
	<path d="M40.705,3.542c-0.615-0.313-1.248-0.607-1.882-0.873c-0.509-0.216-1.096,0.025-1.309,0.535
		C37.301,3.714,37.54,4.3,38.05,4.513c0.588,0.247,1.176,0.52,1.747,0.811c0.146,0.074,0.301,0.109,0.453,0.109
		c0.364,0,0.715-0.199,0.892-0.546C41.393,4.395,41.197,3.793,40.705,3.542z"/>
	<path d="M22.674,53.955c-0.628-0.131-1.256-0.286-1.869-0.462c-0.533-0.154-1.085,0.154-1.236,0.686
		c-0.152,0.53,0.154,1.084,0.686,1.236c0.659,0.189,1.336,0.356,2.012,0.497c0.069,0.015,0.138,0.021,0.205,0.021
		c0.464,0,0.88-0.324,0.978-0.796C23.562,54.596,23.215,54.067,22.674,53.955z"/>
	<path d="M44.391,48.684c-0.498,0.405-1.016,0.795-1.538,1.159c-0.452,0.315-0.563,0.939-0.248,1.393
		c0.194,0.278,0.505,0.428,0.821,0.428c0.197,0,0.396-0.059,0.571-0.18c0.563-0.392,1.119-0.812,1.655-1.247
		c0.429-0.349,0.493-0.979,0.146-1.407C45.449,48.402,44.82,48.336,44.391,48.684z"/>
	<path d="M28.429,54.498c-0.004,0-0.009,0-0.014,0L28,54.5c-0.507,0-1.011-0.014-1.511-0.043c-0.561-0.016-1.025,0.389-1.057,0.939
		c-0.032,0.552,0.389,1.024,0.939,1.057C26.911,56.485,27.454,56.5,28,56.5l0.442-0.003c0.553-0.008,0.994-0.462,0.986-1.014
		C29.421,54.936,28.975,54.498,28.429,54.498z"/>
	<path d="M10.764,47.967c-0.412-0.366-1.046-0.331-1.411,0.085c-0.366,0.413-0.328,1.045,0.085,1.411
		c0.514,0.456,1.053,0.898,1.602,1.317c0.182,0.139,0.395,0.205,0.605,0.205c0.302,0,0.6-0.136,0.796-0.394
		c0.335-0.439,0.251-1.066-0.188-1.401C11.741,48.801,11.241,48.39,10.764,47.967z"/>
	<path d="M6.746,10.273c-0.452,0.527-0.887,1.072-1.292,1.621c-0.328,0.444-0.233,1.07,0.211,1.398
		c0.179,0.132,0.387,0.195,0.593,0.195c0.307,0,0.609-0.141,0.806-0.406c0.376-0.51,0.78-1.017,1.2-1.508
		c0.36-0.419,0.312-1.05-0.108-1.409C7.738,9.805,7.106,9.852,6.746,10.273z"/>
	<path d="M17.196,52.158c-0.583-0.267-1.162-0.559-1.721-0.866c-0.481-0.266-1.091-0.091-1.358,0.394
		c-0.267,0.483-0.091,1.092,0.394,1.358c0.602,0.332,1.226,0.646,1.854,0.933c0.135,0.062,0.276,0.091,0.415,0.091
		c0.38,0,0.742-0.217,0.91-0.584C17.919,52.981,17.698,52.387,17.196,52.158z"/>
	<path d="M6.897,43.692c-0.322-0.448-0.946-0.549-1.396-0.226c-0.448,0.322-0.549,0.948-0.226,1.396
		c0.4,0.556,0.829,1.105,1.272,1.634c0.197,0.236,0.48,0.357,0.767,0.357c0.227,0,0.454-0.077,0.642-0.234
		c0.423-0.354,0.479-0.985,0.123-1.408C7.667,44.719,7.27,44.208,6.897,43.692z"/>
	<path d="M11.282,6.036c-0.197,0.147-0.383,0.312-0.578,0.465H2c-0.553,0-1,0.447-1,1s0.447,1,1,1h7.428
		c0.039,0.085,0.075,0.171,0.139,0.245C9.687,8.884,9.839,8.967,10,9.022V16.5c0,0.553,0.447,1,1,1s1-0.447,1-1V8.023
		c0.161-0.126,0.314-0.262,0.478-0.384c0.442-0.329,0.534-0.956,0.204-1.399C12.352,5.799,11.727,5.704,11.282,6.036z"/>
	<path d="M28,16.5c-6.617,0-12,5.383-12,12s5.383,12,12,12s12-5.383,12-12S34.617,16.5,28,16.5z M28,38.5c-5.514,0-10-4.486-10-10
		s4.486-10,10-10s10,4.486,10,10S33.514,38.5,28,38.5z"/>
	<path d="M56,46.5h-6.576c0.194-0.231,0.397-0.451,0.583-0.688c0.342-0.435,0.268-1.063-0.166-1.404s-1.062-0.267-1.404,0.166
		c-0.14,0.177-0.293,0.341-0.438,0.515V38.5c0-0.553-0.447-1-1-1s-1,0.447-1,1v9c0,0.553,0.447,1,1,1h9c0.553,0,1-0.447,1-1
		S56.553,46.5,56,46.5z"/>
</g>
<g>
</g>
<g>
</g>
<g>
</g>
<g>
</g>
<g>
</g>
<g>
</g>
<g>
</g>
<g>
</g>
<g>
</g>
<g>
</g>
<g>
</g>
<g>
</g>
<g>
</g>
<g>
</g>
<g>
</g>
</svg>
