<?xml version="1.0" encoding="iso-8859-1"?>
<!-- Generator: Adobe Illustrator 18.0.0, SVG Export Plug-In . SVG Version: 6.00 Build 0)  -->
<!DOCTYPE svg PUBLIC "-//W3C//DTD SVG 1.1//EN" "http://www.w3.org/Graphics/SVG/1.1/DTD/svg11.dtd">
<svg version="1.1" id="Capa_1" xmlns="http://www.w3.org/2000/svg" xmlns:xlink="http://www.w3.org/1999/xlink" x="0px" y="0px"
	 viewBox="0 0 59.999 59.999" style="enable-background:new 0 0 59.999 59.999;" xml:space="preserve">
<g>
	<path d="M59.923,33.881c0.101-0.244,0.101-0.519,0-0.764c-0.051-0.123-0.125-0.234-0.217-0.327l-7.999-7.999
		c-0.391-0.391-1.023-0.391-1.414,0s-0.391,1.023,0,1.414l6.293,6.293H44.949c-0.52-8.356-7.465-15-15.949-15
		s-15.429,6.644-15.949,15H1c-0.552,0-1,0.447-1,1s0.448,1,1,1h13c0.552,0,1-0.447,1-1c0-7.72,6.28-14,14-14s14,6.28,14,14
		c0,0.553,0.448,1,1,1h12.586l-6.293,6.293c-0.391,0.391-0.391,1.023,0,1.414c0.195,0.195,0.451,0.293,0.707,0.293
		s0.512-0.098,0.707-0.293l7.999-7.999C59.799,34.115,59.872,34.004,59.923,33.881z"/>
	<path d="M29,24.499c-4.962,0-9,4.037-9,9s4.038,9,9,9s9-4.037,9-9S33.962,24.499,29,24.499z M29,40.499c-3.86,0-7-3.141-7-7
		s3.14-7,7-7s7,3.141,7,7S32.86,40.499,29,40.499z"/>
</g>
<g>
</g>
<g>
</g>
<g>
</g>
<g>
</g>
<g>
</g>
<g>
</g>
<g>
</g>
<g>
</g>
<g>
</g>
<g>
</g>
<g>
</g>
<g>
</g>
<g>
</g>
<g>
</g>
<g>
</g>
</svg>
