<?xml version="1.0" encoding="iso-8859-1"?>
<!-- Generator: Adobe Illustrator 18.0.0, SVG Export Plug-In . SVG Version: 6.00 Build 0)  -->
<!DOCTYPE svg PUBLIC "-//W3C//DTD SVG 1.1//EN" "http://www.w3.org/Graphics/SVG/1.1/DTD/svg11.dtd">
<svg version="1.1" id="Capa_1" xmlns="http://www.w3.org/2000/svg" xmlns:xlink="http://www.w3.org/1999/xlink" x="0px" y="0px"
	 viewBox="0 0 59.999 59.999" style="enable-background:new 0 0 59.999 59.999;" xml:space="preserve">
<path d="M59.923,41.618c-0.051-0.123-0.125-0.234-0.217-0.326l-7.999-7.999c-0.391-0.391-1.023-0.391-1.414,0s-0.391,1.023,0,1.414
	l6.293,6.293H33c-6.065,0-11-4.935-11-11s4.935-11,11-11h23.586l-6.293,6.293c-0.391,0.391-0.391,1.023,0,1.414
	c0.195,0.195,0.451,0.293,0.707,0.293s0.512-0.098,0.707-0.293l7.999-7.999c0.093-0.092,0.166-0.203,0.217-0.326
	c0.101-0.244,0.101-0.519,0-0.764c-0.051-0.123-0.125-0.234-0.217-0.326l-7.999-7.999c-0.391-0.391-1.023-0.391-1.414,0
	s-0.391,1.023,0,1.414l6.293,6.293H33c-5.4,0-10.039,3.311-12,8.008c-1.961-4.697-6.6-8.008-12-8.008H1c-0.553,0-1,0.447-1,1
	s0.447,1,1,1h8c6.065,0,11,4.935,11,11s-4.935,11-11,11H1c-0.553,0-1,0.447-1,1s0.447,1,1,1h8c5.4,0,10.039-3.311,12-8.008
	c1.961,4.697,6.6,8.008,12,8.008h23.586l-6.293,6.293c-0.391,0.391-0.391,1.023,0,1.414c0.195,0.195,0.451,0.293,0.707,0.293
	s0.512-0.098,0.707-0.293l7.999-7.999c0.093-0.092,0.166-0.203,0.217-0.326C60.024,42.137,60.024,41.862,59.923,41.618z"/>
<g>
</g>
<g>
</g>
<g>
</g>
<g>
</g>
<g>
</g>
<g>
</g>
<g>
</g>
<g>
</g>
<g>
</g>
<g>
</g>
<g>
</g>
<g>
</g>
<g>
</g>
<g>
</g>
<g>
</g>
</svg>
