<?xml version="1.0" encoding="iso-8859-1"?>
<!-- Generator: Adobe Illustrator 18.0.0, SVG Export Plug-In . SVG Version: 6.00 Build 0)  -->
<!DOCTYPE svg PUBLIC "-//W3C//DTD SVG 1.1//EN" "http://www.w3.org/Graphics/SVG/1.1/DTD/svg11.dtd">
<svg version="1.1" id="Capa_1" xmlns="http://www.w3.org/2000/svg" xmlns:xlink="http://www.w3.org/1999/xlink" x="0px" y="0px"
	 viewBox="0 0 52 52" style="enable-background:new 0 0 52 52;" xml:space="preserve">
<g>
	<path d="M40.417,9.923c0.245-0.101,0.44-0.296,0.541-0.541C41.008,9.26,41.035,9.13,41.035,9V1c0-0.553-0.448-1-1-1s-1,0.447-1,1
		v5.745c-4.101-3.37-9.189-5.219-14.552-5.245c-0.039,0-0.078,0-0.118,0c-6.108,0-11.84,2.37-16.15,6.681
		c-8.511,8.511-8.922,22.307-0.935,31.408c0.198,0.226,0.474,0.341,0.752,0.341c0.234,0,0.469-0.082,0.659-0.248
		c0.415-0.364,0.456-0.996,0.092-1.411C1.49,29.958,1.861,17.362,9.629,9.595C13.562,5.662,18.791,3.5,24.366,3.5
		c0.036,0,0.072,0,0.107,0c4.733,0.024,9.222,1.616,12.901,4.5h-6.34c-0.552,0-1,0.447-1,1s0.448,1,1,1h9
		C40.165,10,40.295,9.973,40.417,9.923z"/>
	<path d="M24.149,48.198c-0.621-0.105-1.249-0.241-1.866-0.404c-0.534-0.141-1.081,0.177-1.222,0.711s0.177,1.081,0.711,1.223
		c0.675,0.179,1.362,0.327,2.042,0.443c0.057,0.009,0.113,0.014,0.168,0.014c0.479,0,0.902-0.345,0.985-0.833
		C25.06,48.808,24.693,48.291,24.149,48.198z"/>
	<path d="M48.2,23.915c0.112,0.624,0.198,1.261,0.253,1.893c0.046,0.521,0.482,0.912,0.995,0.912c0.029,0,0.059-0.001,0.089-0.004
		c0.55-0.049,0.957-0.534,0.908-1.084c-0.061-0.691-0.154-1.388-0.277-2.07c-0.098-0.545-0.619-0.906-1.161-0.808
		C48.463,22.852,48.102,23.372,48.2,23.915z"/>
	<path d="M29.856,48.389c-0.633,0.065-1.274,0.102-1.903,0.108c-0.552,0.006-0.995,0.458-0.99,1.011
		c0.006,0.548,0.452,0.989,1,0.989c0.003,0,0.007,0,0.01,0c0.691-0.007,1.394-0.047,2.088-0.118
		c0.549-0.057,0.949-0.548,0.892-1.098C30.897,48.732,30.403,48.349,29.856,48.389z"/>
	<path d="M18.702,46.488c-0.576-0.271-1.143-0.569-1.686-0.89c-0.477-0.28-1.089-0.122-1.369,0.355
		c-0.28,0.476-0.121,1.089,0.354,1.369c0.596,0.351,1.218,0.679,1.849,0.976c0.138,0.064,0.283,0.095,0.425,0.095
		c0.375,0,0.735-0.212,0.905-0.574C19.416,47.319,19.201,46.724,18.702,46.488z"/>
	<path d="M47.188,20.238c0.15,0.401,0.531,0.648,0.936,0.648c0.117,0,0.235-0.021,0.351-0.063c0.517-0.194,0.779-0.771,0.585-1.288
		c-0.244-0.65-0.521-1.297-0.822-1.921c-0.24-0.498-0.839-0.704-1.335-0.466c-0.497,0.24-0.706,0.838-0.465,1.335
		C46.712,19.054,46.965,19.645,47.188,20.238z"/>
	<path d="M48.439,34.604c-0.514-0.194-1.094,0.059-1.292,0.574c-0.229,0.594-0.486,1.181-0.766,1.746
		c-0.245,0.494-0.042,1.095,0.452,1.34c0.143,0.07,0.294,0.104,0.443,0.104c0.369,0,0.723-0.204,0.897-0.557
		c0.307-0.619,0.589-1.264,0.84-1.914C49.211,35.382,48.954,34.803,48.439,34.604z"/>
	<path d="M44.783,12.403c-0.364-0.413-0.996-0.455-1.411-0.091c-0.415,0.364-0.456,0.996-0.091,1.411
		c0.419,0.477,0.821,0.978,1.194,1.489c0.196,0.268,0.5,0.41,0.809,0.41c0.205,0,0.411-0.063,0.589-0.192
		c0.446-0.326,0.543-0.951,0.218-1.397C45.682,13.474,45.242,12.925,44.783,12.403z"/>
	<path d="M49.533,28.719c-0.552-0.054-1.038,0.354-1.088,0.903c-0.059,0.632-0.147,1.268-0.263,1.891
		c-0.101,0.543,0.257,1.064,0.8,1.166c0.062,0.012,0.124,0.017,0.184,0.017c0.473,0,0.893-0.336,0.982-0.817
		c0.127-0.682,0.224-1.379,0.288-2.07C50.487,29.257,50.082,28.771,49.533,28.719z"/>
	<path d="M35.402,47.038c-0.593,0.234-1.2,0.442-1.804,0.619c-0.53,0.155-0.834,0.71-0.679,1.24c0.128,0.437,0.527,0.72,0.959,0.72
		c0.093,0,0.188-0.013,0.281-0.04c0.663-0.194,1.329-0.423,1.978-0.68c0.514-0.203,0.765-0.784,0.562-1.298
		C36.497,47.087,35.916,46.835,35.402,47.038z"/>
	<path d="M40.365,44.226c-0.503,0.386-1.03,0.752-1.565,1.089c-0.468,0.294-0.608,0.911-0.314,1.379
		c0.19,0.303,0.515,0.468,0.848,0.468c0.182,0,0.366-0.05,0.531-0.153c0.588-0.37,1.166-0.772,1.718-1.196
		c0.438-0.336,0.521-0.964,0.185-1.401C41.43,43.971,40.802,43.889,40.365,44.226z"/>
	<path d="M44.384,40.168c-0.38,0.505-0.788,1-1.214,1.471c-0.37,0.409-0.339,1.042,0.071,1.412c0.191,0.174,0.431,0.259,0.67,0.259
		c0.273,0,0.544-0.111,0.742-0.329c0.466-0.516,0.914-1.058,1.33-1.611c0.332-0.441,0.243-1.068-0.199-1.4
		C45.342,39.639,44.716,39.727,44.384,40.168z"/>
	<path d="M22.035,43c0-0.553-0.448-1-1-1h-9c-0.13,0-0.26,0.026-0.382,0.077c-0.245,0.101-0.44,0.296-0.541,0.541
		C11.062,42.74,11.035,42.87,11.035,43v8c0,0.553,0.448,1,1,1s1-0.447,1-1v-5.902c0.075,0.017,0.149,0.04,0.225,0.04
		c0.281,0,0.56-0.117,0.758-0.347c0.196-0.227,0.261-0.515,0.223-0.791h6.795C21.587,44,22.035,43.553,22.035,43z"/>
</g>
<g>
</g>
<g>
</g>
<g>
</g>
<g>
</g>
<g>
</g>
<g>
</g>
<g>
</g>
<g>
</g>
<g>
</g>
<g>
</g>
<g>
</g>
<g>
</g>
<g>
</g>
<g>
</g>
<g>
</g>
</svg>
