<?xml version="1.0" encoding="iso-8859-1"?>
<!-- Generator: Adobe Illustrator 18.0.0, SVG Export Plug-In . SVG Version: 6.00 Build 0)  -->
<!DOCTYPE svg PUBLIC "-//W3C//DTD SVG 1.1//EN" "http://www.w3.org/Graphics/SVG/1.1/DTD/svg11.dtd">
<svg version="1.1" id="Capa_1" xmlns="http://www.w3.org/2000/svg" xmlns:xlink="http://www.w3.org/1999/xlink" x="0px" y="0px"
	 viewBox="0 0 52 52" style="enable-background:new 0 0 52 52;" xml:space="preserve">
<g>
	<path d="M27.944,3.501c0.629,0.007,1.27,0.043,1.903,0.108c0.035,0.003,0.069,0.005,0.104,0.005c0.506,0,0.941-0.383,0.994-0.897
		c0.057-0.55-0.343-1.041-0.892-1.098c-0.694-0.071-1.397-0.111-2.088-0.118c-0.003,0-0.007,0-0.01,0c-0.548,0-0.994,0.441-1,0.989
		C26.949,3.043,27.392,3.495,27.944,3.501z"/>
	<path d="M22.018,4.241c0.084,0,0.17-0.011,0.256-0.033c0.613-0.162,1.241-0.299,1.867-0.406c0.544-0.093,0.91-0.609,0.817-1.154
		c-0.093-0.544-0.606-0.906-1.155-0.816c-0.684,0.117-1.37,0.266-2.041,0.443c-0.534,0.142-0.852,0.688-0.711,1.223
		C21.17,3.945,21.575,4.241,22.018,4.241z"/>
	<path d="M33.589,4.341c0.612,0.179,1.219,0.387,1.805,0.618c0.121,0.048,0.245,0.07,0.367,0.07c0.398,0,0.775-0.239,0.93-0.632
		c0.203-0.514-0.048-1.095-0.562-1.298c-0.642-0.254-1.308-0.482-1.979-0.679c-0.531-0.154-1.085,0.149-1.241,0.68
		C32.755,3.631,33.06,4.186,33.589,4.341z"/>
	<path d="M48.18,20.479c0.116,0.625,0.205,1.261,0.264,1.891c0.048,0.519,0.484,0.907,0.995,0.907c0.031,0,0.063-0.001,0.094-0.004
		c0.55-0.052,0.954-0.539,0.902-1.089c-0.064-0.69-0.162-1.387-0.289-2.07c-0.101-0.543-0.62-0.895-1.166-0.801
		C48.437,19.414,48.079,19.936,48.18,20.479z"/>
	<path d="M47.143,16.813c0.153,0.397,0.532,0.641,0.933,0.641c0.12,0,0.241-0.021,0.359-0.066c0.515-0.198,0.772-0.777,0.574-1.293
		c-0.248-0.643-0.53-1.287-0.84-1.914c-0.245-0.495-0.844-0.699-1.34-0.453c-0.495,0.245-0.698,0.845-0.453,1.34
		C46.659,15.64,46.918,16.227,47.143,16.813z"/>
	<path d="M16.501,6.544c0.172,0,0.346-0.044,0.505-0.138c0.55-0.322,1.118-0.622,1.688-0.892c0.5-0.235,0.713-0.832,0.478-1.331
		c-0.235-0.5-0.833-0.715-1.331-0.478c-0.625,0.295-1.246,0.623-1.847,0.976c-0.477,0.279-0.636,0.892-0.356,1.368
		C15.823,6.367,16.157,6.544,16.501,6.544z"/>
	<path d="M39.857,4.987c-0.467-0.292-1.084-0.154-1.379,0.314c-0.294,0.468-0.153,1.085,0.314,1.379
		c0.532,0.335,1.06,0.701,1.567,1.089c0.181,0.139,0.395,0.206,0.606,0.206c0.301,0,0.599-0.135,0.795-0.393
		c0.335-0.438,0.252-1.066-0.187-1.401C41.019,5.757,40.441,5.354,39.857,4.987z"/>
	<path d="M48.478,31.167c-0.518-0.19-1.093,0.069-1.287,0.586c-0.221,0.591-0.474,1.182-0.75,1.755
		c-0.24,0.498-0.031,1.096,0.466,1.335c0.14,0.067,0.288,0.1,0.434,0.1c0.372,0,0.729-0.208,0.901-0.565
		c0.303-0.629,0.58-1.275,0.822-1.923C49.258,31.937,48.995,31.36,48.478,31.167z"/>
	<path d="M49.538,25.275c-0.558-0.062-1.036,0.359-1.083,0.909c-0.055,0.63-0.14,1.267-0.253,1.893
		c-0.098,0.543,0.264,1.063,0.808,1.161c0.06,0.011,0.119,0.016,0.178,0.016c0.475,0,0.896-0.339,0.983-0.823
		c0.123-0.685,0.216-1.382,0.276-2.072C50.495,25.809,50.087,25.323,49.538,25.275z"/>
	<path d="M44.481,36.78c-0.376,0.514-0.778,1.015-1.195,1.489c-0.364,0.415-0.323,1.047,0.092,1.411
		c0.19,0.167,0.425,0.249,0.659,0.249c0.278,0,0.554-0.115,0.752-0.34c0.456-0.52,0.896-1.067,1.306-1.63
		c0.326-0.445,0.229-1.071-0.217-1.397C45.432,36.236,44.807,36.334,44.481,36.78z"/>
	<path d="M11.112,9.383c0.051,0.123,0.124,0.233,0.217,0.325h0c0.001,0.001,0.002,0.001,0.003,0.002
		c0.092,0.091,0.201,0.163,0.321,0.213C11.775,9.973,11.905,10,12.035,10h9c0.552,0,1-0.447,1-1s-0.448-1-1-1h-6.8
		c0.037-0.273-0.03-0.559-0.224-0.784c-0.249-0.291-0.627-0.389-0.976-0.31V1c0-0.553-0.448-1-1-1s-1,0.447-1,1v8c0,0,0,0,0,0.001
		C11.035,9.131,11.061,9.261,11.112,9.383z"/>
	<path d="M44.378,11.824c0.196,0.262,0.497,0.399,0.8,0.399c0.209,0,0.42-0.065,0.6-0.2c0.442-0.332,0.531-0.959,0.199-1.4
		c-0.417-0.556-0.866-1.099-1.332-1.612c-0.37-0.409-1.003-0.438-1.413-0.069c-0.409,0.371-0.44,1.004-0.069,1.413
		C43.588,10.822,43.997,11.317,44.378,11.824z"/>
	<path d="M40.417,42.077C40.294,42.026,40.165,42,40.035,42h-9c-0.552,0-1,0.447-1,1s0.448,1,1,1h6.34
		c-3.679,2.884-8.168,4.476-12.901,4.5c-5.582,0.04-10.886-2.137-14.845-6.095c-7.771-7.771-8.14-20.37-0.84-28.682
		c0.364-0.415,0.323-1.047-0.092-1.411c-0.415-0.364-1.046-0.323-1.411,0.091C-0.707,21.506-0.3,35.305,8.215,43.819
		c4.311,4.312,10.042,6.681,16.151,6.681c0.039,0,0.079,0,0.118,0c5.363-0.026,10.45-1.875,14.551-5.245V51c0,0.553,0.448,1,1,1
		s1-0.447,1-1v-8c0-0.13-0.027-0.26-0.077-0.382C40.856,42.373,40.661,42.178,40.417,42.077z"/>
</g>
<g>
</g>
<g>
</g>
<g>
</g>
<g>
</g>
<g>
</g>
<g>
</g>
<g>
</g>
<g>
</g>
<g>
</g>
<g>
</g>
<g>
</g>
<g>
</g>
<g>
</g>
<g>
</g>
<g>
</g>
</svg>
