<?xml version="1.0" encoding="iso-8859-1"?>
<!-- Generator: Adobe Illustrator 18.0.0, SVG Export Plug-In . SVG Version: 6.00 Build 0)  -->
<!DOCTYPE svg PUBLIC "-//W3C//DTD SVG 1.1//EN" "http://www.w3.org/Graphics/SVG/1.1/DTD/svg11.dtd">
<svg version="1.1" id="Capa_1" xmlns="http://www.w3.org/2000/svg" xmlns:xlink="http://www.w3.org/1999/xlink" x="0px" y="0px"
	 viewBox="0 0 59.999 59.999" style="enable-background:new 0 0 59.999 59.999;" xml:space="preserve">
<g>
	<path d="M59.923,32.881c0.101-0.244,0.101-0.519,0-0.764c-0.051-0.123-0.125-0.234-0.217-0.327l-7.999-7.999
		c-0.391-0.391-1.023-0.391-1.414,0s-0.391,1.023,0,1.414l6.293,6.293H45v-14H15v14H1c-0.553,0-1,0.447-1,1s0.447,1,1,1h15
		c0.553,0,1-0.447,1-1v-13h26v13c0,0.553,0.447,1,1,1h12.586l-6.293,6.293c-0.391,0.391-0.391,1.023,0,1.414
		c0.195,0.195,0.451,0.293,0.707,0.293s0.512-0.098,0.707-0.293l7.999-7.999C59.799,33.115,59.872,33.004,59.923,32.881z"/>
	<path d="M20,42.499h20v-20H20V42.499z M22,24.499h16v16H22V24.499z"/>
</g>
<g>
</g>
<g>
</g>
<g>
</g>
<g>
</g>
<g>
</g>
<g>
</g>
<g>
</g>
<g>
</g>
<g>
</g>
<g>
</g>
<g>
</g>
<g>
</g>
<g>
</g>
<g>
</g>
<g>
</g>
</svg>
