<?xml version="1.0" encoding="iso-8859-1"?>
<!-- Generator: Adobe Illustrator 18.0.0, SVG Export Plug-In . SVG Version: 6.00 Build 0)  -->
<!DOCTYPE svg PUBLIC "-//W3C//DTD SVG 1.1//EN" "http://www.w3.org/Graphics/SVG/1.1/DTD/svg11.dtd">
<svg version="1.1" id="Capa_1" xmlns="http://www.w3.org/2000/svg" xmlns:xlink="http://www.w3.org/1999/xlink" x="0px" y="0px"
	 viewBox="0 0 58 58" style="enable-background:new 0 0 58 58;" xml:space="preserve">
<g>
	<path d="M45.5,44c-3.86,0-7,3.141-7,7s3.14,7,7,7s7-3.141,7-7S49.36,44,45.5,44z M45.5,56c-2.757,0-5-2.243-5-5s2.243-5,5-5
		s5,2.243,5,5S48.257,56,45.5,56z"/>
	<path d="M50.793,30.293L46.5,34.586V13.92c3.387-0.488,6-3.401,6-6.92c0-3.859-3.14-7-7-7s-7,3.141-7,7c0,3.519,2.613,6.432,6,6.92
		v20.666l-4.293-4.293c-0.391-0.391-1.023-0.391-1.414,0s-0.391,1.023,0,1.414l6,6C44.988,37.902,45.244,38,45.5,38
		s0.512-0.098,0.707-0.293l6-6c0.391-0.391,0.391-1.023,0-1.414S51.184,29.902,50.793,30.293z M40.5,7c0-2.757,2.243-5,5-5
		s5,2.243,5,5s-2.243,5-5,5S40.5,9.757,40.5,7z"/>
	<path d="M33.423,50.618c-0.051-0.123-0.124-0.233-0.217-0.326l-5.999-5.999c-0.391-0.391-1.023-0.391-1.414,0s-0.391,1.023,0,1.414
		L30.086,50h-7.812c-4.838,0-8.774-3.937-8.774-8.774V13.92c3.387-0.488,6-3.401,6-6.92c0-3.859-3.14-7-7-7s-7,3.141-7,7
		c0,3.519,2.613,6.432,6,6.92v27.305C11.5,47.167,16.333,52,22.274,52h7.812l-4.293,4.293c-0.391,0.391-0.391,1.023,0,1.414
		C25.988,57.902,26.244,58,26.5,58s0.512-0.098,0.707-0.293l5.999-5.999c0.093-0.092,0.166-0.203,0.217-0.326
		C33.524,51.138,33.524,50.862,33.423,50.618z M7.5,7c0-2.757,2.243-5,5-5s5,2.243,5,5s-2.243,5-5,5S7.5,9.757,7.5,7z"/>
</g>
<g>
</g>
<g>
</g>
<g>
</g>
<g>
</g>
<g>
</g>
<g>
</g>
<g>
</g>
<g>
</g>
<g>
</g>
<g>
</g>
<g>
</g>
<g>
</g>
<g>
</g>
<g>
</g>
<g>
</g>
</svg>
