<?xml version="1.0" encoding="iso-8859-1"?>
<!-- Generator: Adobe Illustrator 18.0.0, SVG Export Plug-In . SVG Version: 6.00 Build 0)  -->
<!DOCTYPE svg PUBLIC "-//W3C//DTD SVG 1.1//EN" "http://www.w3.org/Graphics/SVG/1.1/DTD/svg11.dtd">
<svg version="1.1" id="Capa_1" xmlns="http://www.w3.org/2000/svg" xmlns:xlink="http://www.w3.org/1999/xlink" x="0px" y="0px"
	 viewBox="0 0 58 58" style="enable-background:new 0 0 58 58;" xml:space="preserve">
<g>
	<path d="M12.5,0c-3.86,0-7,3.141-7,7s3.14,7,7,7s7-3.141,7-7S16.36,0,12.5,0z M12.5,12c-2.757,0-5-2.243-5-5s2.243-5,5-5
		s5,2.243,5,5S15.257,12,12.5,12z"/>
	<path d="M17.793,27.707C17.988,27.902,18.244,28,18.5,28s0.512-0.098,0.707-0.293c0.391-0.391,0.391-1.023,0-1.414l-6-6
		c-0.391-0.391-1.023-0.391-1.414,0l-6,6c-0.391,0.391-0.391,1.023,0,1.414C5.988,27.902,6.244,28,6.5,28s0.512-0.098,0.707-0.293
		l4.293-4.293V44.08c-3.387,0.488-6,3.401-6,6.92c0,3.859,3.14,7,7,7s7-3.141,7-7c0-3.519-2.613-6.432-6-6.92V23.414L17.793,27.707z
		 M17.5,51c0,2.757-2.243,5-5,5s-5-2.243-5-5s2.243-5,5-5S17.5,48.243,17.5,51z"/>
	<path d="M46.5,44.08V42c0-0.553-0.448-1-1-1s-1,0.447-1,1v2.08c-3.387,0.488-6,3.401-6,6.92c0,3.859,3.14,7,7,7s7-3.141,7-7
		C52.5,47.481,49.887,44.568,46.5,44.08z M45.5,56c-2.757,0-5-2.243-5-5s2.243-5,5-5s5,2.243,5,5S48.257,56,45.5,56z"/>
	<path d="M27.914,8h0.396c0.552,0,1-0.447,1-1s-0.448-1-1-1h-0.396l4.293-4.293c0.391-0.391,0.391-1.023,0-1.414
		s-1.023-0.391-1.414,0l-6,6c-0.391,0.391-0.391,1.023,0,1.414l6,6C30.988,13.902,31.244,14,31.5,14s0.512-0.098,0.707-0.293
		c0.391-0.391,0.391-1.023,0-1.414L27.914,8z"/>
	<path d="M46.5,30c0-0.553-0.448-1-1-1s-1,0.447-1,1v2c0,0.553,0.448,1,1,1s1-0.447,1-1V30z"/>
	<path d="M45.5,35c-0.552,0-1,0.447-1,1v2c0,0.553,0.448,1,1,1s1-0.447,1-1v-2C46.5,35.447,46.052,35,45.5,35z"/>
	<path d="M46.5,23c0-0.553-0.448-1-1-1s-1,0.447-1,1v3c0,0.553,0.448,1,1,1s1-0.447,1-1V23z"/>
	<path d="M44.5,17v2c0,0.553,0.448,1,1,1s1-0.447,1-1v-2c0-0.553-0.448-1-1-1S44.5,16.447,44.5,17z"/>
	<path d="M41.009,9.55c0.329,0,0.65-0.162,0.842-0.458c0.299-0.465,0.165-1.083-0.299-1.383c-0.931-0.6-1.944-1.051-3.011-1.339
		c-0.535-0.144-1.083,0.171-1.226,0.705c-0.144,0.533,0.171,1.082,0.705,1.227c0.868,0.233,1.691,0.601,2.45,1.089
		C40.636,9.498,40.824,9.55,41.009,9.55z"/>
	<path d="M34.311,6h-2c-0.552,0-1,0.447-1,1s0.448,1,1,1h2c0.552,0,1-0.447,1-1S34.863,6,34.311,6z"/>
	<path d="M43.856,13.471c0.158,0.388,0.532,0.623,0.927,0.623c0.125,0,0.253-0.023,0.376-0.073c0.512-0.208,0.758-0.792,0.55-1.304
		c-0.275-0.678-0.624-1.331-1.034-1.942c-0.308-0.458-0.928-0.583-1.388-0.272c-0.458,0.308-0.581,0.929-0.272,1.388
		C43.349,12.387,43.632,12.919,43.856,13.471z"/>
</g>
<g>
</g>
<g>
</g>
<g>
</g>
<g>
</g>
<g>
</g>
<g>
</g>
<g>
</g>
<g>
</g>
<g>
</g>
<g>
</g>
<g>
</g>
<g>
</g>
<g>
</g>
<g>
</g>
<g>
</g>
</svg>
