<?xml version="1.0" encoding="iso-8859-1"?>
<!-- Generator: Adobe Illustrator 18.0.0, SVG Export Plug-In . SVG Version: 6.00 Build 0)  -->
<!DOCTYPE svg PUBLIC "-//W3C//DTD SVG 1.1//EN" "http://www.w3.org/Graphics/SVG/1.1/DTD/svg11.dtd">
<svg version="1.1" id="Capa_1" xmlns="http://www.w3.org/2000/svg" xmlns:xlink="http://www.w3.org/1999/xlink" x="0px" y="0px"
	 viewBox="0 0 58 58" style="enable-background:new 0 0 58 58;" xml:space="preserve">
<g>
	<path d="M45.5,14c3.859,0,7-3.141,7-7s-3.141-7-7-7s-7,3.141-7,7S41.641,14,45.5,14z M45.5,2c2.757,0,5,2.243,5,5s-2.243,5-5,5
		s-5-2.243-5-5S42.743,2,45.5,2z"/>
	<path d="M50.793,27.707C50.988,27.902,51.244,28,51.5,28s0.512-0.098,0.707-0.293c0.391-0.391,0.391-1.023,0-1.414l-6-6
		c-0.391-0.391-1.023-0.391-1.414,0l-6,6c-0.391,0.391-0.391,1.023,0,1.414C38.988,27.902,39.244,28,39.5,28
		s0.512-0.098,0.707-0.293l4.293-4.293V44.08c-3.386,0.488-6,3.401-6,6.92c0,3.859,3.141,7,7,7s7-3.141,7-7
		c0-3.519-2.614-6.432-6-6.92V23.414L50.793,27.707z M50.5,51c0,2.757-2.243,5-5,5s-5-2.243-5-5s2.243-5,5-5S50.5,48.243,50.5,51z"
		/>
	<path d="M33.423,50.618c-0.051-0.123-0.125-0.234-0.217-0.327l-5.999-5.999c-0.391-0.391-1.023-0.391-1.414,0s-0.391,1.023,0,1.414
		L30.086,50h-7.812c-4.838,0-8.774-3.937-8.774-8.774V13.92c3.386-0.488,6-3.401,6-6.92c0-3.859-3.141-7-7-7s-7,3.141-7,7
		c0,3.519,2.614,6.432,6,6.92v27.305C11.5,47.167,16.333,52,22.274,52h7.812l-4.293,4.293c-0.391,0.391-0.391,1.023,0,1.414
		C25.988,57.902,26.244,58,26.5,58s0.512-0.098,0.707-0.293l5.999-5.999c0.093-0.092,0.166-0.203,0.217-0.326
		C33.524,51.138,33.524,50.862,33.423,50.618z M7.5,7c0-2.757,2.243-5,5-5s5,2.243,5,5s-2.243,5-5,5S7.5,9.757,7.5,7z"/>
</g>
<g>
</g>
<g>
</g>
<g>
</g>
<g>
</g>
<g>
</g>
<g>
</g>
<g>
</g>
<g>
</g>
<g>
</g>
<g>
</g>
<g>
</g>
<g>
</g>
<g>
</g>
<g>
</g>
<g>
</g>
</svg>
