<?xml version="1.0" encoding="iso-8859-1"?>
<!-- Generator: Adobe Illustrator 18.0.0, SVG Export Plug-In . SVG Version: 6.00 Build 0)  -->
<!DOCTYPE svg PUBLIC "-//W3C//DTD SVG 1.1//EN" "http://www.w3.org/Graphics/SVG/1.1/DTD/svg11.dtd">
<svg version="1.1" id="Capa_1" xmlns="http://www.w3.org/2000/svg" xmlns:xlink="http://www.w3.org/1999/xlink" x="0px" y="0px"
	 viewBox="0 0 58 58" style="enable-background:new 0 0 58 58;" xml:space="preserve">
<g>
	<path d="M12.5,44c-3.859,0-7,3.141-7,7s3.141,7,7,7s7-3.141,7-7S16.359,44,12.5,44z M12.5,56c-2.757,0-5-2.243-5-5s2.243-5,5-5
		s5,2.243,5,5S15.257,56,12.5,56z"/>
	<path d="M19.5,7c0-3.859-3.141-7-7-7s-7,3.141-7,7c0,3.519,2.614,6.432,6,6.92v20.666l-4.293-4.293
		c-0.391-0.391-1.023-0.391-1.414,0s-0.391,1.023,0,1.414l6,6C11.988,37.902,12.244,38,12.5,38s0.512-0.098,0.707-0.293l6-6
		c0.391-0.391,0.391-1.023,0-1.414s-1.023-0.391-1.414,0L13.5,34.586V13.92C16.886,13.432,19.5,10.519,19.5,7z M7.5,7
		c0-2.757,2.243-5,5-5s5,2.243,5,5s-2.243,5-5,5S7.5,9.757,7.5,7z"/>
	<path d="M46.5,44.08V16.774C46.5,10.833,41.667,6,35.726,6h-7.812l4.293-4.293c0.391-0.391,0.391-1.023,0-1.414
		s-1.023-0.391-1.414,0l-5.999,5.999c-0.093,0.092-0.166,0.203-0.217,0.326c-0.101,0.244-0.101,0.52,0,0.764
		c0.051,0.123,0.124,0.234,0.217,0.326l5.999,5.999C30.988,13.902,31.244,14,31.5,14s0.512-0.098,0.707-0.293
		c0.391-0.391,0.391-1.023,0-1.414L27.914,8h7.812c4.838,0,8.774,3.937,8.774,8.774V44.08c-3.386,0.488-6,3.401-6,6.92
		c0,3.859,3.141,7,7,7s7-3.141,7-7C52.5,47.481,49.886,44.568,46.5,44.08z M45.5,56c-2.757,0-5-2.243-5-5s2.243-5,5-5s5,2.243,5,5
		S48.257,56,45.5,56z"/>
</g>
<g>
</g>
<g>
</g>
<g>
</g>
<g>
</g>
<g>
</g>
<g>
</g>
<g>
</g>
<g>
</g>
<g>
</g>
<g>
</g>
<g>
</g>
<g>
</g>
<g>
</g>
<g>
</g>
<g>
</g>
</svg>
