<?xml version="1.0" encoding="iso-8859-1"?>
<!-- Generator: Adobe Illustrator 18.0.0, SVG Export Plug-In . SVG Version: 6.00 Build 0)  -->
<!DOCTYPE svg PUBLIC "-//W3C//DTD SVG 1.1//EN" "http://www.w3.org/Graphics/SVG/1.1/DTD/svg11.dtd">
<svg version="1.1" id="Capa_1" xmlns="http://www.w3.org/2000/svg" xmlns:xlink="http://www.w3.org/1999/xlink" x="0px" y="0px"
	 viewBox="0 0 58 58" style="enable-background:new 0 0 58 58;" xml:space="preserve">
<g>
	<path d="M45.5,44c-3.86,0-7,3.141-7,7s3.14,7,7,7s7-3.141,7-7S49.36,44,45.5,44z M45.5,56c-2.757,0-5-2.243-5-5s2.243-5,5-5
		s5,2.243,5,5S48.257,56,45.5,56z"/>
	<path d="M50.793,30.293L46.5,34.586V13.92c3.387-0.488,6-3.401,6-6.92c0-3.859-3.14-7-7-7s-7,3.141-7,7c0,3.519,2.613,6.432,6,6.92
		v20.666l-4.293-4.293c-0.391-0.391-1.023-0.391-1.414,0s-0.391,1.023,0,1.414l6,6C44.988,37.902,45.244,38,45.5,38
		s0.512-0.098,0.707-0.293l6-6c0.391-0.391,0.391-1.023,0-1.414S51.184,29.902,50.793,30.293z M40.5,7c0-2.757,2.243-5,5-5
		s5,2.243,5,5s-2.243,5-5,5S40.5,9.757,40.5,7z"/>
	<path d="M27.207,44.293c-0.391-0.391-1.023-0.391-1.414,0s-0.391,1.023,0,1.414L30.086,50h-0.396c-0.552,0-1,0.447-1,1s0.448,1,1,1
		h0.396l-4.293,4.293c-0.391,0.391-0.391,1.023,0,1.414C25.988,57.902,26.244,58,26.5,58s0.512-0.098,0.707-0.293l6-6
		c0.391-0.391,0.391-1.023,0-1.414L27.207,44.293z"/>
	<path d="M13.5,20c0-0.553-0.448-1-1-1s-1,0.447-1,1v2c0,0.553,0.448,1,1,1s1-0.447,1-1V20z"/>
	<path d="M13.5,26c0-0.553-0.448-1-1-1s-1,0.447-1,1v2c0,0.553,0.448,1,1,1s1-0.447,1-1V26z"/>
	<path d="M11.5,16c0,0.553,0.448,1,1,1s1-0.447,1-1v-2.08c3.387-0.488,6-3.401,6-6.92c0-3.859-3.14-7-7-7s-7,3.141-7,7
		c0,3.519,2.613,6.432,6,6.92V16z M7.5,7c0-2.757,2.243-5,5-5s5,2.243,5,5s-2.243,5-5,5S7.5,9.757,7.5,7z"/>
	<path d="M12.5,31c-0.552,0-1,0.447-1,1v3c0,0.553,0.448,1,1,1s1-0.447,1-1v-3C13.5,31.447,13.052,31,12.5,31z"/>
	<path d="M19.981,49.698c-0.868-0.233-1.691-0.601-2.45-1.089c-0.465-0.298-1.083-0.164-1.382,0.299
		c-0.299,0.465-0.165,1.083,0.299,1.383c0.931,0.6,1.944,1.051,3.011,1.339c0.087,0.023,0.175,0.034,0.261,0.034
		c0.441,0,0.845-0.293,0.965-0.739C20.83,50.392,20.514,49.843,19.981,49.698z"/>
	<path d="M26.689,51c0-0.553-0.448-1-1-1h-2c-0.552,0-1,0.447-1,1s0.448,1,1,1h2C26.242,52,26.689,51.553,26.689,51z"/>
	<path d="M14.144,44.529c-0.208-0.511-0.794-0.758-1.303-0.55c-0.512,0.208-0.758,0.792-0.55,1.304
		c0.275,0.678,0.624,1.331,1.034,1.942c0.193,0.287,0.509,0.442,0.831,0.442c0.191,0,0.385-0.055,0.557-0.17
		c0.458-0.308,0.581-0.929,0.272-1.388C14.651,45.613,14.368,45.081,14.144,44.529z"/>
	<path d="M13.5,41v-2c0-0.553-0.448-1-1-1s-1,0.447-1,1v2c0,0.553,0.448,1,1,1S13.5,41.553,13.5,41z"/>
</g>
<g>
</g>
<g>
</g>
<g>
</g>
<g>
</g>
<g>
</g>
<g>
</g>
<g>
</g>
<g>
</g>
<g>
</g>
<g>
</g>
<g>
</g>
<g>
</g>
<g>
</g>
<g>
</g>
<g>
</g>
</svg>
