<?xml version="1.0" encoding="iso-8859-1"?>
<!-- Generator: Adobe Illustrator 18.0.0, SVG Export Plug-In . SVG Version: 6.00 Build 0)  -->
<!DOCTYPE svg PUBLIC "-//W3C//DTD SVG 1.1//EN" "http://www.w3.org/Graphics/SVG/1.1/DTD/svg11.dtd">
<svg version="1.1" id="Capa_1" xmlns="http://www.w3.org/2000/svg" xmlns:xlink="http://www.w3.org/1999/xlink" x="0px" y="0px"
	 viewBox="0 0 58 58" style="enable-background:new 0 0 58 58;" xml:space="preserve">
<g>
	<path d="M12.5,0c-3.86,0-7,3.141-7,7s3.14,7,7,7s7-3.141,7-7S16.36,0,12.5,0z M12.5,12c-2.757,0-5-2.243-5-5s2.243-5,5-5
		s5,2.243,5,5S15.257,12,12.5,12z"/>
	<path d="M17.793,27.707C17.988,27.902,18.244,28,18.5,28s0.512-0.098,0.707-0.293c0.391-0.391,0.391-1.023,0-1.414l-6-6
		c-0.391-0.391-1.023-0.391-1.414,0l-6,6c-0.391,0.391-0.391,1.023,0,1.414C5.988,27.902,6.244,28,6.5,28s0.512-0.098,0.707-0.293
		l4.293-4.293V44.08c-3.387,0.488-6,3.401-6,6.92c0,3.859,3.14,7,7,7s7-3.141,7-7c0-3.519-2.613-6.432-6-6.92V23.414L17.793,27.707z
		 M17.5,51c0,2.757-2.243,5-5,5s-5-2.243-5-5s2.243-5,5-5S17.5,48.243,17.5,51z"/>
	<path d="M46.5,44.08V16.774C46.5,10.833,41.667,6,35.726,6h-7.812l4.293-4.293c0.391-0.391,0.391-1.023,0-1.414
		s-1.023-0.391-1.414,0l-5.999,5.999c-0.093,0.092-0.166,0.203-0.217,0.326c-0.101,0.244-0.101,0.52,0,0.764
		c0.051,0.123,0.124,0.233,0.217,0.326l5.999,5.999C30.988,13.902,31.244,14,31.5,14s0.512-0.098,0.707-0.293
		c0.391-0.391,0.391-1.023,0-1.414L27.914,8h7.812c4.838,0,8.774,3.937,8.774,8.774V44.08c-3.387,0.488-6,3.401-6,6.92
		c0,3.859,3.14,7,7,7s7-3.141,7-7C52.5,47.481,49.887,44.568,46.5,44.08z M45.5,56c-2.757,0-5-2.243-5-5s2.243-5,5-5s5,2.243,5,5
		S48.257,56,45.5,56z"/>
</g>
<g>
</g>
<g>
</g>
<g>
</g>
<g>
</g>
<g>
</g>
<g>
</g>
<g>
</g>
<g>
</g>
<g>
</g>
<g>
</g>
<g>
</g>
<g>
</g>
<g>
</g>
<g>
</g>
<g>
</g>
</svg>
