<?xml version="1.0" encoding="iso-8859-1"?>
<!-- Generator: Adobe Illustrator 18.0.0, SVG Export Plug-In . SVG Version: 6.00 Build 0)  -->
<!DOCTYPE svg PUBLIC "-//W3C//DTD SVG 1.1//EN" "http://www.w3.org/Graphics/SVG/1.1/DTD/svg11.dtd">
<svg version="1.1" id="Capa_1" xmlns="http://www.w3.org/2000/svg" xmlns:xlink="http://www.w3.org/1999/xlink" x="0px" y="0px"
	 viewBox="0 0 58 58" style="enable-background:new 0 0 58 58;" xml:space="preserve">
<g>
	<path d="M12.5,44c-3.859,0-7,3.141-7,7s3.141,7,7,7s7-3.141,7-7S16.359,44,12.5,44z M12.5,56c-2.757,0-5-2.243-5-5s2.243-5,5-5
		s5,2.243,5,5S15.257,56,12.5,56z"/>
	<path d="M19.5,7c0-3.859-3.141-7-7-7s-7,3.141-7,7c0,3.519,2.614,6.432,6,6.92v21.666l-4.293-4.293
		c-0.391-0.391-1.023-0.391-1.414,0s-0.391,1.023,0,1.414l6,6C11.988,38.902,12.244,39,12.5,39s0.512-0.098,0.707-0.293l6-6
		c0.391-0.391,0.391-1.023,0-1.414s-1.023-0.391-1.414,0L13.5,35.586V13.92C16.886,13.432,19.5,10.519,19.5,7z M7.5,7
		c0-2.757,2.243-5,5-5s5,2.243,5,5s-2.243,5-5,5S7.5,9.757,7.5,7z"/>
	<path d="M46.5,44.08V42c0-0.553-0.447-1-1-1s-1,0.447-1,1v2.08c-3.386,0.488-6,3.401-6,6.92c0,3.859,3.141,7,7,7s7-3.141,7-7
		C52.5,47.481,49.886,44.568,46.5,44.08z M45.5,56c-2.757,0-5-2.243-5-5s2.243-5,5-5s5,2.243,5,5S48.257,56,45.5,56z"/>
	<path d="M27.914,8h0.396c0.553,0,1-0.447,1-1s-0.447-1-1-1h-0.396l4.293-4.293c0.391-0.391,0.391-1.023,0-1.414
		s-1.023-0.391-1.414,0l-6,6c-0.391,0.391-0.391,1.023,0,1.414l6,6C30.988,13.902,31.244,14,31.5,14s0.512-0.098,0.707-0.293
		c0.391-0.391,0.391-1.023,0-1.414L27.914,8z"/>
	<path d="M44.5,17v2c0,0.553,0.447,1,1,1s1-0.447,1-1v-2c0-0.553-0.447-1-1-1S44.5,16.447,44.5,17z"/>
	<path d="M45.5,35c-0.553,0-1,0.447-1,1v2c0,0.553,0.447,1,1,1s1-0.447,1-1v-2C46.5,35.447,46.053,35,45.5,35z"/>
	<path d="M46.5,30c0-0.553-0.447-1-1-1s-1,0.447-1,1v2c0,0.553,0.447,1,1,1s1-0.447,1-1V30z"/>
	<path d="M46.5,23c0-0.553-0.447-1-1-1s-1,0.447-1,1v3c0,0.553,0.447,1,1,1s1-0.447,1-1V23z"/>
	<path d="M41.009,9.55c0.328,0,0.65-0.162,0.842-0.458c0.299-0.465,0.165-1.083-0.299-1.383c-0.932-0.6-1.944-1.05-3.012-1.339
		c-0.529-0.144-1.082,0.171-1.227,0.705c-0.144,0.533,0.172,1.082,0.705,1.227c0.868,0.234,1.692,0.601,2.449,1.089
		C40.636,9.498,40.823,9.55,41.009,9.55z"/>
	<path d="M43.856,13.471c0.158,0.388,0.532,0.623,0.927,0.623c0.126,0,0.253-0.023,0.377-0.073c0.512-0.208,0.758-0.792,0.55-1.304
		c-0.275-0.677-0.623-1.33-1.033-1.942c-0.309-0.46-0.929-0.582-1.388-0.274s-0.581,0.929-0.274,1.388
		C43.35,12.387,43.633,12.92,43.856,13.471z"/>
	<path d="M34.311,6h-2c-0.553,0-1,0.447-1,1s0.447,1,1,1h2c0.553,0,1-0.447,1-1S34.863,6,34.311,6z"/>
</g>
<g>
</g>
<g>
</g>
<g>
</g>
<g>
</g>
<g>
</g>
<g>
</g>
<g>
</g>
<g>
</g>
<g>
</g>
<g>
</g>
<g>
</g>
<g>
</g>
<g>
</g>
<g>
</g>
<g>
</g>
</svg>
