<?xml version="1.0" encoding="iso-8859-1"?>
<!-- Generator: Adobe Illustrator 18.0.0, SVG Export Plug-In . SVG Version: 6.00 Build 0)  -->
<!DOCTYPE svg PUBLIC "-//W3C//DTD SVG 1.1//EN" "http://www.w3.org/Graphics/SVG/1.1/DTD/svg11.dtd">
<svg version="1.1" id="Capa_1" xmlns="http://www.w3.org/2000/svg" xmlns:xlink="http://www.w3.org/1999/xlink" x="0px" y="0px"
	 viewBox="0 0 59.999 59.999" style="enable-background:new 0 0 59.999 59.999;" xml:space="preserve">
<path d="M59.923,43.618c-0.051-0.123-0.125-0.234-0.217-0.327l-5.999-5.999c-0.391-0.391-1.023-0.391-1.414,0s-0.391,1.023,0,1.414
	l4.293,4.293H44.158c2.426-3.749,3.842-8.211,3.842-13c0-4.37-1.18-8.467-3.229-12h11.815l-4.293,4.293
	c-0.391,0.391-0.391,1.023,0,1.414c0.195,0.195,0.451,0.293,0.707,0.293s0.512-0.098,0.707-0.293l5.999-5.999
	c0.093-0.092,0.166-0.203,0.217-0.326c0.101-0.244,0.101-0.519,0-0.764c-0.051-0.123-0.125-0.234-0.217-0.327l-5.999-5.999
	c-0.391-0.391-1.023-0.391-1.414,0s-0.391,1.023,0,1.414l4.293,4.293H43.475c-4.362-6.05-11.464-10-19.475-10
	c-13.233,0-24,10.767-24,24s10.767,24,24,24c7.561,0,14.313-3.518,18.715-9h13.871l-4.293,4.293c-0.391,0.391-0.391,1.023,0,1.414
	c0.195,0.195,0.451,0.293,0.707,0.293s0.512-0.098,0.707-0.293l5.999-5.999c0.093-0.092,0.166-0.203,0.217-0.326
	C60.024,44.137,60.024,43.862,59.923,43.618z M24,51.999c-12.131,0-22-9.869-22-22s9.869-22,22-22c6.817,0,12.919,3.117,16.958,8H28
	c-0.553,0-1,0.447-1,1s0.447,1,1,1h14.425c2.257,3.454,3.575,7.575,3.575,12c0,4.86-1.587,9.355-4.266,13H28c-0.553,0-1,0.447-1,1
	s0.447,1,1,1h12.073C36.054,49.302,30.338,51.999,24,51.999z"/>
<g>
</g>
<g>
</g>
<g>
</g>
<g>
</g>
<g>
</g>
<g>
</g>
<g>
</g>
<g>
</g>
<g>
</g>
<g>
</g>
<g>
</g>
<g>
</g>
<g>
</g>
<g>
</g>
<g>
</g>
</svg>
