<?xml version="1.0" encoding="iso-8859-1"?>
<!-- Generator: Adobe Illustrator 18.0.0, SVG Export Plug-In . SVG Version: 6.00 Build 0)  -->
<!DOCTYPE svg PUBLIC "-//W3C//DTD SVG 1.1//EN" "http://www.w3.org/Graphics/SVG/1.1/DTD/svg11.dtd">
<svg version="1.1" id="Capa_1" xmlns="http://www.w3.org/2000/svg" xmlns:xlink="http://www.w3.org/1999/xlink" x="0px" y="0px"
	 viewBox="0 0 46.999 46.999" style="enable-background:new 0 0 46.999 46.999;" xml:space="preserve">
<g>
	<path d="M12.206,13.706L22.499,3.413v30.586c0,0.553,0.447,1,1,1s1-0.447,1-1V3.413l10.293,10.293
		c0.195,0.195,0.451,0.293,0.707,0.293s0.512-0.098,0.707-0.293c0.391-0.391,0.391-1.023,0-1.414L24.208,0.293
		c-0.092-0.093-0.203-0.166-0.327-0.217c-0.244-0.101-0.519-0.101-0.764,0c-0.123,0.051-0.234,0.125-0.326,0.217L10.792,12.292
		c-0.391,0.391-0.391,1.023,0,1.414S11.816,14.096,12.206,13.706z"/>
	<path d="M1.499,42.999h44c0.553,0,1-0.447,1-1s-0.447-1-1-1h-44c-0.553,0-1,0.447-1,1S0.947,42.999,1.499,42.999z"/>
	<path d="M45.499,44.999h-44c-0.553,0-1,0.447-1,1s0.447,1,1,1h44c0.553,0,1-0.447,1-1S46.052,44.999,45.499,44.999z"/>
</g>
<g>
</g>
<g>
</g>
<g>
</g>
<g>
</g>
<g>
</g>
<g>
</g>
<g>
</g>
<g>
</g>
<g>
</g>
<g>
</g>
<g>
</g>
<g>
</g>
<g>
</g>
<g>
</g>
<g>
</g>
</svg>
