<?xml version="1.0" encoding="iso-8859-1"?>
<!-- Generator: Adobe Illustrator 18.0.0, SVG Export Plug-In . SVG Version: 6.00 Build 0)  -->
<!DOCTYPE svg PUBLIC "-//W3C//DTD SVG 1.1//EN" "http://www.w3.org/Graphics/SVG/1.1/DTD/svg11.dtd">
<svg version="1.1" id="Capa_1" xmlns="http://www.w3.org/2000/svg" xmlns:xlink="http://www.w3.org/1999/xlink" x="0px" y="0px"
	 viewBox="0 0 52.499 52.499" style="enable-background:new 0 0 52.499 52.499;" xml:space="preserve">
<path d="M44.46,52.499c-5.518,0-15.796-1.473-23.836-11.134c-0.194-0.197-5.721-6.08-5.631-18.843H1.548L24.093,0l22.49,22.522
	H32.949c-0.547,3.454-1.559,17.552,15.75,27.853l2.252,1.341l-2.573,0.5C48.33,52.226,46.837,52.499,44.46,52.499z M6.38,20.522
	h10.662l-0.03,1.03c-0.379,12.57,5.048,18.424,5.103,18.481c7.951,9.552,18.195,10.595,23.058,10.461
	c-17.898-12.266-14.063-29.034-14.021-29.21l0.187-0.763h10.421L24.091,2.828L6.38,20.522z"/>
<g>
</g>
<g>
</g>
<g>
</g>
<g>
</g>
<g>
</g>
<g>
</g>
<g>
</g>
<g>
</g>
<g>
</g>
<g>
</g>
<g>
</g>
<g>
</g>
<g>
</g>
<g>
</g>
<g>
</g>
</svg>
