<?xml version="1.0" encoding="utf-8"?>
<!-- Generator: Fusion 360, Shaper Origin Export Add-In, Version 1.5.0  -->
<svg enable-background="new 0 0 57.1536701 8.3267028" height="8.3267028cm" shaper:fusionaddin="version:1.5.0" version="1.1" viewBox="0 0 57.1536701 8.3267028" width="57.1536701cm" x="0cm" xml:space="preserve" xmlns="http://www.w3.org/2000/svg" xmlns:shaper="http://www.shapertools.com/namespaces/shaper" xmlns:xlink="http://www.w3.org/1999/xlink" y="0cm"><path d="M29.2366413,-71.8460051 L34.6030503,-72.448073 36.804478,-73.8222155 32.6989915,-74.6178396 26.5834502,-73.8220082 25.3154944,-72.448073 29.2366413,-71.8460051z" fill="none" shaper:cutDepth="0" shaper:pathType="guide" stroke="rgb(100,100,100)" transform="matrix(1,0,0,-1,15.8768352,-66.2911368)" vector-effect="non-scaling-stroke" /><path d="M19.3369502,-69.2653204 L15.8770536,-69.6708673 16.1264895,-70.5272782 20.4216888,-71.0075979 24.1106453,-70.5268834 23.2799924,-69.6705149 19.3369502,-69.2653204z" fill="none" shaper:cutDepth="0" shaper:pathType="guide" stroke="rgb(100,100,100)" transform="matrix(1,0,0,-1,15.8768352,-66.2911368)" vector-effect="non-scaling-stroke" /><path d="M32.6108511,-69.2848905 L29.6341,-69.6688232 30.9636246,-70.5249103 35.8650667,-71.0054305 38.9477805,-70.5251765 37.0370388,-69.6688982 32.6108511,-69.2848905z" fill="none" shaper:cutDepth="0" shaper:pathType="guide" stroke="rgb(100,100,100)" transform="matrix(1,0,0,-1,15.8768352,-66.2911368)" vector-effect="non-scaling-stroke" /><path d="M21.5977782,-68.4107756 L25.2781692,-68.7319774 28.148343,-68.4106468 27.2134646,-67.8262652 23.2793717,-67.6105065 21.0593166,-67.8264099 21.5977782,-68.4107756z" fill="none" shaper:cutDepth="0" shaper:pathType="guide" stroke="rgb(100,100,100)" transform="matrix(1,0,0,-1,15.8768352,-66.2911368)" vector-effect="non-scaling-stroke" /><path d="M12.6999998,-67.5619977 L15.7770738,-67.8283746 15.9752822,-68.412833 12.6999998,-68.7344085 9.4247174,-68.412833 9.6229258,-67.8283746 12.6999998,-67.5619977z" fill="none" shaper:cutDepth="0" shaper:pathType="guide" stroke="rgb(100,100,100)" transform="matrix(1,0,0,-1,15.8768352,-66.2911368)" vector-effect="non-scaling-stroke" /><path d="M-1.813465,-67.8262652 L2.1206279,-67.6105065 4.340683,-67.8264099 3.8022214,-68.4107756 0.1218305,-68.7319774 -2.7483434,-68.4106468 -1.813465,-67.8262652z" fill="none" shaper:cutDepth="0" shaper:pathType="guide" stroke="rgb(100,100,100)" transform="matrix(1,0,0,-1,15.8768352,-66.2911368)" vector-effect="non-scaling-stroke" /><path d="M-5.563625,-70.5249103 L-4.2341004,-69.6688232 -7.2108515,-69.2848905 -11.6370391,-69.6688982 -13.5477809,-70.5251765 -10.465067,-71.0054305 -5.563625,-70.5249103z" fill="none" shaper:cutDepth="0" shaper:pathType="guide" stroke="rgb(100,100,100)" transform="matrix(1,0,0,-1,15.8768352,-66.2911368)" vector-effect="non-scaling-stroke" /><path d="M2.1200072,-69.6705149 L1.2893543,-70.5268834 4.9783109,-71.0075979 9.2735102,-70.5272782 9.522946,-69.6708673 6.0630494,-69.2653204 2.1200072,-69.6705149z" fill="none" shaper:cutDepth="0" shaper:pathType="guide" stroke="rgb(100,100,100)" transform="matrix(1,0,0,-1,15.8768352,-66.2911368)" vector-effect="non-scaling-stroke" /><path d="M0.0845052,-72.448073 L-3.8366417,-71.8460051 -9.2030507,-72.448073 -11.4044784,-73.8222155 -7.2989919,-74.6178396 -1.1834505,-73.8220082 0.0845052,-72.448073z" fill="none" shaper:cutDepth="0" shaper:pathType="guide" stroke="rgb(100,100,100)" transform="matrix(1,0,0,-1,15.8768352,-66.2911368)" vector-effect="non-scaling-stroke" /><path d="M38.6498554,-67.8247091 L34.9010184,-67.5366747 32.4957074,-67.8245974 33.770839,-68.4087416 37.8563385,-68.7300273 40.3214038,-68.4089806 38.6498554,-67.8247091z" fill="none" shaper:cutDepth="0" shaper:pathType="guide" stroke="rgb(100,100,100)" transform="matrix(1,0,0,-1,15.8768352,-66.2911368)" vector-effect="non-scaling-stroke" /><path d="M27.0080471,-66.2911368 L24.7455638,-66.5131442 25.4033626,-66.9371632 28.6146164,-67.1669652 30.9567854,-66.9371385 30.0108587,-66.5131442 27.0080471,-66.2911368z" fill="none" shaper:cutDepth="0" shaper:pathType="guide" stroke="rgb(100,100,100)" transform="matrix(1,0,0,-1,15.8768352,-66.2911368)" vector-effect="non-scaling-stroke" /><path d="M20.6367359,-66.9389089 L18.004872,-67.1688984 15.0833132,-66.9391456 14.9599017,-66.514998 17.4693489,-66.3188368 20.22576,-66.5147872 20.6367359,-66.9389089z" fill="none" shaper:cutDepth="0" shaper:pathType="guide" stroke="rgb(100,100,100)" transform="matrix(1,0,0,-1,15.8768352,-66.2911368)" vector-effect="non-scaling-stroke" /><path d="M36.5467452,-66.3019835 L39.7970842,-66.5117563 41.2768348,-66.9357098 39.2243608,-67.1653513 35.7234121,-66.9355082 34.5312259,-66.511642 36.5467452,-66.3019835z" fill="none" shaper:cutDepth="0" shaper:pathType="guide" stroke="rgb(100,100,100)" transform="matrix(1,0,0,-1,15.8768352,-66.2911368)" vector-effect="non-scaling-stroke" /><path d="M-13.2498558,-67.8247091 L-14.9214041,-68.4089806 -12.4563389,-68.7300273 -8.3708394,-68.4087416 -7.0957078,-67.8245974 -9.5010188,-67.5366747 -13.2498558,-67.8247091z" fill="none" shaper:cutDepth="0" shaper:pathType="guide" stroke="rgb(100,100,100)" transform="matrix(1,0,0,-1,15.8768352,-66.2911368)" vector-effect="non-scaling-stroke" /><path d="M10.3166864,-66.9391456 L10.4400979,-66.514998 7.9306507,-66.3188368 5.1742396,-66.5147872 4.7632637,-66.9389089 7.3951276,-67.1688984 10.3166864,-66.9391456z" fill="none" shaper:cutDepth="0" shaper:pathType="guide" stroke="rgb(100,100,100)" transform="matrix(1,0,0,-1,15.8768352,-66.2911368)" vector-effect="non-scaling-stroke" /><path d="M-4.6108591,-66.5131442 L-5.5567858,-66.9371385 -3.2146168,-67.1669652 -0.003363,-66.9371632 0.6544358,-66.5131442 -1.6080474,-66.2911368 -4.6108591,-66.5131442z" fill="none" shaper:cutDepth="0" shaper:pathType="guide" stroke="rgb(100,100,100)" transform="matrix(1,0,0,-1,15.8768352,-66.2911368)" vector-effect="non-scaling-stroke" /><path d="M-15.8768352,-66.9357098 L-13.8243612,-67.1653513 -10.3234125,-66.9355082 -9.1312263,-66.511642 -11.1467456,-66.3019835 -14.3970846,-66.5117563 -15.8768352,-66.9357098z" fill="none" shaper:cutDepth="0" shaper:pathType="guide" stroke="rgb(100,100,100)" transform="matrix(1,0,0,-1,15.8768352,-66.2911368)" vector-effect="non-scaling-stroke" /></svg>