<svg xmlns="http://www.w3.org/2000/svg" xmlns:shaper="http://www.shapertools.com/namespaces/shaper" xmlns:xlink="http://www.w3.org/1999/xlink" enable-background="new 0 0 52.4955613 7.0558419" height="7.0558419cm" shaper:fusionaddin="version:1.5.0" version="1.1" viewBox="0 0 52.4955613 7.0558419" width="52.4955613cm" x="0cm" xml:space="preserve" y="0cm"><path d="M-1.1834505,-73.8220082 L0.0845052,-72.448073 -3.8366417,-71.8460051 -9.2030507,-72.448073 -11.4044784,-73.8222155 -7.2989919,-74.6178396 -1.1834505,-73.8220082z" fill="#fff" shaper:cutDepth="0" shaper:pathType="guide" stroke="rgb(100,100,100)" transform="matrix(1,0,0,-1,13.5477809,-67.5619977)" vector-effect="non-scaling-stroke" id="tile0" class="hexTile"/><path d="M-5.5121167,-73.0702844 a0.127,0.127 0 1,1 0.254,0 a0.127,0.127 0 1,1 -0.254,0z" fill="#fff" shaper:cutDepth="0" shaper:pathType="guide" stroke="#fff" transform="matrix(1,0,0,-1,13.5477809,-67.5619977)" vector-effect="non-scaling-stroke" id="point1" class="hexCenter"/><path d="M1.2893543,-70.5268834 L4.9783109,-71.0075979 9.2735102,-70.5272782 9.522946,-69.6708673 6.0630494,-69.2653204 2.1200072,-69.6705149 1.2893543,-70.5268834z" fill="#fff" shaper:cutDepth="0" shaper:pathType="guide" stroke="rgb(100,100,100)" transform="matrix(1,0,0,-1,13.5477809,-67.5619977)" vector-effect="non-scaling-stroke" id="tile2" class="hexTile"/><path d="M5.434654,-70.0827082 a0.127,0.127 0 1,1 0.254,0 a0.127,0.127 0 1,1 -0.254,0z" fill="#fff" shaper:cutDepth="0" shaper:pathType="guide" stroke="#fff" transform="matrix(1,0,0,-1,13.5477809,-67.5619977)" vector-effect="non-scaling-stroke" id="point3" class="hexCenter"/><path d="M15.8770536,-69.6708673 L16.1264895,-70.5272782 20.4216888,-71.0075979 24.1106453,-70.5268834 23.2799924,-69.6705149 19.3369502,-69.2653204 15.8770536,-69.6708673z" fill="#fff" shaper:cutDepth="0" shaper:pathType="guide" stroke="rgb(100,100,100)" transform="matrix(1,0,0,-1,13.5477809,-67.5619977)" vector-effect="non-scaling-stroke" id="tile4" class="hexTile"/><path d="M19.7113456,-70.0827082 a0.127,0.127 0 1,1 0.254,0 a0.127,0.127 0 1,1 -0.254,0z" fill="#fff" shaper:cutDepth="0" shaper:pathType="guide" stroke="#fff" transform="matrix(1,0,0,-1,13.5477809,-67.5619977)" vector-effect="non-scaling-stroke" id="point5" class="hexCenter"/><path d="M29.2366413,-71.8460051 L34.6030503,-72.448073 36.804478,-73.8222155 32.6989915,-74.6178396 26.5834502,-73.8220082 25.3154944,-72.448073 29.2366413,-71.8460051z" fill="#fff" shaper:cutDepth="0" shaper:pathType="guide" stroke="rgb(100,100,100)" transform="matrix(1,0,0,-1,13.5477809,-67.5619977)" vector-effect="non-scaling-stroke" id="tile6" class="hexTile"/><path d="M30.6581163,-73.0702844 a0.127,0.127 0 1,1 0.254,0 a0.127,0.127 0 1,1 -0.254,0z" fill="#fff" shaper:cutDepth="0" shaper:pathType="guide" stroke="#fff" transform="matrix(1,0,0,-1,13.5477809,-67.5619977)" vector-effect="non-scaling-stroke" id="point7" class="hexCenter"/><path d="M-11.6370391,-69.6688982 L-13.5477809,-70.5251765 -10.465067,-71.0054305 -5.563625,-70.5249103 -4.2341004,-69.6688232 -7.2108515,-69.2848905 -11.6370391,-69.6688982z" fill="#fff" shaper:cutDepth="0" shaper:pathType="guide" stroke="rgb(100,100,100)" transform="matrix(1,0,0,-1,13.5477809,-67.5619977)" vector-effect="non-scaling-stroke" id="tile8" class="hexTile"/><path d="M-8.8416547,-70.0807911 a0.127,0.127 0 1,1 0.254,0 a0.127,0.127 0 1,1 -0.254,0z" fill="#fff" shaper:cutDepth="0" shaper:pathType="guide" stroke="#fff" transform="matrix(1,0,0,-1,13.5477809,-67.5619977)" vector-effect="non-scaling-stroke" id="point9" class="hexCenter"/><path d="M0.1218305,-68.7319774 L-2.7483434,-68.4106468 -1.813465,-67.8262652 2.1206279,-67.6105065 4.340683,-67.8264099 3.8022214,-68.4107756 0.1218305,-68.7319774z" fill="#fff" shaper:cutDepth="0" shaper:pathType="guide" stroke="rgb(100,100,100)" transform="matrix(1,0,0,-1,13.5477809,-67.5619977)" vector-effect="non-scaling-stroke" id="tile10" class="hexTile"/><path d="M0.7798325,-68.1094082 a0.127,0.127 0 1,1 0.254,0 a0.127,0.127 0 1,1 -0.254,0z" fill="#fff" shaper:cutDepth="0" shaper:pathType="guide" stroke="#fff" transform="matrix(1,0,0,-1,13.5477809,-67.5619977)" vector-effect="non-scaling-stroke" id="point11" class="hexCenter"/><path d="M15.9752822,-68.412833 L15.7770738,-67.8283746 12.6999998,-67.5619977 9.6229258,-67.8283746 9.4247174,-68.412833 12.6999998,-68.7344085 15.9752822,-68.412833z" fill="#fff" shaper:cutDepth="0" shaper:pathType="guide" stroke="rgb(100,100,100)" transform="matrix(1,0,0,-1,13.5477809,-67.5619977)" vector-effect="non-scaling-stroke" id="tile12" class="hexTile"/><path d="M12.5731563,-68.1117028 a0.127,0.127 0 1,1 0.254,0 a0.127,0.127 0 1,1 -0.254,0z" fill="#fff" shaper:cutDepth="0" shaper:pathType="guide" stroke="#fff" transform="matrix(1,0,0,-1,13.5477809,-67.5619977)" vector-effect="non-scaling-stroke" id="point13" class="hexCenter"/><path d="M21.5977782,-68.4107756 L25.2781692,-68.7319774 28.148343,-68.4106468 27.2134646,-67.8262652 23.2793717,-67.6105065 21.0593166,-67.8264099 21.5977782,-68.4107756z" fill="#fff" shaper:cutDepth="0" shaper:pathType="guide" stroke="rgb(100,100,100)" transform="matrix(1,0,0,-1,13.5477809,-67.5619977)" vector-effect="non-scaling-stroke" id="tile14" class="hexTile"/><path d="M24.3661672,-68.1094082 a0.127,0.127 0 1,1 0.254,0 a0.127,0.127 0 1,1 -0.254,0z" fill="#fff" shaper:cutDepth="0" shaper:pathType="guide" stroke="#fff" transform="matrix(1,0,0,-1,13.5477809,-67.5619977)" vector-effect="non-scaling-stroke" id="point15" class="hexCenter"/><path d="M30.9636246,-70.5249103 L35.8650667,-71.0054305 38.9477805,-70.5251765 37.0370388,-69.6688982 32.6108511,-69.2848905 29.6341,-69.6688232 30.9636246,-70.5249103z" fill="#fff" shaper:cutDepth="0" shaper:pathType="guide" stroke="rgb(100,100,100)" transform="matrix(1,0,0,-1,13.5477809,-67.5619977)" vector-effect="non-scaling-stroke" id="tile16" class="hexTile"/><path d="M33.9876543,-70.0807911 a0.127,0.127 0 1,1 0.254,0 a0.127,0.127 0 1,1 -0.254,0z" fill="#fff" shaper:cutDepth="0" shaper:pathType="guide" stroke="#fff" transform="matrix(1,0,0,-1,13.5477809,-67.5619977)" vector-effect="non-scaling-stroke" id="point17" class="hexCenter"/></svg>